<?xml version="1.0" standalone="no"?>
<!DOCTYPE svg PUBLIC "-//W3C//DTD SVG 1.1//EN" "http://www.w3.org/Graphics/SVG/1.1/DTD/svg11.dtd" >
<svg>
<metadata>
Created by FontForge 20110222 at Fri Oct  9 10:38:47 2015
 By www-data
Digitized data (C) 2004 Monotype Imaging. All rights reserved. Neo Sans is designed by Sebastian Lester.
</metadata>
<defs>
<font id="NeoSansStd-Ultra" horiz-adv-x="670" >
  <font-face 
    font-family="Neo Sans Std"
    font-weight="900"
    font-stretch="normal"
    units-per-em="1000"
    panose-1="2 11 11 4 3 5 4 4 2 4"
    ascent="765"
    descent="-235"
    x-height="590"
    cap-height="743"
    bbox="-167 -217 1627 1037"
    underline-thickness="100"
    underline-position="20"
    stemh="112"
    stemv="224"
    unicode-range="U+0020-FB04"
  />
<missing-glyph horiz-adv-x="500" 
d="M12 0v665h475v-665h-475zM88 618l162 -243l161 243h-323zM60 575v-484c0 -1 161 242 161 242zM440 575l-162 -242l162 -243v485zM411 48l-161 242l-162 -242h323z" />
    <glyph glyph-name="fi" unicode="fi" horiz-adv-x="753" 
d="M697 22c0 -12 -10 -22 -22 -22h-179c-12 0 -23 10 -23 22v404h-159v-404c0 -12 -10 -22 -22 -22h-180c-12 0 -22 10 -22 22v404l-48 9c-12 2 -22 10 -22 22v112c0 12 10 21 22 21h48v14c0 157 79 196 195 196c27 0 63 -5 92 -11c12 -2 21 -9 21 -21v-109
c0 -12 -9 -21 -21 -21h-34c-24 0 -29 -6 -29 -34v-14h361c12 0 22 -9 22 -21v-547zM703 656c0 -12 -11 -21 -23 -21h-189c-12 0 -23 9 -23 21v102c0 12 11 21 23 21h189c12 0 23 -9 23 -21v-102z" />
    <glyph glyph-name="fl" unicode="fl" horiz-adv-x="747" 
d="M398 443c0 -12 -9 -22 -21 -22h-63v-399c0 -12 -10 -22 -22 -22h-180c-12 0 -22 10 -22 22v399l-48 9c-12 2 -22 10 -22 22v112c0 12 10 21 22 21h48v19c0 157 79 196 225 196c97 0 163 -14 192 -21h169c12 0 21 -9 21 -21v-736c0 -12 -9 -22 -21 -22h-180
c-12 0 -23 10 -23 22v616h-100c-54 0 -59 -6 -59 -34v-19h63c12 0 21 -9 21 -21v-121z" />
    <glyph glyph-name="f_f" unicode="ff" horiz-adv-x="801" 
d="M781 448c0 -12 -9 -22 -21 -22h-63v-404c0 -12 -10 -22 -22 -22h-180c-12 0 -22 10 -22 22v404h-159v-404c0 -12 -10 -22 -22 -22h-180c-12 0 -22 10 -22 22v404l-48 9c-12 2 -22 10 -22 22v112c0 12 10 21 22 21h48v14c0 157 79 196 195 196c27 0 63 -5 92 -11
c12 -2 21 -9 21 -21v-109c0 -12 -9 -21 -21 -21h-34c-24 0 -29 -6 -29 -34v-14h159v14c0 157 79 196 195 196c27 0 63 -5 92 -11c12 -2 21 -9 21 -21v-109c0 -12 -9 -21 -21 -21h-34c-24 0 -29 -6 -29 -34v-14h63c12 0 21 -9 21 -21v-121z" />
    <glyph glyph-name="f_f_i" unicode="ffi" horiz-adv-x="1108" 
d="M1083 22c0 -12 -10 -22 -22 -22h-179c-12 0 -23 10 -23 22v404h-162v-404c0 -12 -10 -22 -22 -22h-180c-12 0 -22 10 -22 22v404h-159v-404c0 -12 -10 -22 -22 -22h-180c-12 0 -22 10 -22 22v404l-48 9c-12 2 -22 10 -22 22v112c0 12 10 21 22 21h48v14
c0 157 79 196 195 196c27 0 63 -5 92 -11c12 -2 21 -9 21 -21v-109c0 -12 -9 -21 -21 -21h-34c-24 0 -29 -6 -29 -34v-14h159v14c0 157 79 196 195 196c27 0 63 -5 92 -11c12 -2 21 -9 21 -21v-109c0 -12 -9 -21 -21 -21h-34c-24 0 -29 -6 -29 -34v-14h364
c12 0 22 -9 22 -21v-547zM1088 656c0 -12 -11 -21 -23 -21h-189c-12 0 -23 9 -23 21v102c0 12 11 21 23 21h189c12 0 23 -9 23 -21v-102z" />
    <glyph glyph-name="f_f_l" unicode="ffl" horiz-adv-x="1130" 
d="M781 448c0 -12 -9 -22 -21 -22h-63v-404c0 -12 -10 -22 -22 -22h-180c-12 0 -22 10 -22 22v404h-159v-404c0 -12 -10 -22 -22 -22h-180c-12 0 -22 10 -22 22v404l-48 9c-12 2 -22 10 -22 22v112c0 12 10 21 22 21h48v14c0 157 79 196 195 196c27 0 63 -5 92 -11
c12 -2 21 -9 21 -21v-109c0 -12 -9 -21 -21 -21h-34c-24 0 -29 -6 -29 -34v-14h159v14c0 157 79 196 225 196c97 0 163 -14 192 -21h169c12 0 21 -9 21 -21v-736c0 -12 -9 -22 -21 -22h-180c-12 0 -23 10 -23 22v616h-100c-54 0 -59 -6 -59 -34v-14h63c12 0 21 -9 21 -21
v-121z" />
    <glyph glyph-name="f_b" unicode="fb" horiz-adv-x="1059" 
d="M802 256v78c0 47 -12 82 -53 82c-23 0 -38 -2 -54 -3v-236c19 -2 28 -3 54 -3c41 0 53 34 53 82zM695 758v-164c13 3 42 6 54 6c185 0 275 -106 275 -266v-78c0 -175 -110 -266 -275 -266c-103 0 -189 15 -236 24c-34 7 -40 18 -40 35v589h-100c-54 0 -59 -6 -59 -34v-14
h63c12 0 21 -9 21 -21v-121c0 -12 -9 -22 -21 -22h-63v-404c0 -12 -10 -22 -22 -22h-180c-12 0 -22 10 -22 22v404l-48 9c-12 2 -22 10 -22 22v112c0 12 10 21 22 21h48v14c0 157 79 196 225 196c97 0 163 -14 192 -21h167c12 0 21 -9 21 -21z" />
    <glyph glyph-name="f_f_b" unicode="ffb" horiz-adv-x="1442" 
d="M1185 256v78c0 47 -12 82 -53 82c-23 0 -38 -2 -54 -3v-236c19 -2 28 -3 54 -3c41 0 53 34 53 82zM473 426h-159v-404c0 -12 -10 -22 -22 -22h-180c-12 0 -22 10 -22 22v404l-48 9c-12 2 -22 10 -22 22v112c0 12 10 21 22 21h48v14c0 157 79 196 195 196
c27 0 63 -5 92 -11c12 -2 21 -9 21 -21v-109c0 -12 -9 -21 -21 -21h-34c-24 0 -29 -6 -29 -34v-14h159v14c0 157 79 196 225 196c97 0 163 -14 192 -21h167c12 0 21 -9 21 -21v-164c13 3 42 6 54 6c185 0 275 -106 275 -266v-78c0 -175 -110 -266 -275 -266
c-103 0 -189 15 -236 24c-34 7 -40 18 -40 35v589h-100c-54 0 -59 -6 -59 -34v-14h63c12 0 21 -9 21 -21v-121c0 -12 -9 -22 -21 -22h-63v-404c0 -12 -10 -22 -22 -22h-180c-12 0 -22 10 -22 22v404z" />
    <glyph glyph-name="f_f_h" unicode="ffh" horiz-adv-x="1458" 
d="M473 426h-159v-404c0 -12 -10 -22 -22 -22h-180c-12 0 -22 10 -22 22v404l-48 9c-12 2 -22 10 -22 22v112c0 12 10 21 22 21h48v14c0 157 79 196 195 196c27 0 63 -5 92 -11c12 -2 21 -9 21 -21v-109c0 -12 -9 -21 -21 -21h-34c-24 0 -29 -6 -29 -34v-14h159v14
c0 157 79 196 225 196c97 0 163 -14 192 -21h167c12 0 21 -9 21 -21v-200c46 33 92 42 147 42c147 0 183 -107 183 -232v-346c0 -12 -9 -22 -21 -22h-180c-12 0 -22 10 -22 22v346c0 35 -23 49 -51 49c-18 0 -37 -5 -55 -15v-380c0 -12 -8 -22 -20 -22h-180
c-12 0 -23 10 -23 22v616h-100c-54 0 -59 -6 -59 -34v-14h63c12 0 21 -9 21 -21v-121c0 -12 -9 -22 -21 -22h-63v-404c0 -12 -10 -22 -22 -22h-180c-12 0 -22 10 -22 22v404z" />
    <glyph glyph-name="f_f_k" unicode="ffk" horiz-adv-x="1475" 
d="M473 22v404h-159v-404c0 -12 -10 -22 -22 -22h-180c-12 0 -22 10 -22 22v404l-48 9c-12 2 -22 10 -22 22v112c0 12 10 21 22 21h48v14c0 157 79 196 195 196c27 0 63 -5 92 -11c12 -2 21 -9 21 -21v-109c0 -12 -9 -21 -21 -21h-34c-24 0 -29 -6 -29 -34v-14h159v14
c0 157 79 196 225 196c97 0 163 -14 192 -21h168c12 0 20 -9 20 -21v-418l120 229c10 20 20 21 32 21h199c11 0 16 -6 16 -14c0 -4 -1 -7 -3 -11l-157 -260l164 -281c2 -3 2 -7 2 -10c0 -7 -3 -14 -13 -14h-216c-12 0 -22 2 -32 22l-112 229v-229c0 -12 -8 -22 -20 -22h-179
c-12 0 -23 10 -23 22v616h-100c-54 0 -59 -6 -59 -34v-14h63c12 0 21 -9 21 -21v-121c0 -12 -9 -22 -21 -22h-63v-404c0 -12 -10 -22 -22 -22h-180c-12 0 -22 10 -22 22z" />
    <glyph glyph-name="f_h" unicode="fh" horiz-adv-x="1075" 
d="M695 758v-200c46 33 92 42 147 42c147 0 183 -107 183 -232v-346c0 -12 -9 -22 -21 -22h-180c-12 0 -22 10 -22 22v346c0 35 -23 49 -51 49c-18 0 -37 -5 -55 -15v-380c0 -12 -8 -22 -20 -22h-180c-12 0 -23 10 -23 22v616h-100c-54 0 -59 -6 -59 -34v-14h63
c12 0 21 -9 21 -21v-121c0 -12 -9 -22 -21 -22h-63v-404c0 -12 -10 -22 -22 -22h-180c-12 0 -22 10 -22 22v404l-48 9c-12 2 -22 10 -22 22v112c0 12 10 21 22 21h48v14c0 157 79 196 225 196c97 0 163 -14 192 -21h167c12 0 21 -9 21 -21z" />
    <glyph glyph-name="f_j" unicode="fj" horiz-adv-x="752" 
d="M700 -11c0 -154 -76 -199 -180 -199c-35 0 -67 4 -107 11c-12 2 -21 10 -21 22v108c0 12 9 21 21 21h42c19 0 21 17 21 37v437h-162v-404c0 -12 -10 -22 -22 -22h-180c-12 0 -22 10 -22 22v404l-48 9c-12 2 -22 10 -22 22v112c0 12 10 21 22 21h48v14
c0 157 79 196 195 196c27 0 63 -5 92 -11c12 -2 21 -9 21 -21v-109c0 -12 -9 -21 -21 -21h-34c-24 0 -29 -6 -29 -34v-14h364c12 0 22 -9 22 -21v-580zM705 656c0 -12 -11 -21 -23 -21h-189c-12 0 -23 9 -23 21v102c0 12 11 21 23 21h189c12 0 23 -9 23 -21v-102z" />
    <glyph glyph-name="f_f_j" unicode="ffj" horiz-adv-x="1175" 
d="M1123 -11c0 -154 -76 -199 -180 -199c-35 0 -67 4 -107 11c-12 2 -21 10 -21 22v108c0 12 9 21 21 21h42c19 0 21 17 21 37v437h-162v-404c0 -12 -10 -22 -22 -22h-180c-12 0 -22 10 -22 22v404h-199v-404c0 -12 -10 -22 -22 -22h-180c-12 0 -22 10 -22 22v404l-48 9
c-12 2 -22 10 -22 22v112c0 12 10 21 22 21h48v14c0 157 79 196 195 196c27 0 63 -5 92 -11c12 -2 21 -9 21 -21v-109c0 -12 -9 -21 -21 -21h-34c-24 0 -29 -6 -29 -34v-14h199v14c0 157 79 196 195 196c27 0 63 -5 92 -11c12 -2 21 -9 21 -21v-109c0 -12 -9 -21 -21 -21
h-34c-24 0 -29 -6 -29 -34v-14h364c12 0 22 -9 22 -21v-580zM1128 656c0 -12 -11 -21 -23 -21h-189c-12 0 -23 9 -23 21v102c0 12 11 21 23 21h189c12 0 23 -9 23 -21v-102z" />
    <glyph glyph-name="f_k" unicode="fk" horiz-adv-x="1092" 
d="M507 779h168c12 0 20 -9 20 -21v-418l120 229c10 20 20 21 32 21h199c11 0 16 -6 16 -14c0 -4 -1 -7 -3 -11l-157 -260l164 -281c2 -3 2 -7 2 -10c0 -7 -3 -14 -13 -14h-216c-12 0 -22 2 -32 22l-112 229v-229c0 -12 -8 -22 -20 -22h-179c-12 0 -23 10 -23 22v616h-100
c-54 0 -59 -6 -59 -34v-14h63c12 0 21 -9 21 -21v-121c0 -12 -9 -22 -21 -22h-63v-404c0 -12 -10 -22 -22 -22h-180c-12 0 -22 10 -22 22v404l-48 9c-12 2 -22 10 -22 22v112c0 12 10 21 22 21h48v14c0 157 79 196 225 196c97 0 163 -14 192 -21z" />
    <glyph glyph-name=".notdef" horiz-adv-x="500" 
d="M12 0v665h475v-665h-475zM88 618l162 -243l161 243h-323zM60 575v-484c0 -1 161 242 161 242zM440 575l-162 -242l162 -243v485zM411 48l-161 242l-162 -242h323z" />
    <glyph glyph-name="space" unicode=" " horiz-adv-x="242" 
 />
    <glyph glyph-name="exclam" unicode="!" horiz-adv-x="309" 
d="M269 759v-1l-30 -482c-1 -12 -8 -22 -20 -22h-127c-12 0 -21 10 -22 22l-30 482v1c0 11 11 20 22 20h187c11 0 20 -9 20 -20zM262 20c0 -11 -9 -20 -20 -20h-175c-11 0 -20 9 -20 20v152c0 11 9 20 20 20h175c11 0 20 -9 20 -20v-152z" />
    <glyph glyph-name="quotedbl" unicode="&#x22;" horiz-adv-x="497" 
d="M524 768c0 -2 -1 -5 -2 -8l-88 -242c-5 -13 -9 -19 -19 -19h-145c-7 0 -9 4 -9 10c0 3 0 6 1 9l61 242c4 14 10 19 20 19h169c7 0 12 -4 12 -11zM267 768c0 -2 -1 -5 -2 -8l-88 -242c-5 -13 -9 -19 -19 -19h-145c-7 0 -9 4 -9 10c0 3 0 6 1 9l61 242c4 14 10 19 20 19
h169c7 0 12 -4 12 -11z" />
    <glyph glyph-name="numbersign" unicode="#" horiz-adv-x="715" 
d="M688 554v-2l-11 -101c-1 -10 -10 -16 -20 -16h-72l-12 -129h73c9 0 18 -6 18 -15v-2l-11 -101c-1 -10 -10 -16 -20 -16h-72l-13 -153c-1 -10 -7 -19 -18 -19h-149c-10 0 -16 8 -16 17v2l13 153h-80l-13 -153c-1 -10 -8 -19 -18 -19h-150c-9 0 -16 8 -16 17v2l13 153h-69
c-9 0 -18 5 -18 14v2l11 101c1 10 10 17 20 17h68l12 129h-69c-9 0 -18 5 -18 14v2l11 101c1 10 10 17 20 17h67l14 155c1 10 9 19 19 19h150c9 0 15 -8 15 -17v-2l-14 -155h80l14 155c1 10 8 19 19 19h149c10 0 15 -8 15 -17v-2l-14 -155h74c9 0 18 -6 18 -15zM402 435h-80
l-12 -129h80z" />
    <glyph glyph-name="dollar" unicode="$" 
d="M612 229c0 -98 -58 -199 -200 -230v-101c0 -11 -9 -20 -20 -20h-148c-11 0 -20 9 -20 20v97c-46 5 -86 15 -120 25c-11 3 -21 9 -21 20v149c0 10 9 20 19 20h2c42 -5 149 -17 215 -17c29 0 37 13 37 31c0 10 -5 18 -28 31l-150 87c-95 55 -120 129 -120 209
c0 89 39 168 166 194v91c0 11 9 20 20 20h148c11 0 20 -9 20 -20v-86c64 -5 127 -15 157 -24c11 -3 20 -9 20 -20v-149c0 -11 -8 -20 -18 -20h-2c-53 5 -168 15 -243 15c-17 0 -21 -8 -21 -16c0 -9 4 -15 37 -32l142 -75c90 -48 128 -113 128 -199z" />
    <glyph glyph-name="percent" unicode="%" horiz-adv-x="896" 
d="M861 174c0 -122 -56 -180 -158 -180s-158 58 -158 180v60c0 122 56 180 158 180s158 -58 158 -180v-60zM747 732c0 -3 -1 -7 -3 -10l-414 -700c-9 -15 -13 -22 -25 -22h-142c-8 0 -13 6 -13 13c0 3 0 6 2 9l414 700c9 15 15 21 27 21h142c8 0 12 -5 12 -11zM351 508
c0 -122 -56 -180 -158 -180s-158 58 -158 180v60c0 122 56 180 158 180s158 -58 158 -180v-60zM730 174v60c0 61 -10 69 -27 69s-28 -8 -28 -69v-60c0 -61 11 -70 28 -70s27 9 27 70zM220 508v60c0 61 -10 69 -27 69s-28 -8 -28 -69v-60c0 -61 11 -70 28 -70s27 9 27 70z
" />
    <glyph glyph-name="ampersand" unicode="&#x26;" horiz-adv-x="761" 
d="M770 15c0 -9 -7 -15 -15 -15h-202c-9 0 -11 2 -18 9l-17 17c-49 -23 -108 -36 -177 -36c-183 0 -302 52 -302 204v18c0 91 54 146 125 190l-9 11c-56 68 -77 99 -77 146v8c0 97 63 186 255 186c186 0 255 -73 255 -188v-8c0 -77 -34 -119 -101 -165l-43 -30l81 -84
c5 20 7 44 7 67v13c0 11 9 20 20 20h134c11 0 20 -9 20 -20v-13c0 -71 -18 -141 -54 -199l111 -117c5 -5 7 -10 7 -14zM379 557v8c0 20 -13 39 -46 39c-38 0 -46 -19 -46 -39v-8c0 -23 6 -38 26 -58l6 -6l20 13c35 23 40 33 40 51zM400 151l-109 116
c-23 -16 -26 -39 -26 -60v-8c0 -30 20 -56 76 -56c21 0 41 3 59 8z" />
    <glyph glyph-name="quoteright" unicode="&#x2019;" horiz-adv-x="290" 
d="M277 768c0 -2 -1 -5 -2 -8l-88 -242c-5 -13 -9 -19 -19 -19h-145c-7 0 -9 4 -9 10c0 3 0 6 1 9l61 242c4 14 10 19 20 19h169c7 0 12 -4 12 -11z" />
    <glyph glyph-name="parenleft" unicode="(" horiz-adv-x="402" 
d="M377 -185c0 -6 -4 -10 -12 -10h-160c-15 0 -26 3 -34 14c-85 119 -131 251 -131 445v19c0 194 46 327 131 446c8 11 19 14 34 14h160c8 0 12 -4 12 -10c0 -5 -2 -11 -5 -16c-55 -102 -108 -242 -108 -434v-19c0 -192 53 -331 108 -433c3 -5 5 -11 5 -16z" />
    <glyph glyph-name="parenright" unicode=")" horiz-adv-x="402" 
d="M362 264c0 -194 -46 -326 -131 -445c-8 -11 -19 -14 -34 -14h-160c-8 0 -12 4 -12 10c0 5 2 11 5 16c55 102 108 241 108 433v19c0 192 -53 332 -108 434c-3 5 -5 11 -5 16c0 6 4 10 12 10h160c15 0 26 -3 34 -14c85 -119 131 -252 131 -446v-19z" />
    <glyph glyph-name="asterisk" unicode="*" horiz-adv-x="480" 
d="M461 549c0 -8 -7 -14 -16 -17l-107 -30l68 -90c4 -5 6 -10 6 -15s-2 -10 -7 -13l-75 -54c-3 -2 -7 -3 -10 -3c-7 0 -13 4 -17 10l-63 94l-63 -94c-4 -6 -10 -10 -17 -10c-3 0 -7 1 -10 3l-75 54c-5 3 -7 8 -7 13s2 10 6 15l68 90l-106 30c-10 3 -17 9 -17 18c0 1 0 3 1 5
l29 89c3 8 8 11 15 11c3 0 6 -1 10 -2l106 -37l-3 111v1c0 12 5 21 16 21h94c12 0 16 -10 16 -21v-1l-2 -111l105 37c4 1 7 2 10 2c7 0 12 -3 15 -11l29 -89c1 -2 1 -4 1 -6z" />
    <glyph glyph-name="plus" unicode="+" 
d="M578 326c0 -11 -9 -16 -20 -16h-142v-141c0 -11 -5 -20 -16 -20h-130c-11 0 -16 9 -16 20v141h-141c-11 0 -20 5 -20 16v130c0 11 9 16 20 16h141v142c0 11 5 20 16 20h130c11 0 16 -9 16 -20v-142h142c11 0 20 -5 20 -16v-130z" />
    <glyph glyph-name="comma" unicode="," horiz-adv-x="296" 
d="M265 178c0 -2 0 -4 -1 -6l-112 -252c-4 -10 -9 -20 -20 -20h-127c-10 0 -20 7 -20 17v3l70 252c3 11 10 20 21 20h173c9 0 16 -7 16 -14z" />
    <glyph glyph-name="hyphen" unicode="-" horiz-adv-x="262" 
d="M247 238c0 -11 -9 -20 -20 -20h-192c-11 0 -20 9 -20 20v118c0 11 9 20 20 20h192c11 0 20 -9 20 -20v-118z" />
    <glyph glyph-name="period" unicode="." horiz-adv-x="296" 
d="M256 20c0 -11 -10 -20 -21 -20h-174c-11 0 -21 9 -21 20v152c0 11 10 20 21 20h174c11 0 21 -9 21 -20v-152z" />
    <glyph glyph-name="slash" unicode="/" horiz-adv-x="445" 
d="M435 726c0 -2 -1 -3 -1 -4l-200 -700c-3 -11 -9 -22 -21 -22h-180c-11 0 -23 9 -23 19v3l200 700c3 11 11 21 23 21h180c11 0 22 -8 22 -17z" />
    <glyph glyph-name="zero" unicode="0" 
d="M622 317c0 -222 -101 -327 -287 -327s-287 105 -287 327v109c0 222 101 327 287 327s287 -105 287 -327v-109zM385 317v109c0 111 -20 126 -50 126s-50 -15 -50 -126v-109c0 -111 20 -126 50 -126s50 15 50 126z" />
    <glyph glyph-name="one" unicode="1" 
d="M106 199h121v311l-120 -39c-5 -2 -9 -3 -12 -3c-7 0 -10 4 -10 12v169c0 10 4 16 14 20l181 69c8 3 13 5 22 5h140c11 0 20 -9 20 -20v-524h121c11 0 21 -9 21 -20v-159c0 -11 -10 -20 -21 -20h-477c-11 0 -21 9 -21 20v159c0 11 10 20 21 20z" />
    <glyph glyph-name="two" unicode="2" 
d="M605 548c0 -108 -81 -176 -171 -229c-72 -42 -130 -77 -149 -120h287c11 0 21 -9 21 -20v-159c0 -11 -10 -20 -21 -20h-486c-11 0 -21 9 -21 20v110c0 156 87 236 183 301c111 75 122 73 122 105c0 20 -7 30 -83 30c-65 0 -131 -5 -193 -10h-1c-11 0 -19 9 -19 20v115
c0 11 10 16 20 20c63 24 146 42 237 42c202 0 274 -70 274 -205z" />
    <glyph glyph-name="three" unicode="3" 
d="M604 211c0 -160 -100 -221 -280 -221c-86 0 -194 22 -236 41c-10 5 -21 9 -21 20v116c0 11 9 20 20 20h1c53 -4 149 -10 216 -10c58 0 72 26 72 56c0 29 -15 56 -59 56h-173c-11 0 -20 9 -20 20v129c0 11 9 20 20 20h161c49 0 70 27 70 57c0 32 -22 51 -71 51
c-67 0 -156 -7 -209 -10h-1c-11 0 -20 9 -20 20v116c0 11 11 15 21 20c42 19 143 41 229 41c180 0 280 -51 280 -211c0 -86 -41 -131 -93 -165c62 -31 93 -88 93 -166z" />
    <glyph glyph-name="four" unicode="4" 
d="M632 162c0 -11 -9 -20 -20 -20h-50v-122c0 -11 -9 -20 -20 -20h-195c-11 0 -20 9 -20 20v122h-268c-11 0 -20 9 -20 20v130c0 10 3 19 10 28l332 418c4 4 8 5 13 5h9h139c11 0 20 -9 20 -20v-404h50c11 0 20 -9 20 -20v-137zM338 319v162l-128 -162h128z" />
    <glyph glyph-name="five" unicode="5" 
d="M599 235c0 -173 -123 -245 -297 -245c-74 0 -149 14 -208 37c-10 4 -21 9 -21 20v120c0 11 9 20 19 20h2c30 -3 140 -10 155 -10c97 0 109 16 109 58v12c0 31 -10 51 -71 51h-194c-11 0 -21 9 -21 19v1l31 405c1 11 9 20 20 20h439c11 0 20 -9 20 -20v-147
c0 -11 -9 -20 -20 -20h-272l-7 -81h53c214 0 263 -101 263 -228v-12z" />
    <glyph glyph-name="six" unicode="6" 
d="M614 254c0 -161 -92 -264 -278 -264s-280 101 -280 264v228c0 196 138 271 280 271c96 0 166 -14 222 -31c19 -6 21 -15 21 -26v-124c0 -14 -6 -20 -18 -20h-5c-47 6 -118 14 -176 14c-65 0 -93 -11 -93 -84v-5c13 2 57 7 74 7c144 0 253 -55 253 -224v-6zM384 254v6
c0 57 -17 70 -48 70c-21 0 -39 -2 -49 -3v-73c0 -73 21 -91 49 -91s48 19 48 91z" />
    <glyph glyph-name="seven" unicode="7" 
d="M600 612c0 -19 -7 -34 -12 -44l-269 -548c-5 -10 -9 -20 -20 -20h-213c-10 0 -16 3 -16 10c0 2 1 6 3 10l270 536h-250c-11 0 -21 9 -21 20v147c0 11 10 20 21 20h487c11 0 20 -9 20 -20v-111z" />
    <glyph glyph-name="eight" unicode="8" 
d="M625 210c0 -119 -83 -220 -284 -220h-12c-201 0 -284 101 -284 220v20c0 64 29 118 75 154c-39 30 -70 70 -70 137v26c0 121 78 206 279 206h12c201 0 279 -85 279 -206v-26c0 -67 -31 -107 -70 -137c46 -36 75 -90 75 -154v-20zM396 514v8c0 26 -12 60 -55 60h-12
c-43 0 -55 -34 -55 -60v-8c0 -38 25 -55 55 -55h12c30 0 55 17 55 55zM397 224v11c0 43 -18 68 -56 68h-12c-38 0 -56 -25 -56 -68v-11c0 -39 21 -64 56 -64h12c35 0 56 25 56 64z" />
    <glyph glyph-name="nine" unicode="9" 
d="M608 261c0 -196 -138 -271 -280 -271c-96 0 -166 14 -222 31c-19 6 -21 15 -21 26v124c0 14 6 20 18 20h5c47 -6 118 -14 176 -14c65 0 93 11 93 84v5c-13 -2 -57 -7 -74 -7c-144 0 -253 55 -253 224v6c0 161 92 264 278 264s280 -101 280 -264v-228zM377 416v73
c0 73 -21 91 -49 91s-48 -19 -48 -91v-6c0 -57 17 -70 48 -70c21 0 39 2 49 3z" />
    <glyph glyph-name="colon" unicode=":" horiz-adv-x="296" 
d="M256 379c0 -11 -10 -20 -21 -20h-174c-11 0 -21 9 -21 20v152c0 11 10 20 21 20h174c11 0 21 -9 21 -20v-152zM256 20c0 -11 -10 -20 -21 -20h-174c-11 0 -21 9 -21 20v152c0 11 10 20 21 20h174c11 0 21 -9 21 -20v-152z" />
    <glyph glyph-name="semicolon" unicode=";" horiz-adv-x="296" 
d="M259 379c0 -11 -10 -20 -21 -20h-174c-11 0 -21 9 -21 20v152c0 11 10 20 21 20h174c11 0 21 -9 21 -20v-152zM64 192h173c11 0 21 -6 15 -20l-112 -252c-4 -10 -9 -20 -20 -20h-127c-11 0 -24 5 -20 20l70 252c3 11 10 20 21 20z" />
    <glyph glyph-name="less" unicode="&#x3c;" 
d="M580 145c0 -6 -6 -11 -13 -11h-197c-11 0 -20 3 -28 10l-236 218c-9 9 -15 19 -15 29s6 20 15 29l236 218c8 7 17 10 28 10h197c7 0 13 -5 13 -11c0 -3 -2 -8 -7 -12l-256 -234l256 -234c5 -4 7 -9 7 -12z" />
    <glyph glyph-name="equal" unicode="=" 
d="M578 468c0 -11 -9 -16 -20 -16h-445c-11 0 -20 5 -20 16v130c0 11 9 16 20 16h445c11 0 20 -5 20 -16v-130zM578 184c0 -11 -9 -16 -20 -16h-445c-11 0 -20 5 -20 16v130c0 11 9 16 20 16h445c11 0 20 -5 20 -16v-130z" />
    <glyph glyph-name="greater" unicode="&#x3e;" 
d="M579 391c0 -10 -6 -20 -15 -29l-236 -218c-8 -7 -17 -10 -28 -10h-197c-7 0 -13 5 -13 11c0 3 2 8 7 12l256 234l-256 234c-5 4 -7 9 -7 12c0 6 6 11 13 11h197c11 0 20 -3 28 -10l236 -218c9 -9 15 -19 15 -29z" />
    <glyph glyph-name="question" unicode="?" horiz-adv-x="500" 
d="M470 604c0 -62 -21 -96 -47 -134l-132 -197c-10 -14 -19 -20 -32 -20h-134c-11 0 -20 9 -20 20v41c0 67 8 84 42 142l48 82c9 16 13 25 13 35c0 9 -6 13 -18 13c-8 0 -40 -1 -140 -11c-17 -2 -20 9 -20 20v144c0 11 10 16 20 20c44 17 107 29 172 29
c165 0 248 -46 248 -184zM310 20c0 -11 -10 -20 -21 -20h-174c-11 0 -21 9 -21 20v152c0 11 10 20 21 20h174c11 0 21 -9 21 -20v-152z" />
    <glyph glyph-name="at" unicode="@" horiz-adv-x="792" 
d="M762 355c0 -226 -172 -318 -383 -318c-101 0 -187 43 -187 152c0 6 1 11 1 17l9 115c10 134 101 178 215 178c49 0 107 -9 138 -16c19 -4 33 -12 30 -37l-27 -287c58 14 104 95 104 196c0 113 -53 226 -230 226c-175 0 -267 -74 -283 -238l-16 -169c-1 -11 -2 -21 -2 -31
c0 -142 105 -184 248 -184c50 0 124 5 157 8h1c7 0 8 -6 8 -12v-49c0 -6 -2 -10 -8 -11c-30 -6 -104 -14 -158 -14c-187 0 -348 71 -348 262c0 11 1 28 2 40l16 167c20 205 155 318 383 318c232 0 330 -152 330 -313zM428 373c-12 2 -21 3 -29 3c-34 0 -43 -8 -48 -60
l-11 -108c-1 -6 -1 -14 -1 -19c0 -29 18 -31 40 -31c9 0 12 0 30 1z" />
    <glyph glyph-name="A" unicode="A" horiz-adv-x="716" 
d="M681 0h-208c-11 0 -19 9 -21 20l-18 112h-152l-18 -112c-2 -11 -10 -20 -21 -20h-208c-13 0 -17 9 -15 20l119 604c20 102 97 129 219 129s199 -27 219 -129l119 -604c2 -11 -2 -20 -15 -20zM404 316l-37 233c-1 8 -2 13 -9 13s-8 -5 -9 -13l-37 -233h92z" />
    <glyph glyph-name="B" unicode="B" horiz-adv-x="704" 
d="M664 228c0 -211 -191 -238 -338 -238c-36 0 -146 2 -201 12c-54 10 -70 25 -70 87v566c0 62 16 77 70 86c50 8 165 12 201 12c205 0 334 -43 334 -219v-16c0 -62 -32 -112 -69 -137c37 -26 73 -84 73 -142v-11zM434 499v16c0 24 -15 48 -67 48h-82v-112h82
c52 0 67 21 67 48zM437 237v6c0 33 -18 55 -70 55h-82v-118h82c53 0 70 28 70 57z" />
    <glyph glyph-name="C" unicode="C" horiz-adv-x="548" 
d="M513 31c0 -13 -4 -16 -21 -22c-32 -11 -76 -19 -131 -19c-217 0 -321 121 -321 341v81c0 221 104 341 321 341c55 0 103 -9 131 -19c17 -6 21 -9 21 -22v-158c0 -15 -5 -20 -20 -18c-21 2 -68 9 -110 9c-62 0 -104 -18 -104 -133v-81c0 -120 42 -133 105 -133
c36 0 65 4 109 9c15 2 20 -2 20 -18v-158z" />
    <glyph glyph-name="D" unicode="D" horiz-adv-x="706" 
d="M666 326c0 -238 -133 -336 -331 -336c-108 0 -183 8 -245 19c-24 4 -35 13 -35 43v639c0 30 11 39 35 43c62 11 137 19 245 19c198 0 331 -98 331 -336v-91zM427 326v91c0 106 -22 134 -92 134h-44v-359h44c70 0 92 28 92 134z" />
    <glyph glyph-name="E" unicode="E" horiz-adv-x="595" 
d="M540 21c0 -11 -9 -19 -20 -20c-41 -5 -114 -11 -201 -11c-126 0 -269 29 -269 234v295c0 205 143 234 269 234c87 0 160 -6 201 -11c11 -1 20 -9 20 -20v-151c0 -11 -9 -20 -20 -20h-201c-25 0 -33 -7 -33 -32v-54h234c11 0 20 -9 20 -20v-141c0 -11 -9 -20 -20 -20h-234
v-60c0 -25 8 -32 33 -32h201c11 0 20 -9 20 -20v-151z" />
    <glyph glyph-name="F" unicode="F" horiz-adv-x="590" 
d="M540 304c0 -11 -9 -20 -20 -20h-234v-264c0 -11 -9 -20 -20 -20h-195c-11 0 -21 9 -21 20v499c0 205 143 234 269 234c87 0 160 -6 201 -11c11 -1 20 -9 20 -20v-151c0 -11 -9 -20 -20 -20h-201c-25 0 -33 -7 -33 -32v-54h234c11 0 20 -9 20 -20v-141z" />
    <glyph glyph-name="G" unicode="G" horiz-adv-x="673" 
d="M618 40c0 -17 -3 -18 -21 -22c-61 -13 -145 -28 -239 -28c-127 0 -318 51 -318 339v85c0 293 195 339 328 339c108 0 185 -18 229 -31c20 -6 21 -9 21 -22v-147c0 -15 -3 -20 -17 -18c-30 4 -115 10 -177 10c-109 0 -145 -21 -145 -131v-87c0 -131 49 -135 79 -135
c9 0 24 1 33 3v180c0 11 9 20 20 20h187c11 0 20 -9 20 -20v-335z" />
    <glyph glyph-name="H" unicode="H" horiz-adv-x="753" 
d="M698 20c0 -11 -9 -20 -20 -20h-195c-11 0 -21 9 -21 20v255h-171v-255c0 -11 -9 -20 -20 -20h-195c-11 0 -21 9 -21 20v703c0 11 10 20 21 20h195c11 0 20 -9 20 -20v-246h171v246c0 11 10 20 21 20h195c11 0 20 -9 20 -20v-703z" />
    <glyph glyph-name="I" unicode="I" horiz-adv-x="356" 
d="M296 20c0 -11 -9 -20 -20 -20h-195c-11 0 -21 9 -21 20v703c0 11 10 20 21 20h195c11 0 20 -9 20 -20v-703z" />
    <glyph glyph-name="J" unicode="J" horiz-adv-x="356" 
d="M296 5c0 -157 -77 -211 -190 -211c-29 0 -78 1 -111 6c-11 2 -20 9 -20 20v134c0 11 9 20 20 20h43c18 0 22 6 22 31v718c0 11 10 20 21 20h195c11 0 20 -9 20 -20v-718z" />
    <glyph glyph-name="K" unicode="K" horiz-adv-x="744" 
d="M721 12c0 -7 -4 -12 -12 -12h-236c-21 0 -27 10 -32 20l-150 307v-307c0 -11 -9 -20 -20 -20h-195c-11 0 -21 9 -21 20v703c0 11 10 20 21 20h195c11 0 20 -9 20 -20v-315l165 315c5 10 10 20 21 20h231c8 0 12 -5 12 -12c0 -2 0 -5 -2 -8l-198 -350l199 -353
c2 -3 2 -6 2 -8z" />
    <glyph glyph-name="L" unicode="L" horiz-adv-x="520" 
d="M495 21c0 -11 -9 -18 -20 -20c-40 -7 -99 -11 -151 -11c-126 0 -269 29 -269 234v499c0 11 10 20 21 20h195c11 0 20 -9 20 -20v-499c0 -25 8 -32 33 -32h151c11 0 20 -9 20 -20v-151z" />
    <glyph glyph-name="M" unicode="M" horiz-adv-x="866" 
d="M806 11c0 -11 -9 -11 -16 -11h-197c-8 0 -14 9 -14 20v313c0 8 0 9 -6 9c-4 0 -6 -3 -10 -9l-74 -110c-10 -15 -16 -19 -27 -19h-58c-11 0 -17 4 -27 19l-74 110c-4 6 -6 9 -10 9c-6 0 -6 -1 -6 -9v-313c0 -11 -6 -20 -14 -20h-197c-7 0 -16 0 -16 11v697
c0 19 16 35 35 35h131c30 0 45 -11 58 -33l137 -221c4 -7 8 -11 12 -11s8 4 12 11l137 221c13 22 28 33 58 33h131c19 0 35 -16 35 -35v-697z" />
    <glyph glyph-name="N" unicode="N" horiz-adv-x="763" 
d="M703 35c0 -19 -16 -35 -35 -35h-171c-15 0 -25 10 -32 22l-165 275c-3 5 -5 8 -10 8c-3 0 -5 -2 -5 -9v-276c0 -11 -10 -20 -21 -20h-183c-11 0 -21 9 -21 20v688c0 19 16 35 35 35h164c18 0 30 -14 38 -28l168 -276c5 -9 8 -9 10 -9c3 0 5 0 5 9v284c0 11 9 20 20 20
h183c11 0 20 -9 20 -20v-688z" />
    <glyph glyph-name="O" unicode="O" horiz-adv-x="716" 
d="M676 328c0 -255 -152 -338 -318 -338s-318 83 -318 338v87c0 255 152 338 318 338s318 -83 318 -338v-87zM437 328v87c0 95 -23 130 -79 130s-79 -35 -79 -130v-87c0 -95 23 -130 79 -130s79 35 79 130z" />
    <glyph glyph-name="P" unicode="P" horiz-adv-x="698" 
d="M668 485c0 -208 -179 -261 -319 -261c-20 0 -33 1 -61 2v-206c0 -11 -9 -20 -20 -20h-192c-11 0 -21 5 -21 16v640c0 62 16 76 70 85c50 8 150 12 219 12c146 0 324 -51 324 -261v-7zM434 485v7c0 45 -34 64 -85 64h-61v-135h61c51 0 85 21 85 64z" />
    <glyph glyph-name="Q" unicode="Q" horiz-adv-x="716" 
d="M676 328c0 -196 -89 -290 -206 -323v-19c0 -12 2 -12 12 -12h76c14 0 25 -6 25 -16v-123c0 -10 -10 -20 -25 -24c-43 -12 -81 -17 -136 -17c-85 0 -173 38 -173 192v18c-118 33 -209 127 -209 324v87c0 255 152 338 318 338s318 -83 318 -338v-87zM437 328v87
c0 95 -23 130 -79 130s-79 -35 -79 -130v-87c0 -95 23 -130 79 -130s79 35 79 130z" />
    <glyph glyph-name="R" unicode="R" horiz-adv-x="731" 
d="M696 18c0 -11 -9 -18 -18 -18h-209c-18 0 -22 10 -27 20l-119 235h-32v-235c0 -11 -9 -20 -20 -20h-195c-11 0 -21 9 -21 20v636c0 62 16 76 70 85c34 5 150 12 219 12c201 0 326 -60 326 -249v-20c0 -107 -61 -170 -115 -194l138 -261c2 -4 3 -8 3 -11zM435 483v20
c0 34 -18 53 -69 53h-75v-126h75c50 0 69 26 69 53z" />
    <glyph glyph-name="S" unicode="S" horiz-adv-x="624" 
d="M589 229c0 -117 -83 -239 -293 -239c-86 0 -159 13 -215 30c-11 3 -21 9 -21 20v149c0 11 5 22 21 20c42 -4 149 -17 215 -17c29 0 37 13 37 31c0 10 -5 18 -28 31l-150 87c-95 55 -120 129 -120 209c0 109 59 203 268 203c86 0 199 -14 243 -28c11 -3 20 -9 20 -20v-149
c0 -12 -3 -22 -20 -20c-53 6 -168 15 -243 15c-17 0 -21 -8 -21 -16c0 -9 4 -15 37 -32l142 -75c90 -48 128 -113 128 -199z" />
    <glyph glyph-name="T" unicode="T" horiz-adv-x="602" 
d="M577 571c0 -11 -10 -20 -21 -20h-136v-531c0 -11 -9 -20 -20 -20h-195c-11 0 -20 9 -20 20v531h-140c-11 0 -20 9 -20 20v152c0 11 9 20 20 20h511c11 0 21 -9 21 -20v-152z" />
    <glyph glyph-name="U" unicode="U" horiz-adv-x="752" 
d="M692 286c0 -257 -161 -296 -316 -296s-316 39 -316 296v437c0 11 10 20 21 20h195c11 0 20 -9 20 -20v-437c0 -79 28 -96 80 -96s80 17 80 96v437c0 11 9 20 20 20h195c11 0 21 -9 21 -20v-437z" />
    <glyph glyph-name="V" unicode="V" horiz-adv-x="726" 
d="M686 743c13 0 17 -9 15 -20l-119 -604c-20 -102 -97 -129 -219 -129s-199 27 -219 129l-119 604c-2 11 2 20 15 20h208c11 0 19 -9 21 -20l85 -529c1 -8 2 -13 9 -13s8 5 9 13l85 529c2 11 10 20 21 20h208z" />
    <glyph glyph-name="W" unicode="W" horiz-adv-x="945" 
d="M904 743c10 0 16 -1 15 -11l-94 -669c-8 -56 -34 -73 -81 -73h-103c-49 0 -67 18 -83 65l-77 228c-2 7 -5 11 -9 11s-7 -4 -9 -11l-77 -228c-16 -47 -34 -65 -83 -65h-103c-47 0 -73 17 -81 73l-94 669c-1 10 8 11 15 11h205c13 0 13 -9 14 -20l41 -353c1 -7 2 -12 7 -12
c4 0 7 5 9 12l45 133c9 28 21 38 56 38h110c35 0 47 -10 56 -38l45 -133c2 -7 4 -12 8 -12c6 0 7 5 8 12l41 353c1 11 3 20 14 20h205z" />
    <glyph glyph-name="X" unicode="X" horiz-adv-x="740" 
d="M711 0h-241c-17 0 -21 5 -30 20l-86 146l-75 -146c-8 -15 -13 -20 -23 -20h-227c-10 0 -13 12 -9 20l200 374l-194 329c-5 8 -1 20 9 20h248c10 0 18 -11 23 -20l81 -137l65 137c5 10 13 20 23 20h228c10 0 14 -12 9 -20l-197 -355l205 -348c5 -8 1 -20 -9 -20z" />
    <glyph glyph-name="Y" unicode="Y" horiz-adv-x="709" 
d="M681 743c11 0 17 -11 13 -20l-147 -344c-22 -52 -46 -80 -75 -92v-267c0 -11 -10 -20 -21 -20h-195c-11 0 -20 9 -20 20v267c-29 12 -53 40 -75 92l-146 344c-4 9 0 20 12 20h213c16 0 20 -10 24 -20l84 -248c1 -4 3 -6 6 -6s5 2 6 6l85 248c4 10 8 20 26 20h210z" />
    <glyph glyph-name="Z" unicode="Z" horiz-adv-x="629" 
d="M579 20c0 -11 -10 -20 -21 -20h-488c-11 0 -20 9 -20 20v130c0 17 5 32 20 55l200 315c3 5 5 10 5 13c0 5 -4 8 -12 8h-190c-11 0 -20 9 -20 20v162c0 11 9 20 20 20h482c11 0 20 -9 20 -20v-140c0 -21 -11 -42 -22 -59l-196 -302c-3 -5 -4 -8 -4 -12c0 -5 4 -8 13 -8
h192c11 0 21 -9 21 -20v-162z" />
    <glyph glyph-name="bracketleft" unicode="[" horiz-adv-x="408" 
d="M378 -178c0 -10 -8 -16 -19 -16h-292c-10 0 -17 9 -17 19v899c0 10 7 19 17 19h292c11 0 19 -7 19 -17v-138c0 -10 -8 -16 -19 -16h-85v-595h85c11 0 19 -7 19 -17v-138z" />
    <glyph glyph-name="backslash" unicode="\" horiz-adv-x="445" 
d="M434 19c0 -10 -12 -19 -23 -19h-180c-12 0 -18 11 -21 22l-200 700c0 1 -1 2 -1 4c0 9 11 17 22 17h180c12 0 20 -10 23 -21l200 -700v-3z" />
    <glyph glyph-name="bracketright" unicode="]" horiz-adv-x="408" 
d="M358 -175c0 -10 -7 -19 -17 -19h-292c-11 0 -19 6 -19 16v138c0 10 8 17 19 17h85v595h-85c-11 0 -19 6 -19 16v138c0 10 8 17 19 17h292c10 0 17 -9 17 -19v-899z" />
    <glyph glyph-name="asciicircum" unicode="^" 
d="M629 576c0 -6 -4 -10 -12 -10h-187c-19 0 -24 4 -33 13l-62 64l-62 -64c-9 -9 -14 -13 -33 -13h-187c-8 0 -12 4 -12 10c0 3 2 8 5 12l108 146c11 15 17 19 38 19h286c21 0 27 -4 38 -19l108 -146c3 -4 5 -9 5 -12z" />
    <glyph glyph-name="underscore" unicode="_" horiz-adv-x="580" 
d="M613 -114c0 -11 -9 -16 -20 -16h-605c-11 0 -20 5 -20 16v68c0 11 9 16 20 16h605c11 0 20 -5 20 -16v-68z" />
    <glyph glyph-name="quoteleft" unicode="&#x2018;" horiz-adv-x="290" 
d="M276 769c0 -3 0 -6 -1 -9l-61 -242c-4 -14 -10 -19 -20 -19h-169c-7 0 -12 4 -12 11c0 2 1 5 2 8l88 242c5 13 9 19 19 19h145c7 0 9 -4 9 -10z" />
    <glyph glyph-name="a" unicode="a" horiz-adv-x="590" 
d="M540 20c0 -11 -9 -20 -20 -20h-165c-11 0 -20 9 -20 20v21c-41 -32 -78 -51 -141 -51c-70 0 -164 45 -164 186v16c0 123 101 158 265 158h24v21c0 41 -28 46 -50 46c-65 0 -148 -3 -175 -6c-17 -2 -20 10 -20 21v114c0 12 9 21 20 25c30 11 124 29 185 29
c147 0 261 -46 261 -229v-351zM326 154v84h-31c-29 0 -56 -11 -56 -46v-11c0 -26 17 -36 38 -36c17 0 36 5 49 9z" />
    <glyph glyph-name="b" unicode="b" horiz-adv-x="636" 
d="M601 256c0 -175 -110 -266 -275 -266c-103 0 -189 15 -236 24c-34 7 -40 18 -40 35v709c0 12 11 21 23 21h179c12 0 20 -9 20 -21v-164c13 3 42 6 54 6c185 0 275 -106 275 -266v-78zM379 256v78c0 47 -12 82 -53 82c-23 0 -38 -2 -54 -3v-236c19 -2 28 -3 54 -3
c41 0 53 34 53 82z" />
    <glyph glyph-name="c" unicode="c" horiz-adv-x="475" 
d="M440 26c0 -12 -8 -16 -20 -19c-39 -9 -83 -17 -141 -17c-164 0 -244 108 -244 272v66c0 164 80 272 244 272c58 0 113 -10 141 -17c11 -3 20 -7 20 -19v-136c0 -11 -2 -22 -22 -21c-32 2 -68 6 -108 6c-41 0 -53 -26 -53 -85v-66c0 -59 12 -85 53 -85c40 0 76 3 108 6
c20 2 22 -10 22 -21v-136z" />
    <glyph glyph-name="d" unicode="d" horiz-adv-x="636" 
d="M586 49c0 -17 -6 -28 -40 -35c-47 -9 -133 -24 -236 -24c-165 0 -275 91 -275 266v78c0 160 90 266 275 266c12 0 41 -3 54 -6v164c0 12 8 21 20 21h179c12 0 23 -9 23 -21v-709zM364 177v236c-16 1 -31 3 -54 3c-41 0 -53 -35 -53 -82v-78c0 -48 12 -82 53 -82
c26 0 35 1 54 3z" />
    <glyph glyph-name="e" unicode="e" horiz-adv-x="614" 
d="M579 258c0 -12 -10 -21 -22 -21h-302c0 -50 18 -64 86 -64c43 0 153 4 188 7c14 1 22 -2 22 -18v-105c0 -17 -4 -23 -19 -29c-63 -26 -148 -38 -229 -38c-148 0 -268 80 -268 268v61c0 192 108 281 278 281c185 0 266 -111 266 -281v-61zM368 349c0 48 -12 83 -57 83
c-41 0 -56 -35 -56 -83h113z" />
    <glyph glyph-name="f" unicode="f" horiz-adv-x="423" 
d="M398 448c0 -12 -9 -22 -21 -22h-63v-404c0 -12 -10 -22 -22 -22h-180c-12 0 -22 10 -22 22v404l-48 9c-12 2 -22 10 -22 22v112c0 12 10 21 22 21h48v14c0 157 79 196 195 196c27 0 63 -5 92 -11c12 -2 21 -9 21 -21v-109c0 -12 -9 -21 -21 -21h-34c-24 0 -29 -6 -29 -34
v-14h63c12 0 21 -9 21 -21v-121z" />
    <glyph glyph-name="g" unicode="g" horiz-adv-x="629" 
d="M619 481c0 -12 -10 -20 -21 -22l-26 -5c8 -15 14 -38 14 -58v-13c0 -141 -102 -197 -268 -197c-33 0 -73 4 -93 10c-7 -5 -11 -10 -11 -18c0 -6 3 -14 18 -17l109 -20c124 -23 257 -47 257 -159v-20c0 -125 -107 -169 -297 -169c-175 0 -266 58 -266 162v22
c0 36 21 73 55 99l-13 7c-12 6 -36 32 -36 79c0 42 27 76 53 93c-32 32 -49 64 -49 128v13c0 121 71 194 249 194h304c12 0 21 -10 21 -22v-87zM372 383v13c0 27 -11 46 -54 46s-54 -19 -54 -46v-13c0 -27 11 -47 54 -47s54 20 54 47zM363 -35v14c0 13 -10 24 -70 35l-44 8
c-6 -8 -11 -12 -11 -29v-22c0 -19 21 -41 63 -41c53 0 62 17 62 35z" />
    <glyph glyph-name="h" unicode="h" horiz-adv-x="652" 
d="M602 22c0 -12 -9 -22 -21 -22h-180c-12 0 -22 10 -22 22v346c0 35 -23 49 -51 49c-18 0 -37 -5 -55 -15v-380c0 -12 -8 -22 -20 -22h-180c-12 0 -23 10 -23 22v737c0 11 9 20 20 20h182c11 0 20 -9 20 -20v-201c46 33 92 42 147 42c147 0 183 -107 183 -232v-346z" />
    <glyph glyph-name="i" unicode="i" horiz-adv-x="329" 
d="M282 656c0 -12 -11 -21 -23 -21h-189c-12 0 -23 9 -23 21v102c0 12 11 21 23 21h189c12 0 23 -9 23 -21v-102zM277 22c0 -12 -10 -22 -22 -22h-179c-12 0 -23 10 -23 22v547c0 12 11 21 23 21h179c12 0 22 -9 22 -21v-547z" />
    <glyph glyph-name="j" unicode="j" horiz-adv-x="329" 
d="M282 656c0 -12 -11 -21 -23 -21h-189c-12 0 -23 9 -23 21v102c0 12 11 21 23 21h189c12 0 23 -9 23 -21v-102zM277 -11c0 -154 -76 -199 -180 -199c-35 0 -67 4 -107 11c-12 2 -21 10 -21 22v108c0 12 9 21 21 21h42c19 0 21 17 21 37v580c0 12 11 21 23 21h179
c12 0 22 -9 22 -21v-580z" />
    <glyph glyph-name="k" unicode="k" horiz-adv-x="669" 
d="M645 14c0 -7 -3 -14 -13 -14h-216c-12 0 -22 2 -32 22l-112 229v-229c0 -12 -8 -22 -20 -22h-179c-12 0 -23 10 -23 22v736c0 12 11 21 23 21h179c12 0 20 -9 20 -21v-418l120 229c10 20 20 21 32 21h199c11 0 16 -6 16 -14c0 -4 -1 -7 -3 -11l-157 -260l164 -281
c2 -3 2 -7 2 -10z" />
    <glyph glyph-name="l" unicode="l" horiz-adv-x="324" 
d="M274 22c0 -12 -9 -22 -21 -22h-180c-12 0 -23 10 -23 22v736c0 12 11 21 23 21h180c12 0 21 -9 21 -21v-736z" />
    <glyph glyph-name="m" unicode="m" horiz-adv-x="929" 
d="M879 22c0 -12 -9 -22 -21 -22h-180c-12 0 -22 10 -22 22v342c0 36 -14 43 -38 43c-13 0 -28 -2 -44 -6c1 -15 2 -20 2 -37v-342c0 -12 -9 -22 -21 -22h-180c-12 0 -22 10 -22 22v342c0 36 -13 43 -37 43c-13 0 -32 -2 -43 -6v-379c0 -12 -8 -22 -20 -22h-180
c-12 0 -23 10 -23 22v548c0 11 9 20 20 20h165c11 0 20 -9 20 -20v-30c53 49 105 60 161 60c49 0 98 -16 124 -60c49 48 84 60 156 60c123 0 183 -77 183 -236v-342z" />
    <glyph glyph-name="n" unicode="n" horiz-adv-x="652" 
d="M602 22c0 -12 -9 -22 -21 -22h-180c-12 0 -22 10 -22 22v346c0 35 -23 49 -51 49c-18 0 -37 -5 -55 -15v-380c0 -12 -8 -22 -20 -22h-180c-12 0 -23 10 -23 22v548c0 11 9 20 20 20h165c11 0 20 -9 20 -20v-28c47 38 79 58 164 58c147 0 183 -107 183 -232v-346z" />
    <glyph glyph-name="o" unicode="o" horiz-adv-x="620" 
d="M585 272c0 -193 -104 -282 -275 -282s-275 89 -275 282v46c0 193 104 282 275 282s275 -89 275 -282v-46zM363 272v46c0 78 -19 98 -53 98s-53 -20 -53 -98v-46c0 -78 19 -98 53 -98s53 20 53 98z" />
    <glyph glyph-name="p" unicode="p" horiz-adv-x="636" 
d="M601 256c0 -160 -90 -266 -275 -266c-12 0 -41 3 -54 6v-164c0 -12 -8 -21 -20 -21h-179c-12 0 -23 9 -23 21v709c0 17 6 28 40 35c47 9 133 24 236 24c165 0 275 -91 275 -266v-78zM379 256v78c0 48 -12 82 -53 82c-26 0 -35 -1 -54 -3v-236c16 -1 31 -3 54 -3
c41 0 53 35 53 82z" />
    <glyph glyph-name="q" unicode="q" horiz-adv-x="636" 
d="M586 -168c0 -12 -11 -21 -23 -21h-179c-12 0 -20 9 -20 21v164c-13 -3 -42 -6 -54 -6c-185 0 -275 106 -275 266v78c0 175 110 266 275 266c103 0 189 -15 236 -24c34 -7 40 -18 40 -35v-709zM364 177v236c-19 2 -28 3 -54 3c-41 0 -53 -34 -53 -82v-78
c0 -47 12 -82 53 -82c23 0 38 2 54 3z" />
    <glyph glyph-name="r" unicode="r" horiz-adv-x="439" 
d="M413 442c0 -11 -2 -23 -20 -23h-8c-39 0 -78 0 -112 -17v-380c0 -12 -8 -22 -20 -22h-180c-12 0 -23 10 -23 22v548c0 11 9 20 20 20h165c11 0 20 -9 20 -20v-29c43 47 101 59 132 59h6c18 0 20 -9 20 -20v-138z" />
    <glyph glyph-name="s" unicode="s" horiz-adv-x="540" 
d="M500 180c0 -107 -74 -190 -251 -190c-86 0 -147 13 -187 26c-11 4 -19 10 -19 22v125c0 17 6 26 26 23c60 -9 139 -19 174 -19c27 0 35 5 35 20c0 7 -3 13 -23 23l-114 58c-70 35 -101 87 -101 167c0 103 75 165 235 165c74 0 147 -15 191 -27c11 -3 21 -9 21 -21v-130
c0 -13 -4 -24 -21 -21c-30 5 -139 18 -178 18c-15 0 -21 -3 -21 -11c0 -6 3 -10 13 -15l110 -54c82 -40 110 -100 110 -159z" />
    <glyph glyph-name="t" unicode="t" horiz-adv-x="429" 
d="M410 448c0 -12 -9 -22 -21 -22h-72v-245c0 -20 2 -29 21 -29h48c12 0 21 -9 21 -21v-109c0 -12 -9 -20 -21 -22c-40 -7 -61 -10 -106 -10c-104 0 -187 38 -187 195v241l-57 10c-12 2 -22 10 -22 22v111c0 12 10 21 22 21h57v82c0 12 10 19 22 21l180 31
c16 3 22 -9 22 -21v-113h72c12 0 21 -9 21 -21v-121z" />
    <glyph glyph-name="u" unicode="u" horiz-adv-x="652" 
d="M602 20c0 -11 -9 -20 -20 -20h-165c-11 0 -20 9 -20 20v28c-42 -35 -79 -58 -164 -58c-147 0 -183 107 -183 232v346c0 12 9 22 21 22h180c12 0 22 -10 22 -22v-346c0 -35 23 -49 51 -49c18 0 37 5 55 15v380c0 12 8 22 20 22h180c12 0 23 -10 23 -22v-548z" />
    <glyph glyph-name="v" unicode="v" horiz-adv-x="651" 
d="M619 590c10 0 22 -4 17 -21l-120 -440c-35 -128 -115 -139 -190 -139s-155 11 -190 139l-120 440c-5 17 7 21 17 21h197c12 0 20 -10 22 -21l65 -337c2 -8 4 -15 9 -15s7 7 9 15l65 337c2 11 10 21 22 21h197z" />
    <glyph glyph-name="w" unicode="w" horiz-adv-x="898" 
d="M648 574l-38 -298c-1 -6 -3 -7 -7 -7c-3 0 -7 1 -9 7l-49 138c-10 28 -19 36 -46 36h-100c-27 0 -36 -8 -46 -36l-49 -138c-2 -6 -6 -7 -9 -7c-4 0 -6 1 -7 7l-38 298c-1 9 -6 16 -14 16h-199c-8 0 -17 -2 -15 -15l93 -502c15 -80 36 -83 90 -83h94c55 0 69 12 92 78
l49 144c2 6 5 9 9 9s7 -3 9 -9l49 -144c23 -66 37 -78 92 -78h94c54 0 75 3 90 83l93 502c3 13 -7 15 -15 15h-199c-8 0 -13 -7 -14 -16z" />
    <glyph glyph-name="x" unicode="x" horiz-adv-x="667" 
d="M408 0c-12 0 -16 12 -22 22l-71 119l-62 -120c-5 -10 -12 -21 -24 -21h-195c-14 0 -16 13 -11 21l168 292l-171 256c-4 8 -1 21 12 21h219c12 0 19 -11 25 -21l65 -108l57 108c5 10 12 21 24 21h197c15 0 16 -12 11 -21l-164 -282l179 -265c6 -8 3 -22 -11 -22h-226z" />
    <glyph glyph-name="y" unicode="y" horiz-adv-x="656" 
d="M612 590h13c12 0 19 -8 15 -21l-171 -600c-30 -105 -81 -175 -249 -175c-44 0 -121 10 -150 21c-11 4 -23 8 -23 20v114c0 11 3 24 23 22c42 -3 107 -7 150 -7c27 0 35 6 40 23l9 34h-6c-59 0 -81 6 -114 115l-133 433c-4 15 4 21 17 21h201c12 0 18 -10 20 -21l68 -312
c2 -8 4 -14 9 -14h7l64 326c2 11 10 21 22 21h188z" />
    <glyph glyph-name="z" unicode="z" horiz-adv-x="567" 
d="M517 20c0 -11 -9 -20 -20 -20h-427c-11 0 -20 9 -20 20v105c0 21 2 31 16 50l166 222c3 4 5 8 5 11c0 4 -4 7 -11 7h-155c-10 0 -16 7 -16 16v139c0 11 9 20 20 20h421c11 0 20 -9 20 -20v-107c0 -22 -2 -28 -24 -58l-156 -211c-3 -4 -5 -8 -5 -11c0 -5 4 -8 11 -8h158
c10 0 17 -7 17 -16v-139z" />
    <glyph glyph-name="braceleft" unicode="{" horiz-adv-x="436" 
d="M406 -185c0 -10 -8 -17 -19 -17h-67c-209 0 -242 52 -242 224v100c0 36 -24 69 -53 86v125c29 17 53 50 53 86v100c0 172 33 224 242 224h67c11 0 19 -7 19 -17v-138c0 -10 -8 -16 -19 -16h-47c-34 0 -38 -17 -38 -53v-100c0 -68 -29 -121 -93 -148
c64 -26 93 -81 93 -149v-100c0 -36 4 -53 38 -53h47c11 0 19 -6 19 -16v-138z" />
    <glyph glyph-name="bar" unicode="|" horiz-adv-x="324" 
d="M274 -172c0 -12 -9 -22 -21 -22h-180c-12 0 -23 10 -23 22v894c0 12 11 21 23 21h180c12 0 21 -9 21 -21v-894z" />
    <glyph glyph-name="braceright" unicode="}" horiz-adv-x="436" 
d="M411 208c-29 -17 -53 -50 -53 -86v-100c0 -172 -33 -224 -242 -224h-67c-11 0 -19 7 -19 17v138c0 10 8 16 19 16h47c34 0 38 17 38 53v100c0 68 29 122 93 149c-64 26 -93 80 -93 148v100c0 36 -4 53 -38 53h-47c-11 0 -19 6 -19 16v138c0 10 8 17 19 17h67
c209 0 242 -52 242 -224v-100c0 -36 24 -69 53 -86v-125z" />
    <glyph glyph-name="asciitilde" unicode="~" 
d="M622 490c0 -131 -70 -174 -186 -174c-22 0 -70 11 -98 26l-50 26c-23 12 -36 17 -47 17c-14 0 -20 -5 -20 -19v-21c0 -14 -9 -22 -23 -22h-126c-14 0 -24 8 -24 22v21c0 129 73 174 189 174c22 0 57 -4 95 -24l50 -26c23 -12 40 -19 51 -19c13 0 16 7 16 20v21
c0 14 9 22 23 22h126c14 0 24 -8 24 -22v-22z" />
    <glyph glyph-name="exclamdown" unicode="&#xa1;" horiz-adv-x="309" 
d="M262 418c0 -11 -9 -20 -20 -20h-175c-11 0 -20 9 -20 20v152c0 11 9 20 20 20h175c11 0 20 -9 20 -20v-152zM269 -169c0 -11 -11 -20 -22 -20h-187c-11 0 -20 9 -20 20v1l30 482c1 12 8 22 20 22h127c12 0 21 -10 22 -22l30 -482v-1z" />
    <glyph glyph-name="cent" unicode="&#xa2;" 
d="M538 26c0 -12 -8 -16 -20 -19c-21 -5 -43 -10 -68 -13v-61c0 -11 -9 -20 -20 -20h-141c-11 0 -20 9 -20 20v77c-91 38 -136 129 -136 252v66c0 123 45 214 136 252v74c0 11 9 20 20 20h141c11 0 20 -9 20 -20v-59c28 -4 52 -8 68 -12c11 -3 20 -7 20 -19v-136
c0 -11 -10 -21 -21 -21h-1c-32 2 -68 6 -108 6c-41 0 -53 -26 -53 -85v-66c0 -59 12 -85 53 -85c40 0 76 4 108 6h1c11 0 21 -10 21 -21v-136z" />
    <glyph glyph-name="sterling" unicode="&#xa3;" 
d="M606 20c0 -11 -9 -20 -20 -20h-473c-11 0 -20 9 -20 20v110c0 15 5 20 10 26c11 12 30 49 30 75v49h-48c-11 0 -20 9 -20 20v141c0 11 9 20 20 20h48v23c0 205 96 269 283 269c68 0 140 -11 169 -17c18 -4 21 -9 21 -22v-158c0 -13 -7 -18 -17 -18h-3
c-40 3 -108 11 -170 11c-47 0 -57 -8 -57 -61v-27h136c11 0 20 -9 20 -20v-141c0 -11 -9 -20 -20 -20h-136v-49c0 -17 -6 -39 -12 -50h239c11 0 20 -9 20 -20v-141z" />
    <glyph glyph-name="fraction" unicode="&#x2044;" horiz-adv-x="262" 
d="M430 732c0 -3 -1 -7 -3 -10l-418 -707c-8 -13 -11 -15 -21 -15h-142c-8 0 -13 6 -13 13c0 3 0 6 2 9l418 706c7 12 11 15 23 15h142c8 0 12 -5 12 -11z" />
    <glyph glyph-name="yen" unicode="&#xa5;" 
d="M667 730c0 -3 -1 -5 -2 -7l-103 -218h73c11 0 20 -9 20 -20v-97c0 -11 -9 -20 -20 -20h-139l-42 -87h181c11 0 20 -9 20 -20v-97c0 -11 -9 -20 -20 -20h-182v-124c0 -11 -10 -20 -21 -20h-195c-11 0 -20 9 -20 20v124h-181c-11 0 -20 9 -20 20v97c0 11 9 20 20 20h181
l-40 87h-141c-11 0 -20 9 -20 20v97c0 11 9 20 20 20h75l-105 218c-1 2 -2 5 -2 7c0 7 6 13 14 13h216c11 0 17 -10 21 -20l80 -219l81 219c4 10 10 20 21 20h215c9 0 15 -6 15 -13z" />
    <glyph glyph-name="florin" unicode="&#x192;" 
d="M659 773v-5l-15 -109c-2 -12 -12 -21 -24 -21h-72c-50 0 -55 -7 -59 -34l-18 -129h126c11 0 18 -8 18 -18v-3l-17 -121c-2 -12 -12 -22 -24 -22h-126l-43 -301c-22 -157 -133 -196 -253 -196c-45 0 -101 6 -123 11c-14 3 -18 8 -18 16v5l15 109c2 12 12 21 24 21h72
c50 0 55 7 59 34l43 301h-125c-11 0 -18 9 -18 19v3l17 121c2 12 12 21 24 21h125l18 129c22 157 132 196 252 196c45 0 102 -6 124 -11c14 -3 18 -8 18 -16z" />
    <glyph glyph-name="section" unicode="&#xa7;" horiz-adv-x="624" 
d="M592 235c0 -36 -11 -76 -30 -113c16 -31 27 -62 27 -100c0 -117 -83 -239 -293 -239c-86 0 -159 13 -215 30c-11 3 -21 9 -21 20v149c0 10 9 20 19 20h1h1c42 -5 149 -17 215 -17c29 0 37 13 37 31c0 10 -5 19 -28 31l-150 80c-81 43 -122 118 -122 199
c0 42 12 87 33 126c-18 23 -31 60 -31 98c0 109 59 203 268 203c86 0 199 -14 243 -28c11 -3 20 -9 20 -20v-149c0 -11 -8 -20 -18 -20h-1h-1c-53 5 -168 15 -243 15c-17 0 -21 -8 -21 -16c0 -9 4 -15 37 -32l142 -75c84 -44 131 -113 131 -193zM397 231c0 37 -12 56 -75 89
l-59 31c-16 8 -28 17 -38 28c-10 -10 -14 -25 -14 -43c0 -32 13 -53 68 -82l57 -30c24 -12 40 -25 52 -36c6 12 9 26 9 43z" />
    <glyph glyph-name="currency" unicode="&#xa4;" 
d="M605 547c0 -5 -3 -11 -7 -15l-87 -87c10 -24 16 -50 16 -75c0 -27 -6 -55 -18 -80l85 -85c4 -4 7 -10 7 -15c0 -4 -2 -8 -5 -11l-75 -75c-3 -3 -7 -5 -11 -5c-5 0 -11 3 -15 7l-88 88c-22 -9 -46 -13 -69 -13c-26 0 -51 6 -75 16l-87 -87c-4 -4 -10 -8 -16 -8
c-3 0 -7 2 -10 5l-75 75c-3 3 -5 8 -5 12c0 5 3 11 7 15l87 86c-10 24 -16 49 -16 75c0 24 4 48 13 70l-88 88c-4 4 -7 10 -7 15c0 4 2 8 5 11l75 75c3 3 7 5 11 5c5 0 11 -3 15 -7l85 -85c25 12 53 17 81 17c25 0 51 -5 75 -15l86 87c4 4 9 7 15 7c4 0 8 -2 11 -5l75 -75
c3 -3 5 -7 5 -11zM407 372c0 37 -30 67 -67 67s-68 -30 -68 -67s31 -68 68 -68s67 31 67 68z" />
    <glyph glyph-name="quotesingle" unicode="'" horiz-adv-x="240" 
d="M267 768c0 -2 -1 -5 -2 -8l-88 -242c-5 -13 -9 -19 -19 -19h-145c-7 0 -9 4 -9 10c0 3 0 6 1 9l61 242c4 14 10 19 20 19h169c7 0 12 -4 12 -11z" />
    <glyph glyph-name="quotedblleft" unicode="&#x201c;" horiz-adv-x="547" 
d="M533 769c0 -3 0 -6 -1 -9l-61 -242c-4 -14 -10 -19 -20 -19h-169c-7 0 -12 4 -12 11c0 2 1 5 2 8l88 242c5 13 9 19 19 19h145c7 0 9 -4 9 -10zM276 769c0 -3 0 -6 -1 -9l-61 -242c-4 -14 -10 -19 -20 -19h-169c-7 0 -12 4 -12 11c0 2 1 5 2 8l88 242c5 13 9 19 19 19
h145c7 0 9 -4 9 -10z" />
    <glyph glyph-name="guillemotleft" unicode="&#xab;" horiz-adv-x="776" 
d="M751 67c0 -6 -5 -10 -12 -10h-175c-11 0 -21 1 -28 10l-156 198c-8 10 -15 19 -15 29s7 19 15 29l156 198c7 9 17 10 28 10h175c7 0 12 -4 12 -10c0 -3 -2 -8 -6 -13l-166 -214l166 -214c4 -5 6 -10 6 -13zM411 67c0 -6 -5 -10 -12 -10h-175c-11 0 -21 1 -28 10l-156 198
c-8 10 -15 19 -15 29s7 19 15 29l156 198c7 9 17 10 28 10h175c7 0 12 -4 12 -10c0 -3 -2 -8 -6 -13l-166 -214l166 -214c4 -5 6 -10 6 -13z" />
    <glyph glyph-name="guilsinglleft" unicode="&#x2039;" horiz-adv-x="436" 
d="M411 67c0 -6 -5 -10 -12 -10h-175c-11 0 -21 1 -28 10l-156 198c-8 10 -15 19 -15 29s7 19 15 29l156 198c7 9 17 10 28 10h175c7 0 12 -4 12 -10c0 -3 -2 -8 -6 -13l-166 -214l166 -214c4 -5 6 -10 6 -13z" />
    <glyph glyph-name="guilsinglright" unicode="&#x203a;" horiz-adv-x="436" 
d="M411 294c0 -10 -7 -19 -15 -29l-156 -198c-7 -9 -17 -10 -28 -10h-175c-7 0 -12 4 -12 10c0 3 2 8 6 13l166 214l-166 214c-4 5 -6 10 -6 13c0 6 5 10 12 10h175c11 0 21 -1 28 -10l156 -198c8 -10 15 -19 15 -29z" />
    <glyph glyph-name="endash" unicode="&#x2013;" horiz-adv-x="339" 
d="M354 244c0 -11 -9 -20 -20 -20h-329c-11 0 -20 9 -20 20v106c0 11 9 20 20 20h329c11 0 20 -9 20 -20v-106z" />
    <glyph glyph-name="dagger" unicode="&#x2020;" horiz-adv-x="470" 
d="M445 442c0 -10 -8 -16 -19 -16h-79v-412c0 -11 -5 -20 -16 -20h-192c-11 0 -16 9 -16 20v412h-79c-11 0 -19 6 -19 16v150c0 10 8 15 19 15h79v153c0 10 6 19 17 19h191c10 0 16 -9 16 -19v-153h79c11 0 19 -5 19 -15v-150z" />
    <glyph glyph-name="daggerdbl" unicode="&#x2021;" horiz-adv-x="470" 
d="M445 193c0 -10 -8 -16 -19 -16h-79v-163c0 -11 -5 -20 -16 -20h-192c-11 0 -16 9 -16 20v163h-79c-11 0 -19 6 -19 16v150c0 10 8 15 19 15h79v68h-79c-11 0 -19 6 -19 16v150c0 10 8 15 19 15h79v153c0 10 6 19 17 19h191c10 0 16 -9 16 -19v-153h79c11 0 19 -5 19 -15
v-150c0 -10 -8 -16 -19 -16h-79v-68h79c11 0 19 -5 19 -15v-150z" />
    <glyph glyph-name="periodcentered" unicode="&#xb7;" horiz-adv-x="296" 
d="M256 297c0 -11 -10 -20 -21 -20h-174c-11 0 -21 9 -21 20v152c0 11 10 20 21 20h174c11 0 21 -9 21 -20v-152z" />
    <glyph glyph-name="paragraph" unicode="&#xb6;" horiz-adv-x="689" 
d="M639 -176c0 -10 -7 -19 -17 -19h-60c-10 0 -17 9 -17 19v825h-66v-825c0 -10 -7 -19 -17 -19h-60c-10 0 -17 9 -17 19v401h-89c-138 0 -251 79 -251 223v72c0 144 113 223 251 223h327c12 0 16 -7 16 -19v-900z" />
    <glyph glyph-name="bullet" unicode="&#x2022;" horiz-adv-x="418" 
d="M383 367c0 -96 -78 -174 -174 -174s-174 78 -174 174s78 174 174 174s174 -78 174 -174z" />
    <glyph glyph-name="quotesinglbase" unicode="&#x201a;" horiz-adv-x="290" 
d="M285 178c0 -2 0 -4 -1 -6l-112 -252c-4 -10 -9 -20 -20 -20h-127c-10 0 -20 7 -20 17v3l70 252c3 11 10 20 21 20h173c9 0 16 -7 16 -14z" />
    <glyph glyph-name="quotedblbase" unicode="&#x201e;" horiz-adv-x="547" 
d="M554 178c0 -2 0 -4 -1 -6l-112 -252c-4 -10 -9 -20 -20 -20h-127c-10 0 -20 7 -20 17v3l70 252c3 11 10 20 21 20h173c9 0 16 -7 16 -14zM274 178c0 -2 0 -4 -1 -6l-112 -252c-4 -10 -9 -20 -20 -20h-127c-10 0 -20 7 -20 17v3l70 252c3 11 10 20 21 20h173
c9 0 16 -7 16 -14z" />
    <glyph glyph-name="quotedblright" unicode="&#x201d;" horiz-adv-x="547" 
d="M534 768c0 -2 -1 -5 -2 -8l-88 -242c-5 -13 -9 -19 -19 -19h-145c-7 0 -9 4 -9 10c0 3 0 6 1 9l61 242c4 14 10 19 20 19h169c7 0 12 -4 12 -11zM277 768c0 -2 -1 -5 -2 -8l-88 -242c-5 -13 -9 -19 -19 -19h-145c-7 0 -9 4 -9 10c0 3 0 6 1 9l61 242c4 14 10 19 20 19
h169c7 0 12 -4 12 -11z" />
    <glyph glyph-name="guillemotright" unicode="&#xbb;" horiz-adv-x="776" 
d="M751 294c0 -10 -7 -19 -15 -29l-156 -198c-7 -9 -17 -10 -28 -10h-175c-7 0 -12 4 -12 10c0 3 2 8 6 13l166 214l-166 214c-4 5 -6 10 -6 13c0 6 5 10 12 10h175c11 0 21 -1 28 -10l156 -198c8 -10 15 -19 15 -29zM411 294c0 -10 -7 -19 -15 -29l-156 -198
c-7 -9 -17 -10 -28 -10h-175c-7 0 -12 4 -12 10c0 3 2 8 6 13l166 214l-166 214c-4 5 -6 10 -6 13c0 6 5 10 12 10h175c11 0 21 -1 28 -10l156 -198c8 -10 15 -19 15 -29z" />
    <glyph glyph-name="ellipsis" unicode="&#x2026;" horiz-adv-x="888" 
d="M848 20c0 -11 -10 -20 -21 -20h-174c-11 0 -21 9 -21 20v152c0 11 10 20 21 20h174c11 0 21 -9 21 -20v-152zM552 20c0 -11 -10 -20 -21 -20h-174c-11 0 -21 9 -21 20v152c0 11 10 20 21 20h174c11 0 21 -9 21 -20v-152zM256 20c0 -11 -10 -20 -21 -20h-174
c-11 0 -21 9 -21 20v152c0 11 10 20 21 20h174c11 0 21 -9 21 -20v-152z" />
    <glyph glyph-name="perthousand" unicode="&#x2030;" horiz-adv-x="1256" 
d="M1221 174c0 -122 -56 -180 -158 -180s-158 58 -158 180v60c0 122 56 180 158 180s158 -58 158 -180v-60zM861 174c0 -122 -56 -180 -158 -180s-158 58 -158 180v60c0 122 56 180 158 180s158 -58 158 -180v-60zM747 732c0 -3 -1 -7 -3 -10l-414 -700
c-9 -15 -13 -22 -25 -22h-142c-8 0 -13 6 -13 13c0 3 0 6 2 9l414 700c9 15 15 21 27 21h142c8 0 12 -5 12 -11zM351 508c0 -122 -56 -180 -158 -180s-158 58 -158 180v60c0 122 56 180 158 180s158 -58 158 -180v-60zM1090 174v60c0 61 -10 69 -27 69s-28 -8 -28 -69v-60
c0 -61 11 -70 28 -70s27 9 27 70zM730 174v60c0 61 -10 69 -27 69s-28 -8 -28 -69v-60c0 -61 11 -70 28 -70s27 9 27 70zM220 508v60c0 61 -10 69 -27 69s-28 -8 -28 -69v-60c0 -61 11 -70 28 -70s27 9 27 70z" />
    <glyph glyph-name="questiondown" unicode="&#xbf;" horiz-adv-x="500" 
d="M406 418c0 -11 -10 -20 -21 -20h-174c-11 0 -21 9 -21 20v152c0 11 10 20 21 20h174c11 0 21 -9 21 -20v-152zM470 -149c0 -11 -10 -16 -20 -20c-44 -17 -107 -29 -172 -29c-165 0 -248 46 -248 184c0 62 21 96 47 134l132 197c10 15 20 20 32 20h134c11 0 20 -9 20 -20
v-41c0 -67 -8 -84 -42 -142l-48 -82c-9 -16 -13 -25 -13 -35c0 -7 6 -13 23 -13h8l127 11h1c11 0 19 -9 19 -20v-144z" />
    <glyph glyph-name="grave" unicode="`" horiz-adv-x="500" 
d="M334 642c0 -4 -3 -7 -9 -7h-150c-15 0 -18 3 -25 10l-130 119c-3 3 -5 6 -5 8c0 4 5 7 12 7h185c16 0 20 -4 29 -15l89 -112c3 -3 4 -7 4 -10z" />
    <glyph glyph-name="acute" unicode="&#xb4;" horiz-adv-x="500" 
d="M485 772c0 -2 -2 -5 -5 -8l-130 -119c-7 -7 -10 -10 -25 -10h-150c-6 0 -9 3 -9 7c0 3 1 7 4 10l89 112c9 11 13 15 29 15h185c7 0 12 -3 12 -7z" />
    <glyph glyph-name="circumflex" unicode="&#x2c6;" horiz-adv-x="500" 
d="M476 642c0 -4 -3 -7 -9 -7h-144c-15 0 -18 3 -25 10l-48 49l-48 -49c-7 -7 -10 -10 -25 -10h-144c-6 0 -9 3 -9 7c0 3 1 6 4 10l83 112c9 12 13 15 29 15h220c16 0 20 -3 29 -15l83 -112c3 -4 4 -7 4 -10z" />
    <glyph glyph-name="tilde" unicode="&#x2dc;" horiz-adv-x="500" 
d="M467 759c0 -101 -55 -134 -144 -134c-17 0 -52 9 -74 20l-39 20c-18 9 -29 12 -37 12c-7 0 -14 -2 -14 -13v-16c0 -11 -7 -17 -18 -17h-97c-11 0 -18 6 -18 17v16c0 99 56 134 145 134c17 0 51 -8 73 -19l39 -20c18 -9 30 -13 38 -13c10 0 13 4 13 14v16c0 11 7 17 18 17
h97c11 0 18 -6 18 -17v-17z" />
    <glyph glyph-name="macron" unicode="&#xaf;" horiz-adv-x="500" 
d="M447 655c0 -11 -9 -20 -20 -20h-354c-11 0 -20 9 -20 20v104c0 11 9 20 20 20h354c11 0 20 -9 20 -20v-104z" />
    <glyph glyph-name="breve" unicode="&#x2d8;" horiz-adv-x="500" 
d="M246 631c99 0 167 37 217 124c3 5 9 16 9 24c0 6 -3 10 -12 10h-124c-12 0 -16 -3 -22 -13c-11 -16 -24 -33 -68 -33s-57 17 -68 33c-6 10 -10 13 -22 13h-124c-9 0 -12 -4 -12 -10c0 -8 6 -19 9 -24c50 -87 118 -124 217 -124z" />
    <glyph glyph-name="dotaccent" unicode="&#x2d9;" horiz-adv-x="500" 
d="M358 655c0 -11 -10 -20 -21 -20h-174c-11 0 -21 9 -21 20v116c0 11 10 20 21 20h174c11 0 21 -9 21 -20v-116z" />
    <glyph glyph-name="dieresis" unicode="&#xa8;" horiz-adv-x="500" 
d="M458 656c0 -12 -11 -21 -23 -21h-139c-12 0 -23 9 -23 21v102c0 12 11 21 23 21h139c12 0 23 -9 23 -21v-102zM228 656c0 -12 -11 -21 -23 -21h-139c-12 0 -23 9 -23 21v102c0 12 11 21 23 21h139c12 0 23 -9 23 -21v-102z" />
    <glyph glyph-name="ring" unicode="&#x2da;" horiz-adv-x="500" 
d="M378 718c0 -71 -57 -128 -128 -128s-128 57 -128 128s57 128 128 128s128 -57 128 -128zM288 719c0 20 -17 37 -37 37c-19 0 -36 -16 -36 -37s17 -37 36 -37c20 0 37 17 37 37z" />
    <glyph glyph-name="cedilla" unicode="&#xb8;" horiz-adv-x="500" 
d="M381 -44c0 -2 -2 -5 -5 -8l-130 -119c-7 -7 -10 -10 -25 -10h-150c-6 0 -9 3 -9 7c0 3 1 7 4 10l89 112c9 11 13 15 29 15h185c7 0 12 -3 12 -7z" />
    <glyph glyph-name="hungarumlaut" unicode="&#x2dd;" horiz-adv-x="500" 
d="M548 772c0 -2 -2 -5 -5 -8l-130 -119c-7 -7 -10 -10 -25 -10h-150c-6 0 -9 3 -9 7c0 3 1 7 4 10l89 112c9 11 13 15 29 15h185c7 0 12 -3 12 -7zM268 772c0 -2 -2 -5 -5 -8l-130 -119c-7 -7 -10 -10 -25 -10h-150c-6 0 -9 3 -9 7c0 3 1 7 4 10l89 112c9 11 13 15 29 15
h185c7 0 12 -3 12 -7z" />
    <glyph glyph-name="ogonek" unicode="&#x2db;" horiz-adv-x="500" 
d="M362 -165v-1c0 -7 -1 -10 -11 -15c-14 -6 -70 -20 -133 -20c-97 0 -151 39 -151 95c0 55 25 81 72 108l48 28c6 4 15 7 29 7h128c6 0 9 -3 9 -7c0 -3 -2 -6 -5 -8l-66 -43c-30 -20 -38 -33 -38 -46c0 -18 13 -20 36 -20c29 0 61 7 72 7c9 0 10 -2 10 -12v-73z" />
    <glyph glyph-name="caron" unicode="&#x2c7;" horiz-adv-x="500" 
d="M482 772c0 -3 -1 -7 -4 -10l-89 -112c-9 -11 -13 -15 -29 -15h-220c-16 0 -20 4 -29 15l-89 112c-3 3 -4 7 -4 10c0 4 3 7 9 7h150c15 0 18 -3 25 -10l48 -45l48 45c7 7 10 10 25 10h150c6 0 9 -3 9 -7z" />
    <glyph glyph-name="emdash" unicode="&#x2014;" horiz-adv-x="662" 
d="M677 244c0 -11 -9 -20 -20 -20h-652c-11 0 -20 9 -20 20v106c0 11 9 20 20 20h652c11 0 20 -9 20 -20v-106z" />
    <glyph glyph-name="AE" unicode="&#xc6;" horiz-adv-x="968" 
d="M913 21c0 -11 -9 -19 -20 -20c-41 -5 -94 -11 -181 -11c-104 0 -220 20 -257 142h-172l-19 -112c-2 -11 -10 -20 -21 -20h-208c-10 0 -16 6 -16 15c0 2 1 3 1 5l119 594c20 102 97 129 219 129h535c11 0 20 -9 20 -20v-162c0 -11 -9 -20 -20 -20h-214v-76h214
c11 0 20 -9 20 -20v-141c0 -11 -9 -20 -20 -20h-214v-60c0 -25 8 -32 33 -32h181c11 0 20 -9 20 -20v-151zM443 316v225h-78c-10 0 -15 -6 -17 -21l-34 -204h129z" />
    <glyph glyph-name="ordfeminine" unicode="&#xaa;" horiz-adv-x="401" 
d="M366 392c0 -8 -1 -13 -7 -15c-49 -12 -101 -20 -152 -20c-114 0 -172 40 -172 123v7c0 80 74 104 172 104h16v13c0 27 -19 30 -33 30c-42 0 -95 -2 -113 -4h-1c-7 0 -12 7 -12 14v74c0 8 6 13 13 16c19 7 73 19 113 19c95 0 176 -26 176 -149v-212zM227 457v61h-20
c-19 0 -36 -8 -36 -31v-7c0 -22 18 -25 36 -25c7 0 14 1 20 2z" />
    <glyph glyph-name="Lslash" unicode="&#x141;" horiz-adv-x="520" 
d="M495 21c0 -11 -9 -18 -20 -20c-40 -7 -99 -11 -151 -11c-117 0 -249 25 -267 194l-31 -26c-4 -3 -7 -5 -10 -5c-4 0 -6 3 -6 8v194c0 4 0 11 6 16l39 33v319c0 11 10 20 21 20h195c11 0 20 -9 20 -20v-118l50 43c5 4 8 6 11 6s4 -3 4 -9v-194c0 -8 -1 -13 -7 -18l-58 -49
v-160c0 -25 8 -32 33 -32h151c11 0 20 -9 20 -20v-151z" />
    <glyph glyph-name="Oslash" unicode="&#xd8;" horiz-adv-x="716" 
d="M709 742c0 -3 -1 -5 -3 -8l-81 -112c31 -51 49 -119 49 -207v-87c0 -255 -152 -338 -318 -338c-57 0 -113 10 -161 33l-11 -14c-6 -8 -16 -19 -26 -19h-140c-7 0 -11 5 -11 11c0 3 1 5 3 8l79 109c-32 51 -51 120 -51 210v87c0 255 152 338 318 338c58 0 115 -11 164 -35
l12 16c6 8 16 19 26 19h140c7 0 11 -5 11 -11zM391 539c-10 4 -21 6 -35 6c-56 0 -79 -35 -79 -130v-35zM435 328v29l-111 -154c9 -3 20 -5 32 -5c56 0 79 35 79 130z" />
    <glyph glyph-name="OE" unicode="&#x152;" horiz-adv-x="980" 
d="M930 21c0 -11 -9 -19 -20 -20c-41 -5 -114 -11 -201 -11c-62 0 -128 7 -179 39c-51 -27 -111 -39 -172 -39c-166 0 -318 83 -318 338v87c0 255 152 338 318 338c61 0 121 -12 172 -39c51 32 117 39 179 39c87 0 160 -6 201 -11c11 -1 20 -9 20 -20v-151
c0 -11 -9 -20 -20 -20h-201c-25 0 -33 -7 -33 -32v-54h234c11 0 20 -9 20 -20v-141c0 -11 -9 -20 -20 -20h-234v-60c0 -25 8 -32 33 -32h201c11 0 20 -9 20 -20v-151zM437 328v87c0 95 -23 130 -79 130s-79 -35 -79 -130v-87c0 -95 23 -130 79 -130s79 35 79 130z" />
    <glyph glyph-name="ordmasculine" unicode="&#xba;" horiz-adv-x="417" 
d="M387 540c0 -125 -67 -183 -178 -183s-179 58 -179 183v30c0 125 68 183 179 183s178 -58 178 -183v-30zM243 540v30c0 51 -12 63 -34 63s-35 -12 -35 -63v-30c0 -51 13 -64 35 -64s34 13 34 64z" />
    <glyph glyph-name="ae" unicode="&#xe6;" horiz-adv-x="903" 
d="M868 258c0 -12 -10 -21 -22 -21h-302c0 -50 18 -64 86 -64c43 0 153 4 188 7h4c11 0 18 -5 18 -18v-105c0 -17 -4 -23 -19 -29c-63 -26 -148 -38 -229 -38c-41 0 -104 8 -150 31c-52 -18 -116 -32 -178 -32c-118 0 -229 46 -229 191v10c0 123 114 160 265 160h24v21
c0 41 -28 46 -50 46c-65 0 -148 -3 -175 -6c-17 -1 -20 9 -20 21v114c0 12 9 21 20 25c30 11 114 29 175 29c67 0 128 -13 175 -45c45 31 92 45 153 45c185 0 266 -111 266 -281v-61zM657 349c0 48 -12 83 -57 83c-41 0 -56 -35 -56 -83h113zM331 144v94h-31
c-29 0 -56 -13 -56 -48v-10c0 -34 30 -38 59 -38c10 0 20 1 28 2z" />
    <glyph glyph-name="dotlessi" unicode="&#x131;" horiz-adv-x="329" 
d="M277 22c0 -12 -10 -22 -22 -22h-179c-12 0 -23 10 -23 22v547c0 12 11 21 23 21h179c12 0 22 -9 22 -21v-547z" />
    <glyph glyph-name="lslash" unicode="&#x142;" horiz-adv-x="324" 
d="M336 451c0 -8 -1 -13 -7 -18l-54 -46v-365c0 -12 -9 -22 -21 -22h-180c-12 0 -23 10 -23 22v174l-45 -38c-4 -3 -7 -5 -10 -5c-4 0 -6 3 -6 8v194c0 4 0 11 6 16l55 47v340c0 12 11 21 23 21h180c12 0 21 -9 21 -21v-149l46 39c5 4 8 6 11 6s4 -3 4 -9v-194z" />
    <glyph glyph-name="oslash" unicode="&#xf8;" horiz-adv-x="620" 
d="M590 617c0 -3 -1 -8 -4 -11l-64 -86c41 -46 63 -113 63 -202v-46c0 -193 -103 -282 -275 -282c-60 0 -112 11 -154 34l-36 -49c-7 -9 -10 -10 -16 -10h-65c-6 0 -8 3 -8 8c0 3 1 7 4 11l63 86c-41 46 -63 113 -63 202v46c0 193 103 282 275 282c60 0 112 -11 154 -34
l37 49c7 9 10 10 16 10h65c6 0 8 -3 8 -8zM344 403c-9 9 -20 13 -34 13c-34 0 -53 -20 -53 -98v-33zM363 272v33l-87 -118c9 -9 20 -13 34 -13c34 0 53 20 53 98z" />
    <glyph glyph-name="oe" unicode="&#x153;" horiz-adv-x="944" 
d="M909 258c0 -12 -10 -21 -22 -21h-302c0 -50 18 -64 86 -64c43 0 153 4 188 7h4c12 0 18 -5 18 -18v-105c0 -17 -4 -23 -19 -29c-63 -26 -148 -38 -229 -38c-59 0 -115 18 -158 50c-45 -32 -99 -50 -165 -50c-171 0 -275 89 -275 282v46c0 193 104 282 275 282
c66 0 120 -18 167 -51c45 33 100 51 166 51c185 0 266 -111 266 -281v-61zM698 349c0 48 -12 83 -57 83c-41 0 -56 -35 -56 -83h113zM363 272v46c0 78 -19 98 -53 98s-53 -20 -53 -98v-46c0 -78 19 -98 53 -98s53 20 53 98z" />
    <glyph glyph-name="germandbls" unicode="&#xdf;" horiz-adv-x="696" 
d="M656 232c0 -160 -118 -242 -248 -242c-19 0 -51 2 -72 7c-11 3 -20 9 -20 20v143c0 11 9 20 20 20h46c36 0 50 18 50 52v30c0 33 -14 54 -70 54h-23c-11 0 -20 9 -20 20v114c0 11 9 20 20 20h23c52 0 66 21 66 48v31c0 24 -16 48 -68 48c-55 0 -86 -16 -86 -81v-496
c0 -11 -9 -20 -20 -20h-184c-11 0 -20 9 -20 20v496c0 186 102 271 310 271c218 0 291 -109 291 -223v-31c0 -62 -34 -108 -71 -133c48 -32 76 -80 76 -138v-30z" />
    <glyph glyph-name="logicalnot" unicode="&#xac;" 
d="M578 188c0 -11 -5 -20 -16 -20h-130c-11 0 -16 9 -16 20v264h-303c-11 0 -20 5 -20 16v130c0 11 9 16 20 16h445c11 0 20 -5 20 -16v-410z" />
    <glyph glyph-name="mu" unicode="&#xb5;" horiz-adv-x="652" 
d="M602 46c0 -17 -6 -27 -40 -35c-50 -11 -121 -21 -235 -21c-18 0 -36 1 -53 3v-162c0 -11 -9 -20 -20 -20h-184c-11 0 -20 9 -20 20v737c0 12 9 22 21 22h179c12 0 22 -10 22 -22v-359c0 -25 19 -40 54 -40c22 0 39 1 53 3v396c0 12 8 22 20 22h180c12 0 23 -10 23 -22
v-522z" />
    <glyph glyph-name="trademark" unicode="&#x2122;" horiz-adv-x="863" 
d="M823 352c0 -6 -5 -10 -11 -10h-109c-6 0 -11 4 -11 10v234v3c0 38 0 43 -39 43v-280c0 -6 -5 -10 -11 -10h-109c-6 0 -11 4 -11 10v280c-14 0 -25 -1 -40 -2v-278c0 -6 -5 -10 -11 -10h-108c-6 0 -12 4 -12 10v342c0 34 9 44 38 46c61 5 146 8 198 8
c164 0 236 -18 236 -162v-234zM323 648c0 -6 -5 -11 -11 -11h-70v-285c0 -6 -4 -10 -10 -10h-114c-6 0 -11 4 -11 10v285h-71c-6 0 -11 5 -11 11v84c0 6 5 11 11 11h276c6 0 11 -5 11 -11v-84z" />
    <glyph glyph-name="Eth" unicode="&#xd0;" horiz-adv-x="706" 
d="M666 326c0 -238 -133 -336 -331 -336c-108 0 -183 8 -245 19c-24 4 -35 13 -35 43v232h-48c-11 0 -20 9 -20 20v141c0 11 9 20 20 20h48v226c0 30 11 39 35 43c62 11 137 19 245 19c198 0 331 -98 331 -336v-91zM427 326v91c0 106 -22 134 -92 134h-44v-86h44
c11 0 20 -9 20 -20v-141c0 -11 -9 -20 -20 -20h-44v-92h44c70 0 92 28 92 134z" />
    <glyph glyph-name="onehalf" unicode="&#xbd;" horiz-adv-x="855" 
d="M820 299c0 -61 -45 -99 -93 -127c-21 -13 -61 -34 -75 -56h146c8 0 16 -6 16 -15v-86c0 -9 -8 -15 -16 -15h-259c-8 0 -16 6 -16 15v59c0 86 48 131 100 166c29 20 45 30 54 37c8 6 9 8 9 15c0 9 -5 12 -40 12c-34 0 -69 -3 -102 -6h-1c-9 0 -15 8 -15 16v62
c0 8 6 12 14 15c34 13 79 23 128 23c109 0 150 -39 150 -115zM692 732c0 -3 -1 -7 -3 -10l-418 -707c-8 -13 -11 -15 -21 -15h-142c-8 0 -13 6 -13 13c0 3 0 6 2 9l418 706c7 12 11 15 23 15h142c8 0 12 -5 12 -11zM242 345c0 -6 -5 -11 -11 -11h-117c-6 0 -11 5 -11 11v265
l-56 -22c-3 -1 -5 -2 -7 -2c-3 0 -5 3 -5 7v98c0 6 2 9 8 11l89 38c4 2 7 3 12 3h87c6 0 11 -5 11 -11v-387z" />
    <glyph glyph-name="plusminus" unicode="&#xb1;" 
d="M578 326c0 -11 -9 -16 -20 -16h-142v-141c0 -11 -5 -20 -16 -20h-130c-11 0 -16 9 -16 20v141h-141c-11 0 -20 5 -20 16v130c0 11 9 16 20 16h141v142c0 11 5 20 16 20h130c11 0 16 -9 16 -20v-142h142c11 0 20 -5 20 -16v-130zM578 -14c0 -11 -9 -16 -20 -16h-445
c-11 0 -20 5 -20 16v101c0 11 9 16 20 16h445c11 0 20 -5 20 -16v-101z" />
    <glyph glyph-name="Thorn" unicode="&#xde;" horiz-adv-x="698" 
d="M668 405c0 -208 -179 -261 -319 -261c-20 0 -34 1 -62 2v-126c0 -11 -9 -20 -20 -20h-192c-11 0 -20 9 -20 20v703c0 11 9 20 20 20h192c11 0 20 -9 20 -20v-51s40 1 57 1c146 0 324 -51 324 -261v-7zM434 405v7c0 45 -34 64 -85 64h-62v-135h62c51 0 85 21 85 64z" />
    <glyph glyph-name="onequarter" unicode="&#xbc;" horiz-adv-x="836" 
d="M801 92c0 -9 -7 -16 -16 -16h-21v-60c0 -9 -7 -16 -16 -16h-104c-9 0 -16 7 -16 16v60h-138c-9 0 -15 7 -15 16v70c0 7 2 12 6 18l175 221c4 5 12 8 18 8h74c9 0 16 -7 16 -16v-212h21c9 0 16 -6 16 -15v-74zM692 732c0 -3 -1 -7 -3 -10l-418 -707
c-8 -13 -11 -15 -21 -15h-142c-8 0 -13 6 -13 13c0 3 0 6 2 9l418 706c7 12 11 15 23 15h142c8 0 12 -5 12 -11zM242 345c0 -6 -5 -11 -11 -11h-117c-6 0 -11 5 -11 11v265l-56 -22c-3 -1 -5 -2 -7 -2c-3 0 -5 3 -5 7v98c0 6 2 9 8 11l89 38c4 2 7 3 12 3h87
c6 0 11 -5 11 -11v-387zM634 181v74l-58 -74h58z" />
    <glyph glyph-name="divide" unicode="&#xf7;" 
d="M443 572c0 -11 -10 -20 -21 -20h-174c-11 0 -21 9 -21 20v132c0 11 10 20 21 20h174c11 0 21 -9 21 -20v-132zM578 326c0 -11 -9 -16 -20 -16h-445c-11 0 -20 5 -20 16v130c0 11 9 16 20 16h445c11 0 20 -5 20 -16v-130zM443 57c0 -11 -10 -20 -21 -20h-174
c-11 0 -21 9 -21 20v132c0 11 10 20 21 20h174c11 0 21 -9 21 -20v-132z" />
    <glyph glyph-name="brokenbar" unicode="&#xa6;" horiz-adv-x="324" 
d="M274 364c0 -12 -9 -22 -21 -22h-180c-12 0 -23 10 -23 22v343c0 12 11 21 23 21h180c12 0 21 -9 21 -21v-343zM274 -189c0 -12 -9 -22 -21 -22h-180c-12 0 -23 10 -23 22v343c0 12 11 21 23 21h180c12 0 21 -9 21 -21v-343z" />
    <glyph glyph-name="degree" unicode="&#xb0;" horiz-adv-x="376" 
d="M351 590c0 -90 -73 -163 -163 -163c-89 0 -163 73 -163 163s74 163 163 163c90 0 163 -73 163 -163zM248 590c0 33 -28 60 -60 60s-59 -27 -59 -60c0 -32 26 -59 59 -59s60 26 60 59z" />
    <glyph glyph-name="thorn" unicode="&#xfe;" horiz-adv-x="636" 
d="M601 256c0 -160 -90 -266 -275 -266c-12 0 -41 3 -54 6v-164c0 -12 -8 -21 -20 -21h-179c-12 0 -23 9 -23 21v927c0 11 9 20 20 20h182c11 0 20 -9 20 -20v-160c17 1 35 1 54 1c165 0 275 -91 275 -266v-78zM379 256v78c0 48 -12 82 -53 82c-26 0 -35 -1 -54 -3v-236
c16 -1 31 -3 54 -3c41 0 53 35 53 82z" />
    <glyph glyph-name="threequarters" unicode="&#xbe;" horiz-adv-x="886" 
d="M851 92c0 -9 -7 -16 -16 -16h-21v-60c0 -9 -7 -16 -16 -16h-104c-9 0 -16 7 -16 16v60h-138c-9 0 -15 7 -15 16v70c0 7 2 12 6 18l175 221c4 5 12 8 18 8h74c9 0 16 -7 16 -16v-212h21c9 0 16 -6 16 -15v-74zM771 732c0 -3 -1 -6 -3 -10l-418 -707
c-8 -13 -11 -15 -21 -15h-142c-9 0 -14 6 -14 14c0 2 1 5 3 8l418 706c7 12 11 15 23 15h142c8 0 12 -5 12 -11zM331 457c0 -86 -57 -123 -154 -123c-33 0 -100 8 -132 24c-5 3 -10 6 -10 13v63c0 9 6 15 15 15h1c28 -2 79 -5 115 -5c28 0 33 12 33 25c0 14 -6 25 -26 25
h-92c-9 0 -16 7 -16 16v69c0 9 7 16 16 16h85c24 0 33 12 33 25s-8 23 -33 23c-36 0 -83 -3 -111 -5h-1c-8 0 -15 6 -15 15v63c0 9 7 12 14 15c23 11 78 22 124 22c97 0 154 -28 154 -118c0 -45 -20 -70 -46 -88c30 -18 46 -50 46 -90zM684 181v74l-58 -74h58z" />
    <glyph glyph-name="registered" unicode="&#xae;" horiz-adv-x="646" 
d="M611 483c0 -159 -129 -287 -288 -287s-288 128 -288 287s129 288 288 288s288 -129 288 -288zM553 483c0 127 -103 230 -230 230s-229 -103 -229 -230s102 -229 229 -229s230 102 230 229zM470 329c0 -5 -4 -8 -8 -8h-97c-5 0 -7 5 -9 9l-54 106h-14v-106
c0 -5 -4 -9 -9 -9h-88c-5 0 -9 4 -9 9v286c0 28 7 34 31 38c15 2 68 6 99 6c90 0 146 -28 146 -113v-10c0 -43 -24 -69 -51 -84l62 -119c1 -2 1 -3 1 -5zM357 537v10c0 17 -10 27 -36 27h-37v-64h37c25 0 36 14 36 27z" />
    <glyph glyph-name="minus" unicode="&#x2212;" 
d="M578 326c0 -11 -9 -16 -20 -16h-445c-11 0 -20 5 -20 16v130c0 11 9 16 20 16h445c11 0 20 -5 20 -16v-130z" />
    <glyph glyph-name="eth" unicode="&#xf0;" horiz-adv-x="620" 
d="M585 272c0 -193 -104 -282 -275 -282s-275 89 -275 282v11c0 193 103 282 275 282h4c-23 18 -52 35 -86 51l-62 -48c-5 -4 -9 -6 -13 -6s-7 2 -11 6l-24 27c-2 2 -3 5 -3 8c0 6 4 12 10 16l33 25c-14 5 -28 10 -43 15c-8 3 -16 7 -16 15c0 1 0 3 1 5l32 88
c3 8 8 11 13 11c3 0 7 -1 10 -2c45 -12 86 -25 123 -40l66 50c4 3 9 5 14 5c4 0 8 -1 11 -5l24 -27c2 -3 4 -5 4 -8c0 -5 -4 -9 -10 -14l-42 -32c164 -87 240 -235 240 -421v-12zM363 272v11c0 78 -19 98 -53 98s-53 -20 -53 -98v-11c0 -78 19 -98 53 -98s53 20 53 98z" />
    <glyph glyph-name="multiply" unicode="&#xd7;" 
d="M558 505c0 -6 -3 -11 -8 -16l-100 -100l99 -100c5 -5 8 -10 8 -15c0 -3 -2 -7 -5 -10l-92 -92c-3 -3 -7 -5 -10 -5c-5 0 -10 3 -15 8l-100 99l-100 -99c-5 -5 -10 -8 -15 -8c-3 0 -7 2 -10 5l-92 92c-3 3 -5 7 -5 10c0 5 3 10 8 15l99 100l-100 100c-5 5 -8 10 -8 16
c0 3 2 7 5 10l92 92c3 3 7 5 11 5c5 0 10 -3 15 -8l100 -101l100 101c5 5 10 8 15 8c4 0 8 -2 11 -5l92 -92c3 -3 5 -7 5 -10z" />
    <glyph glyph-name="copyright" unicode="&#xa9;" horiz-adv-x="750" 
d="M715 374c0 -188 -153 -339 -341 -339s-339 151 -339 339c0 187 151 342 339 342s341 -154 341 -342zM656 374c0 155 -127 283 -282 283s-280 -128 -280 -283s125 -280 280 -280s282 125 282 280zM478 182c0 -7 -2 -9 -12 -12c-18 -6 -44 -11 -75 -11
c-124 0 -183 69 -183 194v47c0 126 60 194 183 194c31 0 59 -5 75 -11c10 -3 12 -5 12 -12v-90c0 -7 -4 -11 -10 -11h-2c-25 3 -33 5 -75 5c-23 0 -47 -9 -47 -75v-47c0 -68 24 -75 47 -75c34 0 50 2 75 5h2c6 0 10 -3 10 -10v-91z" />
    <glyph glyph-name="Aacute" unicode="&#xc1;" horiz-adv-x="716" 
d="M696 15c0 -9 -5 -15 -15 -15h-208c-11 0 -19 9 -21 20l-18 112h-152l-18 -112c-2 -11 -10 -20 -21 -20h-208c-10 0 -15 6 -15 15v5l119 604c20 102 97 129 219 129s199 -27 219 -129l119 -604v-5zM404 316l-37 233c-1 8 -1 13 -9 13s-8 -5 -9 -13l-37 -233h92zM571 931
c0 -2 -2 -5 -5 -8l-130 -119c-7 -7 -10 -10 -25 -10h-150c-6 0 -9 3 -9 7c0 3 1 7 4 10l89 112c9 11 13 15 29 15h185c7 0 12 -3 12 -7z" />
    <glyph glyph-name="Acircumflex" unicode="&#xc2;" horiz-adv-x="716" 
d="M696 15c0 -9 -5 -15 -15 -15h-208c-11 0 -19 9 -21 20l-18 112h-152l-18 -112c-2 -11 -10 -20 -21 -20h-208c-10 0 -15 6 -15 15v5l119 604c20 102 97 129 219 129s199 -27 219 -129l119 -604v-5zM404 316l-37 233c-1 8 -1 13 -9 13s-8 -5 -9 -13l-37 -233h92zM595 801
c0 -4 -3 -7 -9 -7h-144c-15 0 -18 3 -25 10l-48 49l-48 -49c-7 -7 -10 -10 -25 -10h-144c-6 0 -9 3 -9 7c0 3 1 6 4 10l83 112c9 12 13 15 29 15h220c16 0 20 -3 29 -15l83 -112c3 -4 4 -7 4 -10z" />
    <glyph glyph-name="Adieresis" unicode="&#xc4;" horiz-adv-x="716" 
d="M696 15c0 -9 -5 -15 -15 -15h-208c-11 0 -19 9 -21 20l-18 112h-152l-18 -112c-2 -11 -10 -20 -21 -20h-208c-10 0 -15 6 -15 15v5l119 604c20 102 97 129 219 129s199 -27 219 -129l119 -604v-5zM404 316l-37 233c-1 8 -1 13 -9 13s-8 -5 -9 -13l-37 -233h92zM565 815
c0 -12 -11 -21 -23 -21h-139c-12 0 -23 9 -23 21v102c0 12 11 21 23 21h139c12 0 23 -9 23 -21v-102zM335 815c0 -12 -11 -21 -23 -21h-139c-12 0 -23 9 -23 21v102c0 12 11 21 23 21h139c12 0 23 -9 23 -21v-102z" />
    <glyph glyph-name="Agrave" unicode="&#xc0;" horiz-adv-x="716" 
d="M696 15c0 -9 -5 -15 -15 -15h-208c-11 0 -19 9 -21 20l-18 112h-152l-18 -112c-2 -11 -10 -20 -21 -20h-208c-10 0 -15 6 -15 15v5l119 604c20 102 97 129 219 129s199 -27 219 -129l119 -604v-5zM404 316l-37 233c-1 8 -1 13 -9 13s-8 -5 -9 -13l-37 -233h92zM494 801
c0 -4 -3 -7 -9 -7h-150c-15 0 -18 3 -25 10l-130 119c-3 3 -5 6 -5 8c0 4 5 7 12 7h185c16 0 20 -4 29 -15l89 -112c3 -3 4 -7 4 -10z" />
    <glyph glyph-name="Aring" unicode="&#xc5;" horiz-adv-x="716" 
d="M696 15c0 -9 -5 -15 -15 -15h-208c-11 0 -19 9 -21 20l-18 112h-152l-18 -112c-2 -11 -10 -20 -21 -20h-208c-10 0 -15 6 -15 15v5l119 604c20 102 97 129 219 129s199 -27 219 -129l119 -604v-5zM404 316l-37 233c-1 8 -1 13 -9 13s-8 -5 -9 -13l-37 -233h92zM484 909
c0 -71 -57 -128 -128 -128s-128 57 -128 128s57 128 128 128s128 -57 128 -128zM394 910c0 20 -17 37 -37 37c-19 0 -36 -16 -36 -37s17 -37 36 -37c20 0 37 17 37 37z" />
    <glyph glyph-name="Atilde" unicode="&#xc3;" horiz-adv-x="716" 
d="M696 15c0 -9 -5 -15 -15 -15h-208c-11 0 -19 9 -21 20l-18 112h-152l-18 -112c-2 -11 -10 -20 -21 -20h-208c-10 0 -15 6 -15 15v5l119 604c20 102 97 129 219 129s199 -27 219 -129l119 -604v-5zM404 316l-37 233c-1 8 -1 13 -9 13s-8 -5 -9 -13l-37 -233h92zM588 921
c0 -101 -55 -134 -144 -134c-17 0 -52 9 -74 20l-39 20c-18 9 -29 12 -37 12c-7 0 -14 -2 -14 -13v-16c0 -11 -7 -17 -18 -17h-97c-11 0 -18 6 -18 17v16c0 99 56 134 145 134c17 0 51 -8 73 -19l39 -20c18 -9 30 -13 38 -13c10 0 13 4 13 14v16c0 11 7 17 18 17h97
c11 0 18 -6 18 -17v-17z" />
    <glyph glyph-name="Ccedilla" unicode="&#xc7;" horiz-adv-x="548" 
d="M513 31c0 -13 -4 -16 -21 -22c-32 -11 -76 -19 -131 -19c-217 0 -321 121 -321 341v81c0 221 104 341 321 341c55 0 103 -9 131 -19c17 -6 21 -9 21 -22v-158c0 -13 -6 -18 -16 -18h-4c-43 5 -59 9 -132 9c-40 0 -82 -18 -82 -133v-81c0 -120 42 -133 82 -133
c59 0 89 4 132 9h4c10 0 16 -5 16 -18v-158zM451 -44c0 -2 -2 -5 -5 -8l-130 -119c-7 -7 -10 -10 -25 -10h-150c-6 0 -9 3 -9 7c0 3 1 7 4 10l89 112c9 11 13 15 29 15h185c7 0 12 -3 12 -7z" />
    <glyph glyph-name="Eacute" unicode="&#xc9;" horiz-adv-x="595" 
d="M540 21c0 -11 -9 -19 -20 -20c-41 -5 -114 -11 -201 -11c-126 0 -269 29 -269 234v295c0 205 143 234 269 234c87 0 160 -6 201 -11c11 -1 20 -9 20 -20v-151c0 -11 -9 -20 -20 -20h-201c-25 0 -33 -7 -33 -32v-54h234c11 0 20 -9 20 -20v-141c0 -11 -9 -20 -20 -20h-234
v-60c0 -25 8 -32 33 -32h201c11 0 20 -9 20 -20v-151zM505 931c0 -2 -2 -5 -5 -8l-130 -119c-7 -7 -10 -10 -25 -10h-150c-6 0 -9 3 -9 7c0 3 1 7 4 10l89 112c9 11 13 15 29 15h185c7 0 12 -3 12 -7z" />
    <glyph glyph-name="Ecircumflex" unicode="&#xca;" horiz-adv-x="595" 
d="M540 21c0 -11 -9 -19 -20 -20c-41 -5 -114 -11 -201 -11c-126 0 -269 29 -269 234v295c0 205 143 234 269 234c87 0 160 -6 201 -11c11 -1 20 -9 20 -20v-151c0 -11 -9 -20 -20 -20h-201c-25 0 -33 -7 -33 -32v-54h234c11 0 20 -9 20 -20v-141c0 -11 -9 -20 -20 -20h-234
v-60c0 -25 8 -32 33 -32h201c11 0 20 -9 20 -20v-151zM530 801c0 -4 -3 -7 -9 -7h-144c-15 0 -18 3 -25 10l-48 49l-48 -49c-7 -7 -10 -10 -25 -10h-144c-6 0 -9 3 -9 7c0 3 1 6 4 10l83 112c9 12 13 15 29 15h220c16 0 20 -3 29 -15l83 -112c3 -4 4 -7 4 -10z" />
    <glyph glyph-name="Edieresis" unicode="&#xcb;" horiz-adv-x="595" 
d="M540 21c0 -11 -9 -19 -20 -20c-41 -5 -114 -11 -201 -11c-126 0 -269 29 -269 234v295c0 205 143 234 269 234c87 0 160 -6 201 -11c11 -1 20 -9 20 -20v-151c0 -11 -9 -20 -20 -20h-201c-25 0 -33 -7 -33 -32v-54h234c11 0 20 -9 20 -20v-141c0 -11 -9 -20 -20 -20h-234
v-60c0 -25 8 -32 33 -32h201c11 0 20 -9 20 -20v-151zM506 815c0 -12 -11 -21 -23 -21h-139c-12 0 -23 9 -23 21v102c0 12 11 21 23 21h139c12 0 23 -9 23 -21v-102zM276 815c0 -12 -11 -21 -23 -21h-139c-12 0 -23 9 -23 21v102c0 12 11 21 23 21h139c12 0 23 -9 23 -21
v-102z" />
    <glyph glyph-name="Egrave" unicode="&#xc8;" horiz-adv-x="595" 
d="M540 21c0 -11 -9 -19 -20 -20c-41 -5 -114 -11 -201 -11c-126 0 -269 29 -269 234v295c0 205 143 234 269 234c87 0 160 -6 201 -11c11 -1 20 -9 20 -20v-151c0 -11 -9 -20 -20 -20h-201c-25 0 -33 -7 -33 -32v-54h234c11 0 20 -9 20 -20v-141c0 -11 -9 -20 -20 -20h-234
v-60c0 -25 8 -32 33 -32h201c11 0 20 -9 20 -20v-151zM438 801c0 -4 -3 -7 -9 -7h-150c-15 0 -18 3 -25 10l-130 119c-3 3 -5 6 -5 8c0 4 5 7 12 7h185c16 0 20 -4 29 -15l89 -112c3 -3 4 -7 4 -10z" />
    <glyph glyph-name="Iacute" unicode="&#xcd;" horiz-adv-x="356" 
d="M296 20c0 -11 -9 -20 -20 -20h-195c-11 0 -21 9 -21 20v703c0 11 10 20 21 20h195c11 0 20 -9 20 -20v-703zM377 931c0 -2 -2 -5 -5 -8l-130 -119c-7 -7 -10 -10 -25 -10h-150c-6 0 -9 3 -9 7c0 3 1 7 4 10l89 112c9 11 13 15 29 15h185c7 0 12 -3 12 -7z" />
    <glyph glyph-name="Icircumflex" unicode="&#xce;" horiz-adv-x="356" 
d="M296 20c0 -11 -9 -20 -20 -20h-195c-11 0 -21 9 -21 20v703c0 11 10 20 21 20h195c11 0 20 -9 20 -20v-703zM403 801c0 -4 -3 -7 -9 -7h-144c-15 0 -18 3 -25 10l-48 49l-48 -49c-7 -7 -10 -10 -25 -10h-144c-6 0 -9 3 -9 7c0 3 1 6 4 10l83 112c9 12 13 15 29 15h220
c16 0 20 -3 29 -15l83 -112c3 -4 4 -7 4 -10z" />
    <glyph glyph-name="Idieresis" unicode="&#xcf;" horiz-adv-x="356" 
d="M296 20c0 -11 -9 -20 -20 -20h-195c-11 0 -21 9 -21 20v703c0 11 10 20 21 20h195c11 0 20 -9 20 -20v-703zM384 815c0 -12 -11 -21 -23 -21h-139c-12 0 -23 9 -23 21v102c0 12 11 21 23 21h139c12 0 23 -9 23 -21v-102zM154 815c0 -12 -11 -21 -23 -21h-139
c-12 0 -23 9 -23 21v102c0 12 11 21 23 21h139c12 0 23 -9 23 -21v-102z" />
    <glyph glyph-name="Igrave" unicode="&#xcc;" horiz-adv-x="356" 
d="M296 20c0 -11 -9 -20 -20 -20h-195c-11 0 -21 9 -21 20v703c0 11 10 20 21 20h195c11 0 20 -9 20 -20v-703zM304 801c0 -4 -3 -7 -9 -7h-150c-15 0 -18 3 -25 10l-130 119c-3 3 -5 6 -5 8c0 4 5 7 12 7h185c16 0 20 -4 29 -15l89 -112c3 -3 4 -7 4 -10z" />
    <glyph glyph-name="Ntilde" unicode="&#xd1;" horiz-adv-x="763" 
d="M703 35c0 -19 -16 -35 -35 -35h-171c-15 0 -25 10 -32 22l-165 275c-5 8 -7 8 -9 8h-1c-3 0 -5 -2 -5 -9v-276c0 -11 -10 -20 -21 -20h-183c-11 0 -21 9 -21 20v688c0 19 16 35 35 35h164c18 0 30 -14 38 -28l168 -276c5 -9 8 -9 10 -9c3 0 5 0 5 9v284c0 11 9 20 20 20
h183c11 0 20 -9 20 -20v-688zM596 921c0 -101 -55 -134 -144 -134c-17 0 -52 9 -74 20l-39 20c-18 9 -29 12 -37 12c-7 0 -14 -2 -14 -13v-16c0 -11 -7 -17 -18 -17h-97c-11 0 -18 6 -18 17v16c0 99 56 134 145 134c17 0 51 -8 73 -19l39 -20c18 -9 30 -13 38 -13
c10 0 13 4 13 14v16c0 11 7 17 18 17h97c11 0 18 -6 18 -17v-17z" />
    <glyph glyph-name="Oacute" unicode="&#xd3;" horiz-adv-x="716" 
d="M676 328c0 -255 -152 -338 -318 -338s-318 83 -318 338v87c0 255 152 338 318 338s318 -83 318 -338v-87zM437 328v87c0 95 -23 130 -79 130s-79 -35 -79 -130v-87c0 -95 23 -130 79 -130s79 35 79 130zM571 931c0 -2 -2 -5 -5 -8l-130 -119c-7 -7 -10 -10 -25 -10h-150
c-6 0 -9 3 -9 7c0 3 1 7 4 10l89 112c9 11 13 15 29 15h185c7 0 12 -3 12 -7z" />
    <glyph glyph-name="Ocircumflex" unicode="&#xd4;" horiz-adv-x="716" 
d="M676 328c0 -255 -152 -338 -318 -338s-318 83 -318 338v87c0 255 152 338 318 338s318 -83 318 -338v-87zM437 328v87c0 95 -23 130 -79 130s-79 -35 -79 -130v-87c0 -95 23 -130 79 -130s79 35 79 130zM584 802c0 -4 -3 -7 -9 -7h-144c-15 0 -18 3 -25 10l-48 49
l-48 -49c-7 -7 -10 -10 -25 -10h-144c-6 0 -9 3 -9 7c0 3 1 6 4 10l83 112c9 12 13 15 29 15h220c16 0 20 -3 29 -15l83 -112c3 -4 4 -7 4 -10z" />
    <glyph glyph-name="Odieresis" unicode="&#xd6;" horiz-adv-x="716" 
d="M676 328c0 -255 -152 -338 -318 -338s-318 83 -318 338v87c0 255 152 338 318 338s318 -83 318 -338v-87zM437 328v87c0 95 -23 130 -79 130s-79 -35 -79 -130v-87c0 -95 23 -130 79 -130s79 35 79 130zM565 815c0 -12 -11 -21 -23 -21h-139c-12 0 -23 9 -23 21v102
c0 12 11 21 23 21h139c12 0 23 -9 23 -21v-102zM335 815c0 -12 -11 -21 -23 -21h-139c-12 0 -23 9 -23 21v102c0 12 11 21 23 21h139c12 0 23 -9 23 -21v-102z" />
    <glyph glyph-name="Ograve" unicode="&#xd2;" horiz-adv-x="716" 
d="M676 328c0 -255 -152 -338 -318 -338s-318 83 -318 338v87c0 255 152 338 318 338s318 -83 318 -338v-87zM437 328v87c0 95 -23 130 -79 130s-79 -35 -79 -130v-87c0 -95 23 -130 79 -130s79 35 79 130zM463 801c0 -4 -3 -7 -9 -7h-150c-15 0 -18 3 -25 10l-130 119
c-3 3 -5 6 -5 8c0 4 5 7 12 7h185c16 0 20 -4 29 -15l89 -112c3 -3 4 -7 4 -10z" />
    <glyph glyph-name="Otilde" unicode="&#xd5;" horiz-adv-x="716" 
d="M676 328c0 -255 -152 -338 -318 -338s-318 83 -318 338v87c0 255 152 338 318 338s318 -83 318 -338v-87zM437 328v87c0 95 -23 130 -79 130s-79 -35 -79 -130v-87c0 -95 23 -130 79 -130s79 35 79 130zM590 922c0 -101 -55 -134 -144 -134c-17 0 -52 9 -74 20l-39 20
c-18 9 -29 12 -37 12c-7 0 -14 -2 -14 -13v-16c0 -11 -7 -17 -18 -17h-97c-11 0 -18 6 -18 17v16c0 99 56 134 145 134c17 0 51 -8 73 -19l39 -20c18 -9 30 -13 38 -13c10 0 13 4 13 14v16c0 11 7 17 18 17h97c11 0 18 -6 18 -17v-17z" />
    <glyph glyph-name="Scaron" unicode="&#x160;" horiz-adv-x="624" 
d="M589 229c0 -117 -83 -239 -293 -239c-86 0 -159 13 -215 30c-11 3 -21 9 -21 20v149c0 10 9 20 19 20h2c42 -5 149 -17 215 -17c29 0 37 13 37 31c0 10 -5 18 -28 31l-150 87c-95 55 -120 129 -120 209c0 109 59 203 268 203c86 0 199 -14 243 -28c11 -3 20 -9 20 -20
v-149c0 -11 -8 -20 -18 -20h-2c-53 5 -168 15 -243 15c-17 0 -21 -8 -21 -16c0 -9 4 -15 37 -32l142 -75c90 -48 128 -113 128 -199zM529 931c0 -3 -1 -7 -4 -10l-89 -112c-9 -11 -13 -15 -29 -15h-220c-16 0 -20 4 -29 15l-89 112c-3 3 -4 7 -4 10c0 4 3 7 9 7h150
c15 0 18 -3 25 -10l48 -45l48 45c7 7 10 10 25 10h150c6 0 9 -3 9 -7z" />
    <glyph glyph-name="Uacute" unicode="&#xda;" horiz-adv-x="752" 
d="M692 286c0 -257 -161 -296 -316 -296s-316 39 -316 296v437c0 11 10 20 21 20h195c11 0 20 -9 20 -20v-437c0 -79 28 -96 80 -96s80 17 80 96v437c0 11 9 20 20 20h195c11 0 21 -9 21 -20v-437zM583 931c0 -2 -2 -5 -5 -8l-130 -119c-7 -7 -10 -10 -25 -10h-150
c-6 0 -9 3 -9 7c0 3 1 7 4 10l89 112c9 11 13 15 29 15h185c7 0 12 -3 12 -7z" />
    <glyph glyph-name="Ucircumflex" unicode="&#xdb;" horiz-adv-x="752" 
d="M692 286c0 -257 -161 -296 -316 -296s-316 39 -316 296v437c0 11 10 20 21 20h195c11 0 20 -9 20 -20v-437c0 -79 28 -96 80 -96s80 17 80 96v437c0 11 9 20 20 20h195c11 0 21 -9 21 -20v-437zM601 801c0 -4 -3 -7 -9 -7h-144c-15 0 -18 3 -25 10l-48 49l-48 -49
c-7 -7 -10 -10 -25 -10h-144c-6 0 -9 3 -9 7c0 3 1 6 4 10l83 112c9 12 13 15 29 15h220c16 0 20 -3 29 -15l83 -112c3 -4 4 -7 4 -10z" />
    <glyph glyph-name="Udieresis" unicode="&#xdc;" horiz-adv-x="752" 
d="M692 286c0 -257 -161 -296 -316 -296s-316 39 -316 296v437c0 11 10 20 21 20h195c11 0 20 -9 20 -20v-437c0 -79 28 -96 80 -96s80 17 80 96v437c0 11 9 20 20 20h195c11 0 21 -9 21 -20v-437zM583 815c0 -12 -11 -21 -23 -21h-139c-12 0 -23 9 -23 21v102
c0 12 11 21 23 21h139c12 0 23 -9 23 -21v-102zM353 815c0 -12 -11 -21 -23 -21h-139c-12 0 -23 9 -23 21v102c0 12 11 21 23 21h139c12 0 23 -9 23 -21v-102z" />
    <glyph glyph-name="Ugrave" unicode="&#xd9;" horiz-adv-x="752" 
d="M692 286c0 -257 -161 -296 -316 -296s-316 39 -316 296v437c0 11 10 20 21 20h195c11 0 20 -9 20 -20v-437c0 -79 28 -96 80 -96s80 17 80 96v437c0 11 9 20 20 20h195c11 0 21 -9 21 -20v-437zM493 801c0 -4 -3 -7 -9 -7h-150c-15 0 -18 3 -25 10l-130 119
c-3 3 -5 6 -5 8c0 4 5 7 12 7h185c16 0 20 -4 29 -15l89 -112c3 -3 4 -7 4 -10z" />
    <glyph glyph-name="Yacute" unicode="&#xdd;" horiz-adv-x="709" 
d="M695 730c0 -3 0 -5 -1 -7l-147 -344c-22 -52 -46 -80 -75 -92v-267c0 -11 -10 -20 -21 -20h-195c-11 0 -20 9 -20 20v267c-29 12 -53 40 -75 92l-146 344c-1 2 -2 5 -2 7c0 7 6 13 14 13h216c11 0 17 -10 21 -20l84 -248c1 -4 3 -6 6 -6s5 2 6 6l85 248c4 10 10 20 21 20
h215c9 0 14 -6 14 -13zM565 931c0 -2 -2 -5 -5 -8l-130 -119c-7 -7 -10 -10 -25 -10h-150c-6 0 -9 3 -9 7c0 3 1 7 4 10l89 112c9 11 13 15 29 15h185c7 0 12 -3 12 -7z" />
    <glyph glyph-name="Ydieresis" unicode="&#x178;" horiz-adv-x="709" 
d="M695 730c0 -3 0 -5 -1 -7l-147 -344c-22 -52 -46 -80 -75 -92v-267c0 -11 -10 -20 -21 -20h-195c-11 0 -20 9 -20 20v267c-29 12 -53 40 -75 92l-146 344c-1 2 -2 5 -2 7c0 7 6 13 14 13h216c11 0 17 -10 21 -20l84 -248c1 -4 3 -6 6 -6s5 2 6 6l85 248c4 10 10 20 21 20
h215c9 0 14 -6 14 -13zM562 815c0 -12 -11 -21 -23 -21h-139c-12 0 -23 9 -23 21v102c0 12 11 21 23 21h139c12 0 23 -9 23 -21v-102zM332 815c0 -12 -11 -21 -23 -21h-139c-12 0 -23 9 -23 21v102c0 12 11 21 23 21h139c12 0 23 -9 23 -21v-102z" />
    <glyph glyph-name="Zcaron" unicode="&#x17d;" horiz-adv-x="629" 
d="M579 20c0 -11 -10 -20 -21 -20h-488c-11 0 -20 9 -20 20v130c0 17 5 32 20 55l200 315c3 5 5 10 5 13c0 5 -4 8 -12 8h-190c-11 0 -20 9 -20 20v162c0 11 9 20 20 20h482c11 0 20 -9 20 -20v-140c0 -21 -11 -42 -22 -59l-196 -302c-3 -5 -4 -8 -4 -12c0 -5 4 -8 13 -8
h192c11 0 21 -9 21 -20v-162zM558 931c0 -3 -1 -7 -4 -10l-89 -112c-9 -11 -13 -15 -29 -15h-220c-16 0 -20 4 -29 15l-89 112c-3 3 -4 7 -4 10c0 4 3 7 9 7h150c15 0 18 -3 25 -10l48 -45l48 45c7 7 10 10 25 10h150c6 0 9 -3 9 -7z" />
    <glyph glyph-name="aacute" unicode="&#xe1;" horiz-adv-x="590" 
d="M540 20c0 -11 -9 -20 -20 -20h-165c-11 0 -20 9 -20 20v21c-41 -32 -78 -51 -141 -51c-70 0 -164 45 -164 186v16c0 123 101 158 265 158h24v21c0 41 -28 46 -50 46c-65 0 -148 -3 -175 -6h-1h-1c-11 0 -18 10 -18 21v114c0 12 9 21 20 25c30 11 124 29 185 29
c147 0 261 -46 261 -229v-351zM326 154v84h-31c-29 0 -56 -11 -56 -46v-11c0 -26 17 -36 38 -36c17 0 36 5 49 9zM520 772c0 -2 -2 -5 -5 -8l-130 -119c-7 -7 -10 -10 -25 -10h-150c-6 0 -9 3 -9 7c0 3 1 7 4 10l89 112c9 11 13 15 29 15h185c7 0 12 -3 12 -7z" />
    <glyph glyph-name="acircumflex" unicode="&#xe2;" horiz-adv-x="590" 
d="M540 20c0 -11 -9 -20 -20 -20h-165c-11 0 -20 9 -20 20v21c-41 -32 -78 -51 -141 -51c-70 0 -164 45 -164 186v16c0 123 101 158 265 158h24v21c0 41 -28 46 -50 46c-65 0 -148 -3 -175 -6h-1h-1c-11 0 -18 10 -18 21v114c0 12 9 21 20 25c30 11 124 29 185 29
c147 0 261 -46 261 -229v-351zM326 154v84h-31c-29 0 -56 -11 -56 -46v-11c0 -26 17 -36 38 -36c17 0 36 5 49 9zM532 642c0 -4 -3 -7 -9 -7h-144c-15 0 -18 3 -25 10l-48 49l-48 -49c-7 -7 -10 -10 -25 -10h-144c-6 0 -9 3 -9 7c0 3 1 6 4 10l83 112c9 12 13 15 29 15h220
c16 0 20 -3 29 -15l83 -112c3 -4 4 -7 4 -10z" />
    <glyph glyph-name="adieresis" unicode="&#xe4;" horiz-adv-x="590" 
d="M540 20c0 -11 -9 -20 -20 -20h-165c-11 0 -20 9 -20 20v21c-41 -32 -78 -51 -141 -51c-70 0 -164 45 -164 186v16c0 123 101 158 265 158h24v21c0 41 -28 46 -50 46c-65 0 -148 -3 -175 -6h-1h-1c-11 0 -18 10 -18 21v114c0 12 9 21 20 25c30 11 124 29 185 29
c147 0 261 -46 261 -229v-351zM326 154v84h-31c-29 0 -56 -11 -56 -46v-11c0 -26 17 -36 38 -36c17 0 36 5 49 9zM516 656c0 -12 -11 -21 -23 -21h-139c-12 0 -23 9 -23 21v102c0 12 11 21 23 21h139c12 0 23 -9 23 -21v-102zM286 656c0 -12 -11 -21 -23 -21h-139
c-12 0 -23 9 -23 21v102c0 12 11 21 23 21h139c12 0 23 -9 23 -21v-102z" />
    <glyph glyph-name="agrave" unicode="&#xe0;" horiz-adv-x="590" 
d="M540 20c0 -11 -9 -20 -20 -20h-165c-11 0 -20 9 -20 20v21c-41 -32 -78 -51 -141 -51c-70 0 -164 45 -164 186v16c0 123 101 158 265 158h24v21c0 41 -28 46 -50 46c-65 0 -148 -3 -175 -6h-1h-1c-11 0 -18 10 -18 21v114c0 12 9 21 20 25c30 11 124 29 185 29
c147 0 261 -46 261 -229v-351zM326 154v84h-31c-29 0 -56 -11 -56 -46v-11c0 -26 17 -36 38 -36c17 0 36 5 49 9zM420 642c0 -4 -3 -7 -9 -7h-150c-15 0 -18 3 -25 10l-130 119c-3 3 -5 6 -5 8c0 4 5 7 12 7h185c16 0 20 -4 29 -15l89 -112c3 -3 4 -7 4 -10z" />
    <glyph glyph-name="aring" unicode="&#xe5;" horiz-adv-x="590" 
d="M540 20c0 -11 -9 -20 -20 -20h-165c-11 0 -20 9 -20 20v21c-41 -32 -78 -51 -141 -51c-70 0 -164 45 -164 186v16c0 123 101 158 265 158h24v21c0 41 -28 46 -50 46c-65 0 -148 -3 -175 -6h-1h-1c-11 0 -18 10 -18 21v114c0 12 9 21 20 25c30 11 124 29 185 29
c147 0 261 -46 261 -229v-351zM326 154v84h-31c-29 0 -56 -11 -56 -46v-11c0 -26 17 -36 38 -36c17 0 36 5 49 9zM427 763c0 -71 -57 -128 -128 -128s-128 57 -128 128s57 128 128 128s128 -57 128 -128zM337 764c0 20 -17 37 -37 37c-19 0 -36 -16 -36 -37s17 -37 36 -37
c20 0 37 17 37 37z" />
    <glyph glyph-name="atilde" unicode="&#xe3;" horiz-adv-x="590" 
d="M540 20c0 -11 -9 -20 -20 -20h-165c-11 0 -20 9 -20 20v21c-41 -32 -78 -51 -141 -51c-70 0 -164 45 -164 186v16c0 123 101 158 265 158h24v21c0 41 -28 46 -50 46c-65 0 -148 -3 -175 -6h-1h-1c-11 0 -18 10 -18 21v114c0 12 9 21 20 25c30 11 124 29 185 29
c147 0 261 -46 261 -229v-351zM326 154v84h-31c-29 0 -56 -11 -56 -46v-11c0 -26 17 -36 38 -36c17 0 36 5 49 9zM535 759c0 -101 -55 -134 -144 -134c-17 0 -52 9 -74 20l-39 20c-18 9 -29 12 -37 12c-7 0 -14 -2 -14 -13v-16c0 -11 -7 -17 -18 -17h-97c-11 0 -18 6 -18 17
v16c0 99 56 134 145 134c17 0 51 -8 73 -19l39 -20c18 -9 30 -13 38 -13c10 0 13 4 13 14v16c0 11 7 17 18 17h97c11 0 18 -6 18 -17v-17z" />
    <glyph glyph-name="ccedilla" unicode="&#xe7;" horiz-adv-x="475" 
d="M440 26c0 -12 -8 -16 -20 -19c-39 -9 -83 -17 -141 -17c-164 0 -244 108 -244 272v66c0 164 80 272 244 272c58 0 113 -10 141 -17c11 -3 20 -7 20 -19v-136c0 -11 -10 -21 -21 -21h-1c-32 2 -68 6 -108 6c-41 0 -53 -26 -53 -85v-66c0 -59 12 -85 53 -85
c40 0 76 4 108 6h1c11 0 21 -10 21 -21v-136zM362 -44c0 -2 -2 -5 -5 -8l-130 -119c-7 -7 -10 -10 -25 -10h-150c-6 0 -9 3 -9 7c0 3 1 7 4 10l89 112c9 11 13 15 29 15h185c7 0 12 -3 12 -7z" />
    <glyph glyph-name="eacute" unicode="&#xe9;" horiz-adv-x="614" 
d="M579 258c0 -12 -10 -21 -22 -21h-302c0 -50 18 -64 86 -64c43 0 153 4 188 7h4c12 0 18 -5 18 -18v-105c0 -17 -4 -23 -19 -29c-63 -26 -148 -38 -229 -38c-148 0 -268 80 -268 268v61c0 192 108 281 278 281c185 0 266 -111 266 -281v-61zM368 349c0 48 -12 83 -57 83
c-41 0 -56 -35 -56 -83h113zM530 772c0 -2 -2 -5 -5 -8l-130 -119c-7 -7 -10 -10 -25 -10h-150c-6 0 -9 3 -9 7c0 3 1 7 4 10l89 112c9 11 13 15 29 15h185c7 0 12 -3 12 -7z" />
    <glyph glyph-name="ecircumflex" unicode="&#xea;" horiz-adv-x="614" 
d="M579 258c0 -12 -10 -21 -22 -21h-302c0 -50 18 -64 86 -64c43 0 153 4 188 7h4c12 0 18 -5 18 -18v-105c0 -17 -4 -23 -19 -29c-63 -26 -148 -38 -229 -38c-148 0 -268 80 -268 268v61c0 192 108 281 278 281c185 0 266 -111 266 -281v-61zM368 349c0 48 -12 83 -57 83
c-41 0 -56 -35 -56 -83h113zM540 642c0 -4 -3 -7 -9 -7h-144c-15 0 -18 3 -25 10l-48 49l-48 -49c-7 -7 -10 -10 -25 -10h-144c-6 0 -9 3 -9 7c0 3 1 6 4 10l83 112c9 12 13 15 29 15h220c16 0 20 -3 29 -15l83 -112c3 -4 4 -7 4 -10z" />
    <glyph glyph-name="edieresis" unicode="&#xeb;" horiz-adv-x="614" 
d="M579 258c0 -12 -10 -21 -22 -21h-302c0 -50 18 -64 86 -64c43 0 153 4 188 7h4c12 0 18 -5 18 -18v-105c0 -17 -4 -23 -19 -29c-63 -26 -148 -38 -229 -38c-148 0 -268 80 -268 268v61c0 192 108 281 278 281c185 0 266 -111 266 -281v-61zM368 349c0 48 -12 83 -57 83
c-41 0 -56 -35 -56 -83h113zM518 656c0 -12 -11 -21 -23 -21h-139c-12 0 -23 9 -23 21v102c0 12 11 21 23 21h139c12 0 23 -9 23 -21v-102zM288 656c0 -12 -11 -21 -23 -21h-139c-12 0 -23 9 -23 21v102c0 12 11 21 23 21h139c12 0 23 -9 23 -21v-102z" />
    <glyph glyph-name="egrave" unicode="&#xe8;" horiz-adv-x="614" 
d="M579 258c0 -12 -10 -21 -22 -21h-302c0 -50 18 -64 86 -64c43 0 153 4 188 7h4c12 0 18 -5 18 -18v-105c0 -17 -4 -23 -19 -29c-63 -26 -148 -38 -229 -38c-148 0 -268 80 -268 268v61c0 192 108 281 278 281c185 0 266 -111 266 -281v-61zM368 349c0 48 -12 83 -57 83
c-41 0 -56 -35 -56 -83h113zM402 642c0 -4 -3 -7 -9 -7h-150c-15 0 -18 3 -25 10l-130 119c-3 3 -5 6 -5 8c0 4 5 7 12 7h185c16 0 20 -4 29 -15l89 -112c3 -3 4 -7 4 -10z" />
    <glyph glyph-name="iacute" unicode="&#xed;" horiz-adv-x="329" 
d="M277 22c0 -12 -10 -22 -22 -22h-179c-12 0 -23 10 -23 22v547c0 12 11 21 23 21h179c12 0 22 -9 22 -21v-547zM373 772c0 -2 -2 -5 -5 -8l-130 -119c-7 -7 -10 -10 -25 -10h-150c-6 0 -9 3 -9 7c0 3 1 7 4 10l89 112c9 11 13 15 29 15h185c7 0 12 -3 12 -7z" />
    <glyph glyph-name="icircumflex" unicode="&#xee;" horiz-adv-x="329" 
d="M277 22c0 -12 -10 -22 -22 -22h-179c-12 0 -23 10 -23 22v547c0 12 11 21 23 21h179c12 0 22 -9 22 -21v-547zM396 642c0 -4 -3 -7 -9 -7h-144c-15 0 -18 3 -25 10l-48 49l-48 -49c-7 -7 -10 -10 -25 -10h-144c-6 0 -9 3 -9 7c0 3 1 6 4 10l83 112c9 12 13 15 29 15h220
c16 0 20 -3 29 -15l83 -112c3 -4 4 -7 4 -10z" />
    <glyph glyph-name="idieresis" unicode="&#xef;" horiz-adv-x="329" 
d="M277 22c0 -12 -10 -22 -22 -22h-179c-12 0 -23 10 -23 22v547c0 12 11 21 23 21h179c12 0 22 -9 22 -21v-547zM373 656c0 -12 -11 -21 -23 -21h-139c-12 0 -23 9 -23 21v102c0 12 11 21 23 21h139c12 0 23 -9 23 -21v-102zM143 656c0 -12 -11 -21 -23 -21h-139
c-12 0 -23 9 -23 21v102c0 12 11 21 23 21h139c12 0 23 -9 23 -21v-102z" />
    <glyph glyph-name="igrave" unicode="&#xec;" horiz-adv-x="329" 
d="M277 22c0 -12 -10 -22 -22 -22h-179c-12 0 -23 10 -23 22v547c0 12 11 21 23 21h179c12 0 22 -9 22 -21v-547zM283 642c0 -4 -3 -7 -9 -7h-150c-15 0 -18 3 -25 10l-130 119c-3 3 -5 6 -5 8c0 4 5 7 12 7h185c16 0 20 -4 29 -15l89 -112c3 -3 4 -7 4 -10z" />
    <glyph glyph-name="ntilde" unicode="&#xf1;" horiz-adv-x="652" 
d="M602 22c0 -12 -9 -22 -21 -22h-180c-12 0 -22 10 -22 22v346c0 35 -23 49 -51 49c-18 0 -37 -5 -55 -15v-380c0 -12 -8 -22 -20 -22h-180c-12 0 -23 10 -23 22v548c0 11 9 20 20 20h165c11 0 20 -9 20 -20v-28c47 38 79 58 164 58c147 0 183 -107 183 -232v-346zM544 759
c0 -101 -55 -134 -144 -134c-17 0 -52 9 -74 20l-39 20c-18 9 -29 12 -37 12c-7 0 -14 -2 -14 -13v-16c0 -11 -7 -17 -18 -17h-97c-11 0 -18 6 -18 17v16c0 99 56 134 145 134c17 0 51 -8 73 -19l39 -20c18 -9 30 -13 38 -13c10 0 13 4 13 14v16c0 11 7 17 18 17h97
c11 0 18 -6 18 -17v-17z" />
    <glyph glyph-name="oacute" unicode="&#xf3;" horiz-adv-x="620" 
d="M585 272c0 -193 -104 -282 -275 -282s-275 89 -275 282v46c0 193 104 282 275 282s275 -89 275 -282v-46zM363 272v46c0 78 -19 98 -53 98s-53 -20 -53 -98v-46c0 -78 19 -98 53 -98s53 20 53 98zM515 772c0 -2 -2 -5 -5 -8l-130 -119c-7 -7 -10 -10 -25 -10h-150
c-6 0 -9 3 -9 7c0 3 1 7 4 10l89 112c9 11 13 15 29 15h185c7 0 12 -3 12 -7z" />
    <glyph glyph-name="ocircumflex" unicode="&#xf4;" horiz-adv-x="620" 
d="M585 272c0 -193 -104 -282 -275 -282s-275 89 -275 282v46c0 193 104 282 275 282s275 -89 275 -282v-46zM363 272v46c0 78 -19 98 -53 98s-53 -20 -53 -98v-46c0 -78 19 -98 53 -98s53 20 53 98zM536 642c0 -4 -3 -7 -9 -7h-144c-15 0 -18 3 -25 10l-48 49l-48 -49
c-7 -7 -10 -10 -25 -10h-144c-6 0 -9 3 -9 7c0 3 1 6 4 10l83 112c9 12 13 15 29 15h220c16 0 20 -3 29 -15l83 -112c3 -4 4 -7 4 -10z" />
    <glyph glyph-name="odieresis" unicode="&#xf6;" horiz-adv-x="620" 
d="M585 272c0 -193 -104 -282 -275 -282s-275 89 -275 282v46c0 193 104 282 275 282s275 -89 275 -282v-46zM363 272v46c0 78 -19 98 -53 98s-53 -20 -53 -98v-46c0 -78 19 -98 53 -98s53 20 53 98zM517 656c0 -12 -11 -21 -23 -21h-139c-12 0 -23 9 -23 21v102
c0 12 11 21 23 21h139c12 0 23 -9 23 -21v-102zM287 656c0 -12 -11 -21 -23 -21h-139c-12 0 -23 9 -23 21v102c0 12 11 21 23 21h139c12 0 23 -9 23 -21v-102z" />
    <glyph glyph-name="ograve" unicode="&#xf2;" horiz-adv-x="620" 
d="M585 272c0 -193 -104 -282 -275 -282s-275 89 -275 282v46c0 193 104 282 275 282s275 -89 275 -282v-46zM363 272v46c0 78 -19 98 -53 98s-53 -20 -53 -98v-46c0 -78 19 -98 53 -98s53 20 53 98zM424 642c0 -4 -3 -7 -9 -7h-150c-15 0 -18 3 -25 10l-130 119
c-3 3 -5 6 -5 8c0 4 5 7 12 7h185c16 0 20 -4 29 -15l89 -112c3 -3 4 -7 4 -10z" />
    <glyph glyph-name="otilde" unicode="&#xf5;" horiz-adv-x="620" 
d="M585 272c0 -193 -104 -282 -275 -282s-275 89 -275 282v46c0 193 104 282 275 282s275 -89 275 -282v-46zM363 272v46c0 78 -19 98 -53 98s-53 -20 -53 -98v-46c0 -78 19 -98 53 -98s53 20 53 98zM530 759c0 -101 -55 -134 -144 -134c-17 0 -52 9 -74 20l-39 20
c-18 9 -29 12 -37 12c-7 0 -14 -2 -14 -13v-16c0 -11 -7 -17 -18 -17h-97c-11 0 -18 6 -18 17v16c0 99 56 134 145 134c17 0 51 -8 73 -19l39 -20c18 -9 30 -13 38 -13c10 0 13 4 13 14v16c0 11 7 17 18 17h97c11 0 18 -6 18 -17v-17z" />
    <glyph glyph-name="scaron" unicode="&#x161;" horiz-adv-x="540" 
d="M500 180c0 -107 -74 -190 -251 -190c-86 0 -147 13 -187 26c-11 4 -19 10 -19 22v125c0 13 6 23 21 23h5c65 -9 139 -19 174 -19c27 0 35 5 35 20c0 7 -3 13 -23 23l-114 58c-70 35 -101 87 -101 167c0 103 75 165 235 165c74 0 147 -15 191 -27c11 -3 21 -9 21 -21v-130
c0 -12 -6 -21 -18 -21h-3c-30 5 -139 18 -178 18c-15 0 -21 -4 -21 -12c0 -5 3 -9 13 -14l110 -54c82 -40 110 -100 110 -159zM502 772c0 -3 -1 -7 -4 -10l-89 -112c-9 -11 -13 -15 -29 -15h-220c-16 0 -20 4 -29 15l-89 112c-3 3 -4 7 -4 10c0 4 3 7 9 7h150
c15 0 18 -3 25 -10l48 -45l48 45c7 7 10 10 25 10h150c6 0 9 -3 9 -7z" />
    <glyph glyph-name="uacute" unicode="&#xfa;" horiz-adv-x="652" 
d="M602 20c0 -11 -9 -20 -20 -20h-165c-11 0 -20 9 -20 20v28c-42 -35 -79 -58 -164 -58c-147 0 -183 107 -183 232v346c0 12 9 22 21 22h180c12 0 22 -10 22 -22v-346c0 -35 23 -49 51 -49c18 0 37 5 55 15v380c0 12 8 22 20 22h180c12 0 23 -10 23 -22v-548zM545 772
c0 -2 -2 -5 -5 -8l-130 -119c-7 -7 -10 -10 -25 -10h-150c-6 0 -9 3 -9 7c0 3 1 7 4 10l89 112c9 11 13 15 29 15h185c7 0 12 -3 12 -7z" />
    <glyph glyph-name="ucircumflex" unicode="&#xfb;" horiz-adv-x="652" 
d="M602 20c0 -11 -9 -20 -20 -20h-165c-11 0 -20 9 -20 20v28c-42 -35 -79 -58 -164 -58c-147 0 -183 107 -183 232v346c0 12 9 22 21 22h180c12 0 22 -10 22 -22v-346c0 -35 23 -49 51 -49c18 0 37 5 55 15v380c0 12 8 22 20 22h180c12 0 23 -10 23 -22v-548zM551 642
c0 -4 -3 -7 -9 -7h-144c-15 0 -18 3 -25 10l-48 49l-48 -49c-7 -7 -10 -10 -25 -10h-144c-6 0 -9 3 -9 7c0 3 1 6 4 10l83 112c9 12 13 15 29 15h220c16 0 20 -3 29 -15l83 -112c3 -4 4 -7 4 -10z" />
    <glyph glyph-name="udieresis" unicode="&#xfc;" horiz-adv-x="652" 
d="M602 20c0 -11 -9 -20 -20 -20h-165c-11 0 -20 9 -20 20v28c-42 -35 -79 -58 -164 -58c-147 0 -183 107 -183 232v346c0 12 9 22 21 22h180c12 0 22 -10 22 -22v-346c0 -35 23 -49 51 -49c18 0 37 5 55 15v380c0 12 8 22 20 22h180c12 0 23 -10 23 -22v-548zM536 656
c0 -12 -11 -21 -23 -21h-139c-12 0 -23 9 -23 21v102c0 12 11 21 23 21h139c12 0 23 -9 23 -21v-102zM306 656c0 -12 -11 -21 -23 -21h-139c-12 0 -23 9 -23 21v102c0 12 11 21 23 21h139c12 0 23 -9 23 -21v-102z" />
    <glyph glyph-name="ugrave" unicode="&#xf9;" horiz-adv-x="652" 
d="M602 20c0 -11 -9 -20 -20 -20h-165c-11 0 -20 9 -20 20v28c-42 -35 -79 -58 -164 -58c-147 0 -183 107 -183 232v346c0 12 9 22 21 22h180c12 0 22 -10 22 -22v-346c0 -35 23 -49 51 -49c18 0 37 5 55 15v380c0 12 8 22 20 22h180c12 0 23 -10 23 -22v-548zM434 642
c0 -4 -3 -7 -9 -7h-150c-15 0 -18 3 -25 10l-130 119c-3 3 -5 6 -5 8c0 4 5 7 12 7h185c16 0 20 -4 29 -15l89 -112c3 -3 4 -7 4 -10z" />
    <glyph glyph-name="yacute" unicode="&#xfd;" horiz-adv-x="656" 
d="M641 573c0 -1 -1 -3 -1 -4l-171 -600c-30 -105 -81 -175 -249 -175c-44 0 -121 10 -150 21c-11 4 -23 8 -23 20v114c0 11 11 22 22 22h1c42 -3 107 -7 150 -7c21 0 35 6 40 23l9 34h-13c-52 0 -74 6 -107 115l-133 433c-1 2 -1 5 -1 7c0 9 7 14 23 14h196
c12 0 18 -10 20 -21l68 -312c2 -8 4 -14 9 -14h7l64 326c2 11 10 21 22 21h195c10 0 22 -7 22 -17zM549 772c0 -2 -2 -5 -5 -8l-130 -119c-7 -7 -10 -10 -25 -10h-150c-6 0 -9 3 -9 7c0 3 1 7 4 10l89 112c9 11 13 15 29 15h185c7 0 12 -3 12 -7z" />
    <glyph glyph-name="ydieresis" unicode="&#xff;" horiz-adv-x="656" 
d="M641 573c0 -1 -1 -3 -1 -4l-171 -600c-30 -105 -81 -175 -249 -175c-44 0 -121 10 -150 21c-11 4 -23 8 -23 20v114c0 11 11 22 22 22h1c42 -3 107 -7 150 -7c21 0 35 6 40 23l9 34h-13c-52 0 -74 6 -107 115l-133 433c-1 2 -1 5 -1 7c0 9 7 14 23 14h196
c12 0 18 -10 20 -21l68 -312c2 -8 4 -14 9 -14h7l64 326c2 11 10 21 22 21h195c10 0 22 -7 22 -17zM534 656c0 -12 -11 -21 -23 -21h-139c-12 0 -23 9 -23 21v102c0 12 11 21 23 21h139c12 0 23 -9 23 -21v-102zM304 656c0 -12 -11 -21 -23 -21h-139c-12 0 -23 9 -23 21v102
c0 12 11 21 23 21h139c12 0 23 -9 23 -21v-102z" />
    <glyph glyph-name="zcaron" unicode="&#x17e;" horiz-adv-x="567" 
d="M517 20c0 -11 -9 -20 -20 -20h-427c-11 0 -20 9 -20 20v105c0 21 2 31 16 50l166 222c3 4 5 8 5 11c0 4 -4 7 -11 7h-155c-10 0 -16 7 -16 16v139c0 11 9 20 20 20h421c11 0 20 -9 20 -20v-107c0 -22 -2 -28 -24 -58l-156 -211c-3 -4 -5 -8 -5 -11c0 -5 4 -8 11 -8h158
c10 0 17 -7 17 -16v-139zM519 772c0 -3 -1 -7 -4 -10l-89 -112c-9 -11 -13 -15 -29 -15h-220c-16 0 -20 4 -29 15l-89 112c-3 3 -4 7 -4 10c0 4 3 7 9 7h150c15 0 18 -3 25 -10l48 -45l48 45c7 7 10 10 25 10h150c6 0 9 -3 9 -7z" />
    <glyph glyph-name="oneeighth" unicode="&#x215b;" horiz-adv-x="858" 
d="M692 732c0 -3 -1 -7 -3 -10l-418 -707c-8 -13 -11 -15 -21 -15h-142c-8 0 -13 6 -13 13c0 3 0 6 2 9l418 706c7 12 11 15 23 15h142c8 0 12 -5 12 -11zM242 345c0 -6 -5 -11 -11 -11h-117c-6 0 -11 5 -11 11v265l-56 -22c-3 -1 -5 -2 -7 -2c-3 0 -5 3 -5 7v98
c0 6 2 9 8 11l89 38c4 2 7 3 12 3h87c6 0 11 -5 11 -11v-387zM823 116c0 -66 -46 -122 -156 -122h-7c-111 0 -156 56 -156 122v11c0 35 16 64 41 84c-21 17 -38 39 -38 76v14c0 66 42 113 153 113h7c110 0 153 -47 153 -113v-14c0 -37 -17 -59 -38 -76c25 -20 41 -49 41 -84
v-11zM697 283v4c0 14 -7 33 -30 33h-7c-24 0 -30 -19 -30 -33v-4c0 -21 13 -31 30 -31h7c16 0 30 10 30 31zM697 123v6c0 24 -10 38 -30 38h-7c-21 0 -31 -14 -31 -38v-6c0 -21 12 -35 31 -35h7c19 0 30 14 30 35z" />
    <glyph glyph-name="threeeighths" unicode="&#x215c;" horiz-adv-x="908" 
d="M742 732c0 -3 -1 -7 -3 -10l-418 -707c-8 -13 -11 -15 -21 -15h-142c-8 0 -13 6 -13 13c0 3 0 6 2 9l418 706c7 12 11 15 23 15h142c8 0 12 -5 12 -11zM873 116c0 -66 -46 -122 -156 -122h-7c-111 0 -156 56 -156 122v11c0 35 16 64 41 84c-21 17 -38 39 -38 76v14
c0 66 42 113 153 113h7c110 0 153 -47 153 -113v-14c0 -37 -17 -59 -38 -76c25 -20 41 -49 41 -84v-11zM747 283v4c0 14 -7 33 -30 33h-7c-24 0 -30 -19 -30 -33v-4c0 -21 13 -31 30 -31h7c16 0 30 10 30 31zM747 123v6c0 24 -10 38 -30 38h-7c-21 0 -31 -14 -31 -38v-6
c0 -21 12 -35 31 -35h7c19 0 30 14 30 35zM331 457c0 -86 -57 -123 -154 -123c-33 0 -100 8 -132 24c-5 3 -10 6 -10 13v63c0 9 6 15 15 15h1c28 -2 79 -5 115 -5c28 0 33 12 33 25c0 14 -6 25 -26 25h-92c-9 0 -16 7 -16 16v69c0 9 7 16 16 16h85c24 0 33 12 33 25
s-8 23 -33 23c-36 0 -83 -3 -111 -5h-1c-8 0 -15 6 -15 15v63c0 9 7 12 14 15c23 11 78 22 124 22c97 0 154 -28 154 -118c0 -45 -20 -70 -46 -88c30 -18 46 -50 46 -90z" />
    <glyph glyph-name="fiveeighths" unicode="&#x215d;" horiz-adv-x="901" 
d="M735 732c0 -3 -1 -7 -3 -10l-418 -707c-8 -13 -11 -15 -21 -15h-142c-8 0 -13 6 -13 13c0 3 0 6 2 9l418 706c7 12 11 15 23 15h142c8 0 12 -5 12 -11zM866 116c0 -66 -46 -122 -156 -122h-7c-111 0 -156 56 -156 122v11c0 35 16 64 41 84c-21 17 -38 39 -38 76v14
c0 66 42 113 153 113h7c110 0 153 -47 153 -113v-14c0 -37 -17 -59 -38 -76c25 -20 41 -49 41 -84v-11zM740 283v4c0 14 -7 33 -30 33h-7c-24 0 -30 -19 -30 -33v-4c0 -21 13 -31 30 -31h7c16 0 30 10 30 31zM740 123v6c0 24 -10 38 -30 38h-7c-21 0 -31 -14 -31 -38v-6
c0 -21 12 -35 31 -35h7c19 0 30 14 30 35zM324 468c0 -95 -67 -135 -163 -135c-41 0 -82 8 -114 21c-6 2 -12 5 -12 11v66c0 6 5 11 11 11h1c16 -2 77 -6 85 -6c53 0 60 9 60 32v7c0 17 -6 28 -39 28h-107c-6 0 -11 5 -11 10v1l17 223c0 6 5 11 11 11h241c6 0 11 -5 11 -11
v-81c0 -6 -5 -11 -11 -11h-149l-4 -45h29c118 0 144 -55 144 -125v-7z" />
    <glyph glyph-name="seveneighths" unicode="&#x215e;" horiz-adv-x="854" 
d="M688 732c0 -3 -1 -7 -3 -10l-418 -707c-8 -13 -11 -15 -21 -15h-142c-8 0 -13 6 -13 13c0 3 0 6 2 9l418 706c7 12 11 15 23 15h142c8 0 12 -5 12 -11zM819 116c0 -66 -46 -122 -156 -122h-7c-111 0 -156 56 -156 122v11c0 35 16 64 41 84c-21 17 -38 39 -38 76v14
c0 66 42 113 153 113h7c110 0 153 -47 153 -113v-14c0 -37 -17 -59 -38 -76c25 -20 41 -49 41 -84v-11zM693 283v4c0 14 -7 33 -30 33h-7c-24 0 -30 -19 -30 -33v-4c0 -21 13 -31 30 -31h7c16 0 30 10 30 31zM693 123v6c0 24 -10 38 -30 38h-7c-21 0 -31 -14 -31 -38v-6
c0 -21 12 -35 31 -35h7c19 0 30 14 30 35zM326 671c0 -11 -4 -19 -7 -25l-148 -301c-2 -5 -4 -11 -11 -11h-117c-5 0 -8 2 -8 6c0 1 0 3 1 5l149 295h-138c-6 0 -11 5 -11 11v81c0 6 5 11 11 11h268c6 0 11 -5 11 -11v-61z" />
    <glyph glyph-name="onethird" unicode="&#x2153;" horiz-adv-x="856" 
d="M692 732c0 -3 -1 -7 -3 -10l-418 -707c-8 -13 -11 -15 -21 -15h-142c-8 0 -13 6 -13 13c0 3 0 6 2 9l418 706c7 12 11 15 23 15h142c8 0 12 -5 12 -11zM242 345c0 -6 -5 -11 -11 -11h-117c-6 0 -11 5 -11 11v265l-56 -22c-3 -1 -5 -2 -7 -2c-3 0 -5 3 -5 7v98
c0 6 2 9 8 11l89 38c4 2 7 3 12 3h87c6 0 11 -5 11 -11v-387zM821 118c0 -86 -57 -123 -154 -123c-33 0 -100 8 -132 24c-5 3 -10 6 -10 13v63c0 9 6 15 15 15h1c28 -2 79 -5 115 -5c28 0 33 12 33 25c0 14 -6 25 -26 25h-92c-9 0 -16 7 -16 16v69c0 9 7 16 16 16h85
c24 0 33 12 33 25s-8 23 -33 23c-36 0 -83 -3 -111 -5h-1c-8 0 -15 6 -15 15v63c0 9 7 12 14 15c23 11 78 22 124 22c97 0 154 -28 154 -118c0 -45 -20 -70 -46 -88c30 -18 46 -50 46 -90z" />
    <glyph glyph-name="twothirds" unicode="&#x2154;" horiz-adv-x="940" 
d="M776 732c0 -3 -1 -7 -3 -10l-418 -707c-8 -13 -11 -15 -21 -15h-142c-8 0 -13 6 -13 13c0 3 0 6 2 9l418 706c7 12 11 15 23 15h142c8 0 12 -5 12 -11zM905 118c0 -86 -57 -123 -154 -123c-33 0 -100 8 -132 24c-5 3 -10 6 -10 13v63c0 9 6 15 15 15h1
c28 -2 79 -5 115 -5c28 0 33 12 33 25c0 14 -6 25 -26 25h-92c-9 0 -16 7 -16 16v69c0 9 7 16 16 16h85c24 0 33 12 33 25s-8 23 -33 23c-36 0 -83 -3 -111 -5h-1c-8 0 -15 6 -15 15v63c0 9 7 12 14 15c23 11 78 22 124 22c97 0 154 -28 154 -118c0 -45 -20 -70 -46 -88
c30 -18 46 -50 46 -90zM332 638c0 -61 -45 -99 -93 -127c-21 -13 -61 -34 -75 -61h146c8 0 16 -6 16 -15v-86c0 -9 -8 -15 -16 -15h-259c-8 0 -16 6 -16 15v59c0 86 48 136 100 171c29 20 45 30 54 37c8 6 8 8 8 15c0 9 -4 12 -39 12c-34 0 -69 -3 -102 -6h-1
c-9 0 -15 8 -15 16v62c0 8 6 12 14 15c34 13 78 23 127 23c109 0 151 -39 151 -115z" />
    <glyph glyph-name="zero.oldstyle" unicode="&#xf730;" 
d="M622 307c0 -212 -101 -317 -287 -317s-287 105 -287 317v9c0 212 101 319 287 319s287 -107 287 -319v-9zM385 307v9c0 101 -20 118 -50 118s-50 -17 -50 -118v-9c0 -101 20 -116 50 -116s50 15 50 116z" />
    <glyph glyph-name="one.oldstyle" unicode="&#xf731;" horiz-adv-x="465" 
d="M387 20c0 -11 -9 -20 -20 -20h-195c-11 0 -20 9 -20 20v372l-101 -39c-5 -2 -9 -3 -12 -3c-7 0 -10 4 -10 12v169c0 10 4 16 14 20l162 69c8 3 13 5 22 5h140c11 0 20 -9 20 -20v-585z" />
    <glyph glyph-name="two.oldstyle" unicode="&#xf732;" 
d="M605 437c0 -101 -52 -161 -161 -185c-91 -20 -133 -29 -153 -53h281c11 0 21 -9 21 -20v-159c0 -11 -10 -20 -21 -20h-486c-11 0 -21 9 -21 20v110c0 156 62 227 205 264c90 23 100 21 100 36c0 14 -7 18 -83 18c-65 0 -131 -5 -193 -10h-1c-11 0 -19 9 -19 20v115
c0 11 10 16 20 20c63 24 146 42 237 42c202 0 274 -70 274 -198z" />
    <glyph glyph-name="three.oldstyle" unicode="&#xf733;" 
d="M604 93c0 -160 -100 -221 -280 -221c-86 0 -194 22 -236 41c-10 5 -21 9 -21 20v116c0 11 9 20 20 20h1c53 -4 149 -10 216 -10c58 0 72 26 72 56c0 29 -15 56 -59 56h-173c-11 0 -20 9 -20 20v129c0 11 9 20 20 20h161c49 0 70 27 70 57c0 32 -22 51 -71 51
c-67 0 -156 -7 -209 -10h-1c-11 0 -20 9 -20 20v116c0 11 11 15 21 20c42 19 143 41 229 41c180 0 280 -51 280 -211c0 -86 -41 -131 -93 -165c62 -31 93 -88 93 -166z" />
    <glyph glyph-name="four.oldstyle" unicode="&#xf734;" 
d="M632 54c0 -11 -9 -20 -20 -20h-50v-122c0 -11 -9 -20 -20 -20h-195c-11 0 -20 9 -20 20v122h-268c-11 0 -20 9 -20 20v130c0 10 3 19 10 28l332 418c4 4 8 5 13 5h148c11 0 20 -9 20 -20v-404h50c11 0 20 -9 20 -20v-137zM338 211v162l-128 -162h128z" />
    <glyph glyph-name="five.oldstyle" unicode="&#xf735;" 
d="M599 117c0 -173 -123 -245 -297 -245c-74 0 -149 14 -208 37c-10 4 -21 9 -21 20v120c0 11 9 20 19 20h2c30 -3 140 -10 155 -10c97 0 109 16 109 58v12c0 31 -10 51 -71 51h-194c-11 0 -21 9 -21 19v1l31 405c1 11 9 20 20 20h439c11 0 20 -9 20 -20v-147
c0 -11 -9 -20 -20 -20h-272l-7 -81h53c214 0 263 -101 263 -228v-12z" />
    <glyph glyph-name="six.oldstyle" unicode="&#xf736;" 
d="M614 254c0 -161 -92 -264 -278 -264s-280 101 -280 264v228c0 196 138 271 280 271c96 0 166 -14 222 -31c19 -6 21 -15 21 -26v-124c0 -14 -6 -20 -18 -20h-5c-47 6 -118 14 -176 14c-65 0 -93 -11 -93 -84v-5c13 2 57 7 74 7c144 0 253 -55 253 -224v-6zM384 254v6
c0 57 -17 70 -48 70c-21 0 -39 -2 -49 -3v-73c0 -73 21 -91 49 -91s48 19 48 91z" />
    <glyph glyph-name="seven.oldstyle" unicode="&#xf737;" 
d="M600 494c0 -19 -7 -34 -12 -44l-269 -548c-5 -10 -9 -20 -20 -20h-213c-10 0 -16 3 -16 10c0 2 1 6 3 10l270 536h-250c-11 0 -21 9 -21 20v147c0 11 10 20 21 20h487c11 0 20 -9 20 -20v-111z" />
    <glyph glyph-name="eight.oldstyle" unicode="&#xf738;" 
d="M625 210c0 -119 -83 -220 -284 -220h-12c-201 0 -284 101 -284 220v20c0 64 29 118 75 154c-39 30 -70 70 -70 137v26c0 121 78 206 279 206h12c201 0 279 -85 279 -206v-26c0 -67 -31 -107 -70 -137c46 -36 75 -90 75 -154v-20zM396 514v8c0 26 -12 60 -55 60h-12
c-43 0 -55 -34 -55 -60v-8c0 -38 25 -55 55 -55h12c30 0 55 17 55 55zM397 224v11c0 43 -18 68 -56 68h-12c-38 0 -56 -25 -56 -68v-11c0 -39 21 -64 56 -64h12c35 0 56 25 56 64z" />
    <glyph glyph-name="nine.oldstyle" unicode="&#xf739;" 
d="M608 143c0 -196 -138 -271 -280 -271c-96 0 -166 14 -222 31c-19 6 -21 15 -21 26v124c0 14 6 20 18 20h5c47 -6 118 -14 176 -14c65 0 93 11 93 84v5c-13 -2 -57 -7 -74 -7c-144 0 -253 55 -253 224v6c0 161 92 264 278 264s280 -101 280 -264v-228zM377 298v73
c0 73 -21 91 -49 91s-48 -19 -48 -91v-6c0 -57 17 -70 48 -70c21 0 39 2 49 3z" />
    <glyph glyph-name="uni2014.alt" unicode="&#xe009;" horiz-adv-x="662" 
d="M617 244c0 -11 -9 -20 -20 -20h-532c-11 0 -20 9 -20 20v106c0 11 9 20 20 20h532c11 0 20 -9 20 -20v-106z" />
    <glyph glyph-name="a.superior" unicode="&#xf6e9;" horiz-adv-x="342" 
d="M304 362c0 -7 -6 -13 -13 -13h-90c-7 0 -13 6 -13 13v7c-20 -15 -44 -26 -75 -26c-39 0 -91 25 -91 104v9c0 69 55 89 146 89h11v9c0 21 -14 23 -25 23c-36 0 -80 -1 -96 -3c-7 0 -12 7 -12 14v61c0 7 7 13 12 16c17 6 68 16 101 16c82 0 145 -25 145 -127v-192zM183 437
v42h-15c-15 0 -29 -6 -29 -23v-6c0 -13 9 -17 19 -17c9 0 18 3 25 4z" />
    <glyph glyph-name="b.superior" unicode="&#xf6ea;" horiz-adv-x="368" 
d="M343 491c0 -96 -62 -148 -153 -148c-56 0 -103 9 -128 14c-21 4 -24 11 -24 21v388c0 8 7 13 14 13h98c7 0 13 -5 13 -13v-88c7 1 21 3 27 3c102 0 153 -59 153 -147v-43zM217 491v43c0 25 -6 43 -27 43c-11 0 -19 -1 -27 -2v-126c9 -1 14 -1 27 -1c21 0 27 17 27 43z
" />
    <glyph glyph-name="d.superior" unicode="&#xf6eb;" horiz-adv-x="368" 
d="M330 378c0 -10 -3 -17 -24 -21c-26 -5 -72 -14 -128 -14c-91 0 -153 52 -153 148v43c0 88 51 147 153 147c6 0 20 -2 27 -3v88c0 8 6 13 13 13h98c7 0 14 -5 14 -13v-388zM205 449l-2 126c-8 1 -15 2 -25 2c-21 0 -28 -18 -28 -43v-43c0 -26 7 -43 28 -43c13 0 18 0 27 1
z" />
    <glyph glyph-name="e.superior" unicode="&#xf6ec;" horiz-adv-x="352" 
d="M326 492c0 -8 -6 -14 -14 -14h-163c0 -24 11 -31 46 -31c23 0 83 2 104 4c8 0 12 -4 12 -12v-57c0 -11 -2 -14 -11 -18c-35 -14 -81 -21 -126 -21c-83 0 -149 46 -149 149v33c0 106 61 156 154 156c102 0 147 -62 147 -156v-33zM178 586c-21 0 -29 -18 -29 -42h58
c-1 24 -7 42 -29 42z" />
    <glyph glyph-name="i.superior" unicode="&#xf6ed;" horiz-adv-x="199" 
d="M163 363c0 -7 -6 -14 -14 -14h-98c-8 0 -15 7 -15 14v299c0 8 7 14 15 14h98c8 0 14 -6 14 -14v-299zM166 710c0 -8 -7 -14 -15 -14h-103c-8 0 -15 6 -15 14v56c0 8 7 13 15 13h103c8 0 15 -5 15 -13v-56z" />
    <glyph glyph-name="l.superior" unicode="&#xf6ee;" horiz-adv-x="200" 
d="M164 363c0 -7 -6 -14 -14 -14h-99c-7 0 -14 7 -14 14v403c0 8 7 13 14 13h99c8 0 14 -5 14 -13v-403z" />
    <glyph glyph-name="m.superior" unicode="&#xf6ef;" horiz-adv-x="533" 
d="M495 363c0 -7 -5 -14 -13 -14h-99c-8 0 -14 7 -14 14v187c0 18 -7 22 -18 22c-7 0 -13 0 -22 -2v-9c0 -3 1 -6 1 -11v-187c0 -7 -6 -14 -14 -14h-99c-7 0 -14 7 -14 14v187c0 18 -6 22 -18 22c-7 0 -15 0 -21 -2v-207c0 -7 -5 -14 -13 -14h-99c-7 0 -14 7 -14 14v300
c0 7 5 13 13 13h90c7 0 13 -6 13 -13v-13c27 23 58 31 86 31s54 -8 69 -32c27 26 45 32 84 32c68 0 102 -43 102 -131v-187z" />
    <glyph glyph-name="n.superior" unicode="&#x207f;" horiz-adv-x="381" 
d="M343 363c0 -7 -6 -14 -13 -14h-98c-8 0 -15 7 -15 14v189c0 19 -11 25 -26 25c-7 0 -19 -2 -28 -7v-207c0 -7 -5 -14 -13 -14h-98c-7 0 -14 7 -14 14v300c0 7 5 13 13 13h89c7 0 13 -6 13 -13v-11c24 19 43 29 88 29c82 0 102 -60 102 -129v-189z" />
    <glyph glyph-name="o.superior" unicode="&#xf6f0;" horiz-adv-x="355" 
d="M330 500c0 -107 -58 -157 -152 -157c-95 0 -153 50 -153 157v25c0 106 58 156 153 156c94 0 152 -50 152 -156v-25zM205 500v25c0 41 -10 52 -27 52c-18 0 -28 -11 -28 -52v-25c0 -41 10 -52 28 -52c17 0 27 11 27 52z" />
    <glyph glyph-name="r.superior" unicode="&#xf6f1;" horiz-adv-x="257" 
d="M239 591c0 -7 -6 -13 -13 -13h-10c-17 0 -38 -2 -53 -8v-207c0 -7 -5 -14 -13 -14h-99c-6 0 -13 7 -13 14v300c0 7 5 13 12 13h90c7 0 13 -6 13 -13v-12c25 24 54 30 70 30h3c7 0 13 -6 13 -13v-77z" />
    <glyph glyph-name="s.superior" unicode="&#xf6f2;" horiz-adv-x="315" 
d="M285 449c0 -59 -41 -106 -139 -106c-48 0 -81 8 -103 15c-7 2 -11 6 -11 14v68c0 8 3 14 16 14c35 -5 75 -10 95 -10c13 0 17 2 17 9c0 3 -5 6 -12 11c-17 9 -45 23 -62 31c-39 20 -56 49 -56 94c0 57 41 92 130 92c41 0 82 -8 105 -15c7 -1 13 -6 13 -13v-71
c0 -7 -3 -13 -14 -13c-16 2 -75 9 -97 9c-7 0 -9 -1 -9 -4c0 -2 3 -4 6 -6c18 -9 43 -21 61 -30c45 -23 60 -56 60 -89z" />
    <glyph glyph-name="t.superior" unicode="&#xf6f3;" horiz-adv-x="241" 
d="M229 596c0 -7 -6 -14 -14 -14h-37v-132c0 -10 1 -13 10 -13h25c8 0 14 -6 14 -14v-60c0 -7 -7 -13 -14 -14c-19 -4 -33 -6 -57 -6c-58 0 -105 21 -105 109v131c-9 2 -20 3 -28 5c-7 1 -14 6 -14 14v60c0 8 6 14 14 14h28v43c0 7 7 12 14 13l101 17c6 0 12 -6 12 -13v-60
h37c8 0 14 -6 14 -14v-66z" />
    <glyph glyph-name="one.superior" unicode="&#xb9;" horiz-adv-x="277" 
d="M242 346c0 -6 -5 -11 -11 -11h-117c-6 0 -11 5 -11 11v265l-56 -22c-3 -1 -5 -2 -7 -2c-3 0 -5 3 -5 7v98c0 6 2 9 8 11l89 38c4 2 7 3 12 3h87c6 0 11 -5 11 -11v-387z" />
    <glyph glyph-name="two.superior" unicode="&#xb2;" horiz-adv-x="367" 
d="M332 638c0 -61 -45 -99 -93 -127c-21 -13 -61 -34 -75 -61h146c8 0 16 -6 16 -15v-86c0 -9 -8 -15 -16 -15h-259c-8 0 -16 6 -16 15v59c0 86 48 136 100 171c29 20 45 30 54 37c8 6 8 8 8 15c0 9 -4 12 -39 12c-34 0 -69 -3 -102 -6h-1c-9 0 -15 8 -15 16v62
c0 8 6 12 14 15c34 13 78 23 127 23c109 0 151 -39 151 -115z" />
    <glyph glyph-name="three.superior" unicode="&#xb3;" horiz-adv-x="366" 
d="M331 457c0 -86 -57 -123 -154 -123c-33 0 -100 8 -132 24c-5 3 -10 6 -10 13v63c0 9 6 15 15 15h1c28 -2 79 -5 115 -5c28 0 33 12 33 25c0 14 -6 25 -26 25h-92c-9 0 -16 7 -16 16v69c0 9 7 16 16 16h85c24 0 33 12 33 25s-8 23 -33 23c-36 0 -83 -3 -111 -5h-1
c-8 0 -15 6 -15 15v63c0 9 7 12 14 15c23 11 78 22 124 22c97 0 154 -28 154 -118c0 -45 -20 -70 -46 -88c30 -18 46 -50 46 -90z" />
    <glyph glyph-name="commaaccent" unicode="&#xf6c3;" horiz-adv-x="415" 
d="M143 -51h156c7 0 12 -3 13 -9c1 -3 0 -6 -1 -10l-57 -108c-5 -12 -11 -20 -22 -20h-122c-10 0 -13 3 -14 9c-1 3 0 7 0 11l27 108c3 12 9 19 20 19z" />
    <glyph glyph-name="Delta" unicode="&#x2206;" horiz-adv-x="716" 
d="M35 0c-13 0 -17 10 -15 20l119 604c20 102 97 129 219 129s199 -27 219 -129l119 -604c1 -4 2 -20 -15 -20h-646zM404 184l-37 365c-1 8 -2 13 -9 13s-8 -5 -9 -13l-37 -365h92z" />
    <glyph glyph-name="Omega" unicode="&#x2126;" horiz-adv-x="733" 
d="M683 418c0 -127 -41 -212 -136 -252v-6h107c8 0 14 -7 14 -14v-132c0 -7 -6 -14 -14 -14h-273c-8 0 -15 7 -15 14v235c0 6 5 13 11 15c43 11 55 56 55 135v50c0 78 -26 105 -80 105s-79 -27 -79 -105v-50c0 -79 11 -124 54 -135c6 -2 11 -9 11 -15v-235
c0 -7 -7 -14 -15 -14h-273c-8 0 -15 7 -15 14v132c0 7 7 14 15 14h107v6c-97 40 -136 124 -136 252v48c0 207 118 292 331 292c214 0 331 -85 331 -292v-48z" />
    <glyph glyph-name="uni03BC" unicode="&#x3bc;" horiz-adv-x="652" 
d="M602 46c0 -17 -6 -27 -40 -35c-50 -11 -121 -21 -235 -21c-18 0 -36 1 -53 3v-162c0 -11 -9 -20 -20 -20h-184c-11 0 -20 9 -20 20v737c0 12 9 22 21 22h179c12 0 22 -10 22 -22v-359c0 -25 19 -40 54 -40c22 0 39 1 53 3v396c0 12 8 22 20 22h180c12 0 23 -10 23 -22
v-522z" />
    <glyph glyph-name="pi" unicode="&#x3c0;" horiz-adv-x="775" 
d="M723 391h-2c18 0 18 13 18 23v147c0 11 0 23 -16 23h-668c-20 0 -20 -12 -20 -23v-147c0 -10 0 -23 18 -23h52v-367c0 -22 13 -24 24 -24h185c11 0 25 2 25 24v366h96v-205c0 -154 63 -201 209 -201c32 0 59 2 80 5c13 2 16 8 16 22v103c0 17 -3 21 -16 21h-8
c-37 0 -47 10 -47 50v206h54z" />
    <glyph glyph-name="franc" unicode="&#x20a3;" horiz-adv-x="590" 
d="M20 225h30v294c0 205 143 234 269 234c87 0 160 -6 201 -11c11 -1 20 -9 20 -20v-151c0 -11 -9 -20 -20 -20h-201c-25 0 -33 -7 -33 -32v-54h234c11 0 20 -9 20 -20v-141c0 -11 -9 -20 -20 -20h-234v-59h70c11 0 20 -9 20 -20v-81c0 -11 -9 -20 -20 -20h-70v-84
c0 -11 -9 -20 -20 -20h-195c-11 0 -21 9 -21 20v84h-30c-11 0 -20 9 -20 20v81c0 11 9 20 20 20z" />
    <glyph glyph-name="lira" unicode="&#x20a4;" 
d="M606 20c0 -11 -9 -20 -20 -20h-473c-11 0 -20 9 -20 20v110c0 15 3 17 10 26c11 12 30 49 30 75v13h-48c-11 0 -20 9 -20 20v56c0 11 9 20 20 20h48v39h-48c-11 0 -20 9 -20 20v56c0 11 9 20 20 20h48v9c0 205 96 269 283 269c68 0 140 -11 169 -17c18 -4 21 -9 21 -22
v-158c0 -13 -7 -18 -17 -18h-3c-40 3 -108 11 -170 11c-47 0 -57 -8 -57 -61v-13h136c11 0 20 -9 20 -20v-56c0 -11 -9 -20 -20 -20h-136v-39h136c11 0 20 -9 20 -20v-56c0 -11 -9 -20 -20 -20h-136v-13c0 -17 -6 -39 -12 -50h239c11 0 20 -9 20 -20v-141z" />
    <glyph glyph-name="peseta" unicode="&#x20a7;" horiz-adv-x="1667" 
d="M668 485c0 -208 -179 -261 -319 -261c-20 0 -33 1 -61 2v-206c0 -11 -9 -20 -20 -20h-192c-11 0 -21 5 -21 16v640c0 62 16 76 70 85c50 8 150 12 219 12c146 0 324 -51 324 -261v-7zM434 485v7c0 45 -34 64 -85 64h-61v-135h61c51 0 85 21 85 64zM1108 448
c0 -12 -9 -22 -21 -22h-72v-245c0 -20 2 -29 21 -29h48c12 0 21 -9 21 -21v-109c0 -12 -9 -20 -21 -22c-40 -7 -61 -10 -106 -10c-104 0 -187 38 -187 195v241l-57 10c-12 2 -22 10 -22 22v111c0 12 10 21 22 21h57v82c0 12 10 19 22 21l180 31c16 3 22 -7 22 -21v-113h72
c12 0 21 -9 21 -21v-121zM1627 180c0 -107 -74 -190 -251 -190c-86 0 -147 13 -187 26c-11 4 -19 10 -19 22v125c0 17 9 26 26 23c66 -10 139 -19 174 -19c27 0 35 5 35 20c0 7 -3 13 -23 23l-114 58c-70 35 -101 87 -101 167c0 103 75 165 235 165c74 0 147 -15 191 -27
c11 -3 21 -9 21 -21v-130c0 -13 -6 -24 -21 -21c-30 6 -139 18 -178 18c-15 0 -21 -4 -21 -12c0 -5 3 -9 13 -14l110 -54c82 -40 110 -100 110 -159z" />
    <glyph glyph-name="Euro" unicode="&#x20ac;" 
d="M593 31c0 -13 -4 -16 -21 -22c-32 -11 -76 -19 -131 -19c-192 0 -296 95 -317 270h-36c-11 0 -20 9 -20 20v47c0 11 9 20 20 20h32v51h-32c-11 0 -20 9 -20 20v47c0 11 9 20 20 20h36c22 175 126 268 317 268c55 0 103 -9 131 -19c17 -6 21 -9 21 -22v-145
c0 -13 -6 -18 -16 -18h-4c-53 6 -68 9 -121 9c-44 0 -71 -17 -85 -73h152c14 0 21 -7 21 -15c0 -2 -1 -3 -1 -5l-12 -47c-4 -17 -8 -20 -20 -20h-148v-51h131c14 0 21 -7 21 -16c0 -1 -1 -3 -1 -4l-11 -47c-3 -11 -9 -20 -20 -20h-113c7 -57 42 -75 85 -75s79 4 122 9h4
c10 0 16 -5 16 -18v-145z" />
    <glyph glyph-name="afii61289" unicode="&#x2113;" horiz-adv-x="618" 
d="M571 61c5 -13 3 -20 -9 -26c-28 -15 -111 -54 -211 -54c-145 0 -200 65 -200 234v17l-58 -33c-5 -3 -13 -4 -18 4l-32 53c-4 7 -3 14 4 18l104 59v258c0 141 68 211 214 211c160 0 213 -77 213 -167c0 -92 -53 -200 -203 -289v-115c0 -59 26 -78 62 -78c20 0 44 7 68 15
c14 5 18 6 24 -8zM483 635c0 23 -1 73 -50 73c-54 0 -58 -48 -58 -117v-138c81 55 108 139 108 182z" />
    <glyph glyph-name="estimated" unicode="&#x212e;" horiz-adv-x="606" 
d="M577 282h-429v-193c42 -40 92 -63 152 -63c112 0 165 59 210 127l31 -19c-52 -81 -116 -141 -241 -141c-163 0 -271 133 -271 290c0 159 104 290 275 290c170 0 273 -134 273 -291zM457 315v163c-36 33 -95 62 -153 62c-60 0 -116 -21 -156 -62v-163h309z" />
    <glyph glyph-name="partialdiff" unicode="&#x2202;" horiz-adv-x="668" 
d="M633 435c0 -65 -7 -131 -20 -190c-41 -180 -142 -260 -318 -260c-170 0 -260 82 -260 229c0 33 3 62 8 92c32 183 151 236 308 236c21 0 46 -7 66 -14c-2 10 -5 24 -9 35c-18 57 -61 108 -178 108c-27 0 -59 -2 -93 -8c-11 -2 -15 4 -14 12l10 96c2 18 11 18 21 20
c38 8 80 12 121 12c235 0 358 -146 358 -368zM393 318c0 38 -15 54 -49 54c-42 0 -63 -31 -73 -102c-3 -24 -5 -43 -5 -61c0 -40 15 -55 49 -55c40 0 61 30 72 102c4 24 6 45 6 62z" />
    <glyph glyph-name="product" unicode="&#x220f;" horiz-adv-x="801" 
d="M766 578c0 -13 -4 -30 -27 -30h-40v-592c0 -20 -8 -30 -24 -30h-185c-20 0 -28 9 -28 31v591h-123v-591c0 -22 -8 -31 -28 -31h-185c-16 0 -24 10 -24 30v592h-40c-23 0 -27 17 -27 30v139c0 11 4 26 22 26h687c18 0 22 -15 22 -26v-139z" />
    <glyph glyph-name="summation" unicode="&#x2211;" horiz-adv-x="601" 
d="M566 -50c0 -18 -4 -23 -22 -23h-491c-18 0 -18 12 -18 23v131c0 15 5 29 14 41l163 201c8 10 8 14 0 24l-163 201c-9 12 -14 26 -14 41v131c0 11 0 23 18 23h491c18 0 22 -5 22 -23v-133c0 -15 -6 -21 -22 -21h-238c-6 0 -5 -8 -2 -11l126 -161c7 -8 11 -19 11 -32v-54
c0 -13 -4 -24 -11 -32l-126 -161c-3 -3 -4 -11 2 -11h238c16 0 22 -6 22 -21v-133z" />
    <glyph glyph-name="uni2219" unicode="&#x2219;" horiz-adv-x="296" 
d="M256 297c0 -11 -10 -20 -21 -20h-174c-11 0 -21 9 -21 20v152c0 11 10 20 21 20h174c11 0 21 -9 21 -20v-152z" />
    <glyph glyph-name="radical" unicode="&#x221a;" horiz-adv-x="804" 
d="M797 848l-253 -891c-6 -21 -15 -23 -31 -23h-252c-16 0 -23 5 -30 24l-103 365c-3 11 -8 23 -24 23h-76c-18 0 -23 8 -23 20v128c0 12 7 25 22 25h235c13 0 25 -3 31 -25l90 -337c2 -8 6 -8 8 0l186 693c5 18 13 21 24 21h183c13 0 17 -10 13 -23z" />
    <glyph glyph-name="infinity" unicode="&#x221e;" horiz-adv-x="599" 
d="M579 368c0 -79 -8 -250 -172 -250h-6c-41 0 -75 15 -103 40c-25 -25 -56 -42 -98 -42h-7c-164 0 -173 173 -173 251v24c0 78 9 250 173 250h7c40 0 75 -15 101 -39c25 28 55 40 100 40h6c164 0 172 -172 172 -251v-23zM232 387c3 29 7 65 11 91c-12 15 -29 25 -44 25h-5
c-32 0 -33 -63 -33 -112v-24c0 -50 1 -112 33 -112h5c18 0 23 39 33 132zM439 368v23c0 59 -1 112 -32 112h-4c-19 -1 -25 -50 -33 -125c-4 -41 -8 -70 -14 -101c16 -19 31 -22 46 -22h4c31 0 33 56 33 113z" />
    <glyph glyph-name="integral" unicode="&#x222b;" horiz-adv-x="514" 
d="M479 668c0 -12 -5 -14 -15 -14c-22 0 -38 1 -49 1c-37 0 -41 -7 -41 -43v-638c0 -127 -61 -179 -180 -179c-59 0 -112 7 -145 14c-13 3 -14 7 -14 18v95c0 12 5 14 15 14c22 0 38 -1 49 -1c37 0 41 7 41 42v639c0 127 61 179 180 179c59 0 112 -7 145 -14
c13 -3 14 -7 14 -18v-95z" />
    <glyph glyph-name="approxequal" unicode="&#x2248;" horiz-adv-x="571" 
d="M506 559c0 -101 -45 -134 -134 -134c-27 0 -62 9 -84 20l-39 20c-18 9 -29 12 -37 12c-7 0 -14 -2 -14 -13v-16c0 -11 -7 -17 -18 -17h-97c-11 0 -18 6 -18 17v16c0 99 46 134 135 134c27 0 61 -8 83 -19l39 -20c18 -9 30 -13 38 -13c10 0 13 4 13 14v16c0 11 7 17 18 17
h97c11 0 18 -6 18 -17v-17zM506 329c0 -101 -45 -134 -134 -134c-27 0 -62 9 -84 20l-39 20c-18 9 -29 12 -37 12c-7 0 -14 -2 -14 -13v-16c0 -11 -7 -17 -18 -17h-97c-11 0 -18 6 -18 17v16c0 99 46 134 135 134c27 0 61 -8 83 -19l39 -20c18 -9 30 -13 38 -13
c10 0 13 4 13 14v16c0 11 7 17 18 17h97c11 0 18 -6 18 -17v-17z" />
    <glyph glyph-name="notequal" unicode="&#x2260;" 
d="M502 743c17 0 26 -7 21 -21l-31 -108h66c11 0 20 -5 20 -16v-130c0 -11 -9 -16 -20 -16h-112l-35 -122h147c11 0 20 -5 20 -16v-130c0 -11 -9 -16 -20 -16h-194l-41 -146c-3 -11 -9 -22 -21 -22h-150c-11 0 -28 4 -23 22l41 146h-57c-11 0 -20 5 -20 16v130
c0 11 9 16 20 16h104l35 122h-139c-11 0 -20 5 -20 16v130c0 11 9 16 20 16h185l31 108c3 11 11 21 23 21h150z" />
    <glyph glyph-name="lessequal" unicode="&#x2264;" horiz-adv-x="564" 
d="M580 145c0 -6 -6 -11 -13 -11h-197c-11 0 -20 3 -28 10l-236 218c-9 9 -15 19 -15 29s6 20 15 29l236 218c8 7 17 10 28 10h197c7 0 13 -5 13 -11c0 -3 -2 -8 -7 -12l-256 -234l256 -234c5 -4 7 -9 7 -12zM578 -14c0 -11 -9 -16 -20 -16h-445c-11 0 -20 5 -20 16v101
c0 11 9 16 20 16h445c11 0 20 -5 20 -16v-101z" />
    <glyph glyph-name="greaterequal" unicode="&#x2265;" 
d="M579 391c0 -10 -6 -20 -15 -29l-236 -218c-8 -7 -17 -10 -28 -10h-197c-7 0 -13 5 -13 11c0 3 2 8 7 12l256 234l-256 234c-5 4 -7 9 -7 12c0 6 6 11 13 11h197c11 0 20 -3 28 -10l236 -218c9 -9 15 -19 15 -29zM578 -14c0 -11 -9 -16 -20 -16h-445c-11 0 -20 5 -20 16
v101c0 11 9 16 20 16h445c11 0 20 -5 20 -16v-101z" />
    <glyph glyph-name="lozenge" unicode="&#x25ca;" horiz-adv-x="645" 
d="M599 355l-265 -322c-7 -9 -21 -9 -29 0l-261 322c-5 6 -5 17 0 23l262 327c8 9 23 10 30 1l264 -327c6 -6 5 -18 -1 -24zM400 367l-80 101l-80 -101l80 -97z" />
    <glyph glyph-name="uni00A0" unicode="&#xa0;" horiz-adv-x="242" 
 />
    <glyph glyph-name="uni00AD" unicode="&#xad;" horiz-adv-x="262" 
d="M247 238c0 -11 -9 -20 -20 -20h-192c-11 0 -20 9 -20 20v118c0 11 9 20 20 20h192c11 0 20 -9 20 -20v-118z" />
    <glyph glyph-name="uni02C9" unicode="&#x2c9;" horiz-adv-x="500" 
d="M447 655c0 -11 -9 -20 -20 -20h-354c-11 0 -20 9 -20 20v104c0 11 9 20 20 20h354c11 0 20 -9 20 -20v-104z" />
    <glyph glyph-name="zero.fitted" unicode="&#xf639;" 
d="M622 317c0 -222 -101 -327 -287 -327s-287 105 -287 327v109c0 222 101 327 287 327s287 -105 287 -327v-109zM385 317v109c0 111 -20 126 -50 126s-50 -15 -50 -126v-109c0 -111 20 -126 50 -126s50 15 50 126z" />
    <glyph glyph-name="one.fitted" unicode="&#xf6dc;" horiz-adv-x="465" 
d="M387 20c0 -11 -9 -20 -20 -20h-195c-11 0 -20 9 -20 20v490l-101 -39c-5 -2 -9 -3 -12 -3c-7 0 -10 4 -10 12v169c0 10 4 16 14 20l162 69c8 3 13 5 36 5h126c11 0 20 -9 20 -20v-703z" />
    <glyph glyph-name="two.fitted" unicode="&#xf63a;" 
d="M605 548c0 -108 -81 -176 -171 -229c-72 -42 -130 -77 -149 -120h287c11 0 21 -9 21 -20v-159c0 -11 -10 -20 -21 -20h-486c-11 0 -21 9 -21 20v110c0 156 87 236 183 301c111 75 122 73 122 105c0 20 -7 30 -83 30c-65 0 -131 -5 -193 -10h-1c-11 0 -19 9 -19 20v115
c0 11 10 16 20 20c63 24 146 42 237 42c202 0 274 -70 274 -205z" />
    <glyph glyph-name="three.fitted" unicode="&#xf63b;" 
d="M604 211c0 -160 -100 -221 -280 -221c-86 0 -194 22 -236 41c-10 5 -21 9 -21 20v116c0 11 9 20 20 20h1c53 -4 149 -10 216 -10c58 0 72 26 72 56c0 29 -15 56 -59 56h-173c-11 0 -20 9 -20 20v129c0 11 9 20 20 20h161c49 0 70 27 70 57c0 32 -22 51 -71 51
c-67 0 -156 -7 -209 -10h-1c-11 0 -20 9 -20 20v116c0 11 11 15 21 20c42 19 143 41 229 41c180 0 280 -51 280 -211c0 -86 -41 -131 -93 -165c62 -31 93 -88 93 -166z" />
    <glyph glyph-name="four.fitted" unicode="&#xf63c;" 
d="M632 162c0 -11 -9 -20 -20 -20h-50v-122c0 -11 -9 -20 -20 -20h-195c-11 0 -20 9 -20 20v122h-268c-11 0 -20 9 -20 20v130c0 10 3 19 10 28l332 418c4 4 8 5 13 5h148c11 0 20 -9 20 -20v-404h50c11 0 20 -9 20 -20v-137zM338 319v162l-128 -162h128z" />
    <glyph glyph-name="five.fitted" unicode="&#xf63d;" 
d="M599 235c0 -173 -123 -245 -297 -245c-74 0 -149 14 -208 37c-10 4 -21 9 -21 20v120c0 12 4 22 21 20c30 -3 140 -10 155 -10c97 0 109 16 109 58v12c0 31 -10 51 -71 51h-194c-11 0 -21 9 -21 19v1l31 405c1 11 9 20 20 20h439c11 0 20 -9 20 -20v-147
c0 -11 -9 -20 -20 -20h-272l-7 -81h53c214 0 263 -101 263 -228v-12z" />
    <glyph glyph-name="six.fitted" unicode="&#xf63e;" 
d="M614 254c0 -161 -92 -264 -278 -264s-280 101 -280 264v228c0 196 138 271 280 271c96 0 166 -14 222 -31c19 -6 21 -15 21 -26v-124c0 -17 -7 -22 -23 -20c-47 6 -118 14 -176 14c-65 0 -93 -11 -93 -84v-5c13 2 57 7 74 7c144 0 253 -55 253 -224v-6zM384 254v6
c0 57 -16 70 -53 70c-16 0 -31 -1 -44 -3v-73c0 -73 21 -91 49 -91s48 19 48 91z" />
    <glyph glyph-name="seven.fitted" unicode="&#xf63f;" horiz-adv-x="600" 
d="M565 612c0 -19 -7 -34 -12 -44l-269 -548c-5 -10 -11 -20 -28 -20h-205c-10 0 -16 3 -16 10c0 2 1 6 3 10l270 536h-250c-11 0 -21 9 -21 20v147c0 11 10 20 21 20h487c11 0 20 -9 20 -20v-111z" />
    <glyph glyph-name="eight.fitted" unicode="&#xf640;" 
d="M625 210c0 -119 -83 -220 -284 -220h-12c-201 0 -284 101 -284 220v20c0 64 29 118 75 154c-39 30 -70 70 -70 137v26c0 121 78 206 279 206h12c201 0 279 -85 279 -206v-26c0 -67 -31 -107 -70 -137c46 -36 75 -90 75 -154v-20zM396 514v8c0 26 -12 60 -55 60h-12
c-43 0 -55 -34 -55 -60v-8c0 -38 25 -55 55 -55h12c30 0 55 17 55 55zM397 224v11c0 43 -18 68 -56 68h-12c-38 0 -56 -25 -56 -68v-11c0 -39 21 -64 56 -64h12c35 0 56 25 56 64z" />
    <glyph glyph-name="nine.fitted" unicode="&#xf641;" 
d="M608 261c0 -196 -138 -271 -280 -271c-96 0 -166 14 -222 31c-19 6 -21 15 -21 26v124c0 17 7 22 23 20c49 -6 118 -14 176 -14c65 0 93 11 93 84v5c-13 -2 -57 -7 -74 -7c-144 0 -253 55 -253 224v6c0 161 92 264 278 264s280 -101 280 -264v-228zM377 416v73
c0 73 -21 91 -49 91s-48 -19 -48 -91v-6c0 -57 17 -70 48 -70c21 0 39 2 49 3z" />
    <glyph glyph-name="zero.taboldstyle" unicode="&#xf643;" 
d="M622 307c0 -212 -101 -317 -287 -317s-287 105 -287 317v9c0 212 101 319 287 319s287 -107 287 -319v-9zM385 307v9c0 101 -20 118 -50 118s-50 -17 -50 -118v-9c0 -101 20 -116 50 -116s50 15 50 116z" />
    <glyph glyph-name="one.taboldstyle" unicode="&#xf644;" 
d="M106 199h121v193l-120 -39c-5 -2 -9 -3 -12 -3c-7 0 -10 4 -10 12v169c0 10 4 16 14 20l181 69c8 3 13 5 22 5h140c11 0 20 -9 20 -20v-406h121c11 0 21 -9 21 -20v-159c0 -11 -10 -20 -21 -20h-477c-11 0 -21 9 -21 20v159c0 11 10 20 21 20z" />
    <glyph glyph-name="two.taboldstyle" unicode="&#xf645;" 
d="M605 437c0 -101 -52 -161 -161 -185c-91 -20 -133 -29 -153 -53h281c11 0 21 -9 21 -20v-159c0 -11 -10 -20 -21 -20h-486c-11 0 -21 9 -21 20v110c0 156 62 227 205 264c90 23 100 21 100 36c0 14 -7 18 -83 18c-65 0 -131 -5 -193 -10h-1c-11 0 -19 9 -19 20v115
c0 11 10 16 20 20c63 24 146 42 237 42c202 0 274 -70 274 -198z" />
    <glyph glyph-name="three.taboldstyle" unicode="&#xf646;" 
d="M604 93c0 -160 -100 -221 -280 -221c-86 0 -194 22 -236 41c-10 5 -21 9 -21 20v116c0 11 9 20 20 20h1c53 -4 149 -10 216 -10c58 0 72 26 72 56c0 29 -15 56 -59 56h-173c-11 0 -20 9 -20 20v129c0 11 9 20 20 20h161c49 0 70 27 70 57c0 32 -22 51 -71 51
c-67 0 -156 -7 -209 -10h-1c-11 0 -20 9 -20 20v116c0 11 11 15 21 20c42 19 143 41 229 41c180 0 280 -51 280 -211c0 -86 -41 -131 -93 -165c62 -31 93 -88 93 -166z" />
    <glyph glyph-name="four.taboldstyle" unicode="&#xf647;" 
d="M632 54c0 -11 -9 -20 -20 -20h-50v-122c0 -11 -9 -20 -20 -20h-195c-11 0 -20 9 -20 20v122h-268c-11 0 -20 9 -20 20v130c0 10 3 19 10 28l332 418c4 4 8 5 13 5h148c11 0 20 -9 20 -20v-404h50c11 0 20 -9 20 -20v-137zM338 211v162l-128 -162h128z" />
    <glyph glyph-name="five.taboldstyle" unicode="&#xf648;" 
d="M599 117c0 -173 -123 -245 -297 -245c-74 0 -149 14 -208 37c-10 4 -21 9 -21 20v120c0 11 9 20 19 20h2c30 -3 140 -10 155 -10c97 0 109 16 109 58v12c0 31 -10 51 -71 51h-194c-11 0 -21 9 -21 19v1l31 405c1 11 9 20 20 20h439c11 0 20 -9 20 -20v-147
c0 -11 -9 -20 -20 -20h-272l-7 -81h53c214 0 263 -101 263 -228v-12z" />
    <glyph glyph-name="six.taboldstyle" unicode="&#xf649;" 
d="M614 254c0 -161 -92 -264 -278 -264s-280 101 -280 264v228c0 196 138 271 280 271c96 0 166 -14 222 -31c19 -6 21 -15 21 -26v-124c0 -14 -6 -20 -18 -20h-5c-47 6 -118 14 -176 14c-65 0 -93 -11 -93 -84v-5c13 2 57 7 74 7c144 0 253 -55 253 -224v-6zM384 254v6
c0 57 -17 70 -48 70c-21 0 -39 -2 -49 -3v-73c0 -73 21 -91 49 -91s48 19 48 91z" />
    <glyph glyph-name="seven.taboldstyle" unicode="&#xf64a;" 
d="M600 494c0 -19 -7 -34 -12 -44l-269 -548c-5 -10 -9 -20 -20 -20h-213c-10 0 -16 3 -16 10c0 2 1 6 3 10l270 536h-250c-11 0 -21 9 -21 20v147c0 11 10 20 21 20h487c11 0 20 -9 20 -20v-111z" />
    <glyph glyph-name="eight.taboldstyle" unicode="&#xf64b;" 
d="M625 210c0 -119 -83 -220 -284 -220h-12c-201 0 -284 101 -284 220v20c0 64 29 118 75 154c-39 30 -70 70 -70 137v26c0 121 78 206 279 206h12c201 0 279 -85 279 -206v-26c0 -67 -31 -107 -70 -137c46 -36 75 -90 75 -154v-20zM396 514v8c0 26 -12 60 -55 60h-12
c-43 0 -55 -34 -55 -60v-8c0 -38 25 -55 55 -55h12c30 0 55 17 55 55zM397 224v11c0 43 -18 68 -56 68h-12c-38 0 -56 -25 -56 -68v-11c0 -39 21 -64 56 -64h12c35 0 56 25 56 64z" />
    <glyph glyph-name="nine.taboldstyle" unicode="&#xf64c;" 
d="M608 143c0 -196 -138 -271 -280 -271c-96 0 -166 14 -222 31c-19 6 -21 15 -21 26v124c0 14 6 20 18 20h5c47 -6 118 -14 176 -14c65 0 93 11 93 84v5c-13 -2 -57 -7 -74 -7c-144 0 -253 55 -253 224v6c0 161 92 264 278 264s280 -101 280 -264v-228zM377 298v73
c0 73 -21 91 -49 91s-48 -19 -48 -91v-6c0 -57 17 -70 48 -70c21 0 39 2 49 3z" />
    <glyph glyph-name="zero.denominator" unicode="&#xf655;" horiz-adv-x="369" 
d="M342 174c0 -122 -55 -180 -158 -180c-102 0 -158 58 -158 180v60c0 122 56 180 158 180c103 0 158 -58 158 -180v-60zM212 174v60c0 61 -11 70 -28 70c-16 0 -27 -9 -27 -70v-60c0 -61 11 -69 27 -69c17 0 28 8 28 69z" />
    <glyph glyph-name="one.denominator" unicode="&#xf656;" horiz-adv-x="294" 
d="M242 11c0 -6 -5 -11 -11 -11h-117c-6 0 -11 5 -11 11v265l-56 -22c-3 -1 -5 -2 -7 -2c-3 0 -5 3 -5 7v98c0 6 2 9 8 11l89 38c4 2 7 3 12 3h87c6 0 11 -5 11 -11v-387z" />
    <glyph glyph-name="two.denominator" unicode="&#xf657;" horiz-adv-x="367" 
d="M332 304c0 -61 -45 -99 -93 -127c-21 -13 -61 -34 -75 -61h146c8 0 16 -6 16 -15v-86c0 -9 -8 -15 -16 -15h-259c-8 0 -16 6 -16 15v59c0 86 48 136 100 171c29 20 45 30 54 37c8 6 8 8 8 15c0 9 -4 12 -39 12c-34 0 -69 -3 -102 -6h-1c-9 0 -15 8 -15 16v62
c0 8 6 12 14 15c34 13 78 23 127 23c109 0 151 -39 151 -115z" />
    <glyph glyph-name="three.denominator" unicode="&#xf658;" horiz-adv-x="366" 
d="M331 118c0 -86 -57 -123 -154 -123c-33 0 -100 8 -132 24c-5 3 -10 6 -10 13v63c0 9 6 15 15 15h1c28 -2 79 -5 115 -5c28 0 33 12 33 25c0 14 -6 25 -26 25h-92c-9 0 -16 7 -16 16v69c0 9 7 16 16 16h85c24 0 33 12 33 25s-8 23 -33 23c-36 0 -83 -3 -111 -5h-1
c-8 0 -15 6 -15 15v63c0 9 7 12 14 15c23 11 78 22 124 22c97 0 154 -28 154 -118c0 -45 -20 -70 -46 -88c30 -18 46 -50 46 -90z" />
    <glyph glyph-name="four.denominator" unicode="&#xf659;" horiz-adv-x="369" 
d="M348 89c0 -6 -5 -11 -11 -11h-28v-67c0 -6 -5 -11 -11 -11h-107c-6 0 -11 5 -11 11v67h-148c-6 0 -11 5 -11 11v72c0 5 2 10 6 15l183 230c2 2 4 3 7 3h5h76c6 0 11 -5 11 -11v-223h28c6 0 11 -4 11 -11v-75zM186 175v90l-70 -90h70z" />
    <glyph glyph-name="five.denominator" unicode="&#xf65a;" horiz-adv-x="369" 
d="M329 129c0 -95 -67 -135 -163 -135c-41 0 -82 8 -114 21c-6 2 -12 5 -12 11v66c0 6 5 11 11 11h1c16 -2 77 -6 85 -6c53 0 60 9 60 32v7c0 17 -6 28 -39 28h-107c-6 0 -11 5 -11 10v1l17 223c0 6 5 11 11 11h241c6 0 11 -5 11 -11v-81c0 -6 -5 -11 -11 -11h-149l-4 -45
h29c118 0 144 -55 144 -125v-7z" />
    <glyph glyph-name="six.denominator" unicode="&#xf65b;" horiz-adv-x="369" 
d="M338 140c0 -89 -51 -146 -153 -146s-154 56 -154 146v125c0 108 76 149 154 149c53 0 91 -8 122 -17c10 -3 11 -8 11 -14v-68c0 -8 -3 -11 -9 -11h-3c-26 3 -65 7 -97 7c-36 0 -51 -6 -51 -46v-3c7 1 31 4 41 4c79 0 139 -30 139 -123v-3zM211 140v3c0 31 -9 39 -26 39
c-12 0 -22 -2 -27 -2v-40c0 -40 11 -50 27 -50c15 0 26 10 26 50z" />
    <glyph glyph-name="seven.denominator" unicode="&#xf65c;" horiz-adv-x="369" 
d="M330 337c0 -11 -4 -19 -7 -25l-148 -301c-2 -5 -4 -11 -11 -11h-117c-5 0 -8 2 -8 6c0 1 0 3 1 5l149 295h-138c-6 0 -11 5 -11 11v81c0 6 5 11 11 11h268c6 0 11 -5 11 -11v-61z" />
    <glyph glyph-name="eight.denominator" unicode="&#xf65d;" horiz-adv-x="369" 
d="M344 116c0 -66 -46 -122 -156 -122h-7c-111 0 -156 56 -156 122v11c0 35 16 64 41 84c-21 17 -38 39 -38 76v14c0 66 42 113 153 113h7c110 0 153 -47 153 -113v-14c0 -37 -17 -59 -38 -76c25 -20 41 -49 41 -84v-11zM218 283v4c0 14 -7 33 -30 33h-7
c-24 0 -30 -19 -30 -33v-4c0 -21 13 -31 30 -31h7c16 0 30 10 30 31zM218 123v6c0 24 -10 38 -30 38h-7c-21 0 -31 -14 -31 -38v-6c0 -21 12 -35 31 -35h7c19 0 30 14 30 35z" />
    <glyph glyph-name="nine.denominator" unicode="&#xf65e;" horiz-adv-x="369" 
d="M334 144c0 -108 -75 -150 -154 -150c-52 0 -91 8 -122 18c-10 3 -11 8 -11 14v68c0 8 3 11 10 11h2c26 -3 65 -8 97 -8c36 0 51 6 51 47v2c-7 -1 -31 -4 -40 -4c-80 0 -139 31 -139 124v3c0 89 50 145 152 145c103 0 154 -55 154 -145v-125zM207 229v40
c0 40 -11 50 -27 50c-15 0 -26 -10 -26 -50v-3c0 -32 9 -39 26 -39c12 0 22 1 27 2z" />
    <glyph glyph-name="zero.numerator" unicode="&#xf661;" horiz-adv-x="369" 
d="M342 508c0 -122 -55 -180 -158 -180c-102 0 -158 58 -158 180v60c0 122 56 180 158 180c103 0 158 -58 158 -180v-60zM212 508v60c0 61 -11 70 -28 70c-16 0 -27 -9 -27 -70v-60c0 -61 11 -69 27 -69c17 0 28 8 28 69z" />
    <glyph glyph-name="one.numerator" unicode="&#xf662;" horiz-adv-x="277" 
d="M242 346c0 -6 -5 -11 -11 -11h-117c-6 0 -11 5 -11 11v265l-56 -22c-3 -1 -5 -2 -7 -2c-3 0 -5 3 -5 7v98c0 6 2 9 8 11l89 38c4 2 7 3 12 3h87c6 0 11 -5 11 -11v-387z" />
    <glyph glyph-name="two.numerator" unicode="&#xf663;" horiz-adv-x="367" 
d="M332 638c0 -61 -45 -99 -93 -127c-21 -13 -61 -34 -75 -61h146c8 0 16 -6 16 -15v-86c0 -9 -8 -15 -16 -15h-259c-8 0 -16 6 -16 15v59c0 86 48 136 100 171c29 20 45 30 54 37c8 6 8 8 8 15c0 9 -4 12 -39 12c-34 0 -69 -3 -102 -6h-1c-9 0 -15 8 -15 16v62
c0 8 6 12 14 15c34 13 78 23 127 23c109 0 151 -39 151 -115z" />
    <glyph glyph-name="three.numerator" unicode="&#xf664;" horiz-adv-x="366" 
d="M331 457c0 -86 -57 -123 -154 -123c-33 0 -100 8 -132 24c-5 3 -10 6 -10 13v63c0 9 6 15 15 15h1c28 -2 79 -5 115 -5c28 0 33 12 33 25c0 14 -6 25 -26 25h-92c-9 0 -16 7 -16 16v69c0 9 7 16 16 16h85c24 0 33 12 33 25s-8 23 -33 23c-36 0 -83 -3 -111 -5h-1
c-8 0 -15 6 -15 15v63c0 9 7 12 14 15c23 11 78 22 124 22c97 0 154 -28 154 -118c0 -45 -20 -70 -46 -88c30 -18 46 -50 46 -90z" />
    <glyph glyph-name="four.numerator" unicode="&#xf665;" horiz-adv-x="369" 
d="M348 423c0 -6 -5 -11 -11 -11h-28v-67c0 -6 -5 -11 -11 -11h-107c-6 0 -11 5 -11 11v67h-148c-6 0 -11 5 -11 11v72c0 5 2 10 6 15l183 230c2 2 4 3 7 3h5h76c6 0 11 -5 11 -11v-223h28c6 0 11 -4 11 -11v-75zM186 509v90l-70 -90h70z" />
    <glyph glyph-name="five.numerator" unicode="&#xf666;" horiz-adv-x="369" 
d="M329 463c0 -95 -67 -135 -163 -135c-41 0 -82 8 -114 21c-6 2 -12 5 -12 11v66c0 6 5 11 11 11h1c16 -2 77 -6 85 -6c53 0 60 9 60 32v7c0 17 -6 28 -39 28h-107c-6 0 -11 5 -11 10v1l17 223c0 6 5 11 11 11h241c6 0 11 -5 11 -11v-81c0 -6 -5 -11 -11 -11h-149l-4 -45
h29c118 0 144 -55 144 -125v-7z" />
    <glyph glyph-name="six.numerator" unicode="&#xf667;" horiz-adv-x="369" 
d="M338 474c0 -89 -51 -146 -153 -146s-154 56 -154 146v125c0 108 76 149 154 149c53 0 91 -8 122 -17c10 -3 11 -8 11 -14v-68c0 -8 -3 -11 -9 -11h-3c-26 3 -65 7 -97 7c-36 0 -51 -6 -51 -46v-3c7 1 31 4 41 4c79 0 139 -30 139 -123v-3zM211 474v3c0 31 -9 39 -26 39
c-12 0 -22 -2 -27 -2v-40c0 -40 11 -50 27 -50c15 0 26 10 26 50z" />
    <glyph glyph-name="seven.numerator" unicode="&#xf668;" horiz-adv-x="369" 
d="M330 671c0 -11 -4 -19 -7 -25l-148 -301c-2 -5 -4 -11 -11 -11h-117c-5 0 -8 2 -8 6c0 1 0 3 1 5l149 295h-138c-6 0 -11 5 -11 11v81c0 6 5 11 11 11h268c6 0 11 -5 11 -11v-61z" />
    <glyph glyph-name="eight.numerator" unicode="&#xf669;" horiz-adv-x="369" 
d="M344 450c0 -66 -46 -122 -156 -122h-7c-111 0 -156 56 -156 122v11c0 35 16 64 41 84c-21 17 -38 39 -38 76v14c0 66 42 113 153 113h7c110 0 153 -47 153 -113v-14c0 -37 -17 -59 -38 -76c25 -20 41 -49 41 -84v-11zM218 617v4c0 14 -7 33 -30 33h-7
c-24 0 -30 -19 -30 -33v-4c0 -21 13 -31 30 -31h7c16 0 30 10 30 31zM218 457v6c0 24 -10 38 -30 38h-7c-21 0 -31 -14 -31 -38v-6c0 -21 12 -35 31 -35h7c19 0 30 14 30 35z" />
    <glyph glyph-name="nine.numerator" unicode="&#xf66a;" horiz-adv-x="369" 
d="M334 478c0 -108 -75 -150 -154 -150c-52 0 -91 8 -122 18c-10 3 -11 8 -11 14v68c0 8 3 11 10 11h2c26 -3 65 -8 97 -8c36 0 51 6 51 47v2c-7 -1 -31 -4 -40 -4c-80 0 -139 31 -139 124v3c0 89 50 145 152 145c103 0 154 -55 154 -145v-125zM207 563v40
c0 40 -11 50 -27 50c-15 0 -26 -10 -26 -50v-3c0 -32 9 -39 26 -39c12 0 22 1 27 2z" />
    <glyph glyph-name="j.dotless" unicode="&#xe008;" horiz-adv-x="329" 
d="M275 573c1 -2 1 -3 1 -4v-580c0 -154 -75 -199 -179 -199c-35 0 -67 4 -106 11c-11 2 -19 9 -21 18v4v108c0 12 9 21 21 21h41c19 0 20 17 20 37v580c0 12 11 21 23 21h179c11 0 20 -7 21 -17z" />
    <glyph glyph-name="uni2215" unicode="&#x2215;" horiz-adv-x="262" 
d="M430 732c0 -3 -1 -7 -3 -10l-418 -707c-8 -13 -11 -15 -21 -15h-142c-8 0 -13 6 -13 13c0 3 0 6 2 9l418 706c7 12 11 15 23 15h142c8 0 12 -5 12 -11z" />
    <glyph glyph-name="uni03A9" unicode="&#x3a9;" horiz-adv-x="733" 
d="M683 418c0 -127 -41 -212 -136 -252v-6h107c8 0 14 -7 14 -14v-132c0 -7 -6 -14 -14 -14h-273c-8 0 -15 7 -15 14v235c0 6 5 13 11 15c43 11 55 56 55 135v50c0 78 -26 105 -80 105s-79 -27 -79 -105v-50c0 -79 11 -124 54 -135c6 -2 11 -9 11 -15v-235
c0 -7 -7 -14 -15 -14h-273c-8 0 -15 7 -15 14v132c0 7 7 14 15 14h107v6c-97 40 -136 124 -136 252v48c0 207 118 292 331 292c214 0 331 -85 331 -292v-48z" />
    </font>
</defs>
</svg>
